<svg width="40" height="44" viewBox="0 0 40 44" fill="none" xmlns="http://www.w3.org/2000/svg">
<g id="Frame 225">
<g id="freepik--Device--inject-39">
<g id="freepik--device--inject-39">
<path id="Vector" d="M15.2099 0.492599L0.675131 8.88486C0.224976 9.12537 -0.0389454 9.61064 0.00468675 10.1193L4.62863 42.3815C4.69993 42.8732 5.13518 43.433 5.60237 43.6309C6.06955 43.8289 6.823 43.7746 7.2838 43.5085L21.7665 35.1471C22.2251 34.8821 22.5433 34.2649 22.4731 33.7754L17.8651 1.61852C17.7949 1.12686 17.3586 0.568157 16.8914 0.369152C16.4242 0.170147 15.6707 0.226549 15.2099 0.492599Z" fill="#37474F"/>
<path id="Vector_2" d="M7.08228 43.6046C6.62574 43.7845 6.0085 43.8015 5.60411 43.6302C5.13692 43.4322 4.7006 42.8725 4.63037 42.3808L0.00642571 10.1186C-0.0180508 9.88767 0.0277097 9.65354 0.138386 9.44922L1.68999 10.0984C1.47608 10.3538 1.37286 10.6826 1.40052 11.0147L5.97658 42.9576C6.06278 43.5472 6.53847 43.809 7.08228 43.6046Z" fill="#263238"/>
<path id="Vector_3" d="M2.02278 9.8026C1.61732 10.0357 1.33743 10.5805 1.39916 11.0126L5.97521 42.9566C6.07098 43.6207 6.65842 43.8697 7.28098 43.51L21.7668 35.1475C22.2255 34.8825 22.5437 34.2653 22.4735 33.7758L17.8655 1.61892C17.7953 1.12939 17.3621 0.946346 16.9077 1.21133L2.02278 9.8026Z" fill="#455A64"/>
<path id="Vector_4" d="M3.11053 11.6717C2.67315 11.9239 2.37198 12.5081 2.43903 12.9753L6.39997 40.6083C6.46701 41.0755 6.87567 41.2468 7.31412 40.9967L20.9358 33.1291C21.3722 32.8779 21.6744 32.2905 21.6084 31.8255L17.6507 4.1925C17.5836 3.72638 17.1718 3.55398 16.7355 3.80407L3.11053 11.6717Z" fill="#37474F"/>
<path id="Vector_5" d="M8.5992 7.09673L11.0139 5.70263C11.1575 5.61962 11.2916 5.66857 11.3118 5.80905C11.3193 5.97719 11.2331 6.13469 11.0884 6.21983L8.6737 7.61925C8.52897 7.70226 8.39594 7.65224 8.37572 7.51283C8.36615 7.34256 8.45234 7.18186 8.5992 7.09673Z" fill="black"/>
<path id="Vector_6" d="M12.745 4.70173C12.8802 4.62405 13.0068 4.67726 13.027 4.82092C13.0377 4.98481 12.9547 5.13912 12.8142 5.22319C12.679 5.30194 12.5524 5.24767 12.5322 5.104C12.5215 4.94011 12.6045 4.7858 12.745 4.70173Z" fill="black"/>
<path id="Vector_7" d="M13.7244 4.1392C13.8596 4.06151 13.9862 4.11472 14.0075 4.25945C14.0171 4.42228 13.9351 4.57765 13.7947 4.66172C13.6595 4.73941 13.5329 4.6862 13.5126 4.54147C13.502 4.37865 13.5839 4.22221 13.7244 4.1392Z" fill="black"/>
<path id="Vector_8" d="M5.89223 8.65728C6.02738 8.57853 6.15402 8.63281 6.17424 8.77647C6.18595 8.93929 6.10614 9.09467 5.96673 9.17874C5.83157 9.25749 5.706 9.20322 5.68471 9.05955C5.67301 8.89779 5.75389 8.74242 5.89223 8.65728Z" fill="black"/>
<path id="Vector_9" d="M6.87271 8.09233C7.00787 8.01464 7.13344 8.06785 7.15473 8.21258C7.16537 8.37434 7.08555 8.52971 6.94721 8.61485C6.81205 8.69253 6.68541 8.63932 6.66519 8.49459C6.65349 8.33177 6.7333 8.17746 6.87271 8.09233Z" fill="black"/>
<path id="Vector_10" d="M20.4417 31.2586L16.5233 3.92578L3.11444 11.6721C2.67706 11.9243 2.37589 12.5085 2.44293 12.9757L6.35918 40.3075L19.7681 32.5623C20.2055 32.3101 20.513 31.7237 20.4417 31.2586Z" fill="#3B82F6"/>
<g id="Group" opacity="0.6">
<path id="Vector_11" d="M6.71928 13.4475C6.73737 13.4379 6.74695 13.4188 6.74375 13.3985L6.24039 9.86328L6.12226 9.93245L6.61179 13.3719L5.67743 13.9115C5.65934 13.9211 5.64976 13.9402 5.65295 13.9604L5.87324 15.5025C5.8775 15.5227 5.8924 15.5408 5.91155 15.5482L6.98958 16.0058L7.33225 18.3992C7.26947 18.462 7.23648 18.5493 7.24286 18.6376C7.24818 18.7046 7.30671 18.7557 7.37376 18.7504C7.3993 18.7483 7.42271 18.7387 7.44293 18.7227C7.54084 18.6621 7.5983 18.5525 7.58979 18.4375C7.58766 18.3747 7.53445 18.3258 7.47167 18.329C7.46528 18.329 7.45889 18.33 7.45145 18.3311L7.11197 15.9643C7.10877 15.943 7.09387 15.926 7.07365 15.9186L5.99669 15.461L5.78385 13.9817L6.71928 13.4475Z" fill="white"/>
<path id="Vector_12" d="M4.19141 11.0466L4.90655 16.0579C4.9108 16.0792 4.9257 16.0962 4.94592 16.1037L6.02608 16.5592L6.2219 17.9277C6.15804 17.9905 6.12505 18.0778 6.1325 18.1672C6.1474 18.2736 6.23892 18.3066 6.33257 18.2512C6.43048 18.1906 6.48688 18.081 6.47943 17.966C6.4773 17.9032 6.42409 17.8543 6.36131 17.8564C6.35386 17.8564 6.34747 17.8575 6.34002 17.8596L6.14421 16.5251C6.14102 16.5038 6.12612 16.4868 6.1059 16.4794L5.02574 16.0239L4.30528 10.9785L4.19141 11.0466Z" fill="white"/>
<path id="Vector_13" d="M8.34424 39.1578L7.53864 33.5356C7.53438 33.5143 7.52055 33.4973 7.50033 33.4888L6.42229 33.0312L4.31305 18.2931C4.37584 18.2303 4.40883 18.143 4.40138 18.0547C4.38755 17.9483 4.29496 17.9142 4.20238 17.9696C4.10447 18.0302 4.047 18.1399 4.05552 18.2548C4.05765 18.3176 4.11086 18.3665 4.17364 18.3633C4.18003 18.3633 4.18641 18.3623 4.19386 18.3612L6.29991 33.0663C6.3031 33.0876 6.318 33.1057 6.33822 33.1131L7.41945 33.5718L8.2293 39.2269L8.34424 39.1578Z" fill="white"/>
<path id="Vector_14" d="M3.23047 11.6024L3.94561 16.6158C3.94987 16.6371 3.9637 16.6541 3.98392 16.6626L5.06195 17.1224L5.3993 19.5094C5.33439 19.5722 5.3014 19.6605 5.30778 19.7509C5.32162 19.8574 5.4142 19.8914 5.50785 19.8361C5.60576 19.7754 5.66216 19.6658 5.65471 19.5509C5.65152 19.487 5.59724 19.4391 5.53339 19.4423C5.52807 19.4423 5.52381 19.4423 5.51849 19.4444L5.18646 17.0819C5.18114 17.0606 5.16731 17.0436 5.14709 17.0362L4.06906 16.5796L3.34859 11.5332L3.23047 11.6024Z" fill="white"/>
<path id="Vector_15" d="M16.5414 34.4267L16.2519 32.4048C16.2477 32.3845 16.2328 32.3664 16.2136 32.359L15.1356 31.9014L14.8716 30.0156C14.9344 29.9528 14.9674 29.8656 14.961 29.7772C14.9557 29.7102 14.8972 29.6591 14.8301 29.6644C14.8046 29.6666 14.7812 29.6762 14.761 29.6921C14.6631 29.7528 14.6056 29.8624 14.6141 29.9773C14.6173 30.0412 14.6716 30.0891 14.7354 30.0859C14.7418 30.0859 14.7471 30.0848 14.7525 30.0837L15.0185 31.9354C15.0217 31.9567 15.0366 31.9738 15.0568 31.9812L16.1338 32.4388L16.4286 34.4948L16.5414 34.4267Z" fill="white"/>
<path id="Vector_16" d="M7.38256 39.7137L6.9654 36.8031C7.02819 36.7403 7.06118 36.6531 7.05479 36.5637C7.03989 36.4573 6.94837 36.4243 6.85472 36.4796C6.75681 36.5403 6.69935 36.6499 6.70786 36.7648C6.70999 36.8276 6.76214 36.8765 6.82386 36.8744C6.83131 36.8744 6.83876 36.8734 6.84621 36.8712L7.26337 39.7829L7.38256 39.7137Z" fill="white"/>
<path id="Vector_17" d="M18.7758 24.7518L17.6648 24.2804C17.6446 24.2698 17.6211 24.2698 17.6009 24.2804L17.2114 24.5092L16.7113 21.0197L17.5222 19.4479C17.5243 19.4394 17.5243 19.4287 17.5222 19.4202L17.154 16.8502C17.1497 16.8289 17.1359 16.8119 17.1157 16.8033L16.0036 16.3319C15.9833 16.3223 15.9599 16.3223 15.9397 16.3319L15.547 16.5586L15.1213 13.5788C15.1171 13.5575 15.1022 13.5395 15.082 13.532L14.005 13.0776L13.7922 11.593L15.1756 10.7917L16.2185 11.2344L16.8102 15.3635C16.7464 15.4263 16.7144 15.5135 16.7208 15.6029C16.7357 15.7094 16.8273 15.7423 16.9209 15.687C17.0188 15.6274 17.0763 15.5178 17.0678 15.4029C17.0646 15.339 17.0103 15.2911 16.9475 15.2943C16.9411 15.2943 16.9347 15.2954 16.9284 15.2964L16.342 11.1982C16.3388 11.1769 16.3239 11.1599 16.3037 11.1525L15.1916 10.681C15.1714 10.6714 15.1479 10.6714 15.1277 10.681L13.7709 11.4653L12.9866 5.96875L12.8674 6.03686L13.6528 11.5334L13.2271 11.7771L12.1629 11.3355L11.518 6.81266L11.3998 6.88077L12.0384 11.3727C12.0416 11.394 12.0565 11.4111 12.0767 11.4185L13.2058 11.8899C13.226 11.8995 13.2484 11.8995 13.2686 11.8899L13.6623 11.6633L13.8752 13.1159C13.8794 13.1372 13.8943 13.1553 13.9145 13.1627L14.9979 13.6097L15.43 16.6256L12.1735 18.5061L11.4509 13.4596C11.4467 13.4384 11.4328 13.4213 11.4126 13.4128L9.77907 12.72L9.1331 8.18867L9.01498 8.25678L9.65562 12.7583C9.65882 12.7796 9.67372 12.7966 9.69394 12.8041L11.3275 13.5033L12.0554 18.5816L9.70351 19.9385L8.6606 19.4968L7.20797 9.30607L7.08984 9.37525L8.54141 19.5298C8.5446 19.5511 8.5595 19.5692 8.57972 19.5766L9.69074 20.0481C9.71096 20.0577 9.73438 20.0577 9.75459 20.0481L12.0767 18.7083L12.3363 20.528C12.2736 20.5908 12.2416 20.6781 12.248 20.7675C12.2618 20.8739 12.3544 20.9069 12.447 20.8526C12.5449 20.792 12.6024 20.6823 12.5939 20.5674C12.5917 20.5046 12.5385 20.4557 12.4757 20.4589C12.4694 20.4589 12.463 20.4599 12.4555 20.461L12.1948 18.6412L15.4512 16.7608L15.8769 19.7097C15.8141 19.7725 15.7811 19.8597 15.7875 19.9491C15.7929 20.0162 15.8514 20.0672 15.9184 20.0619C15.944 20.0598 15.9674 20.0502 15.9876 20.0343C16.0855 19.9736 16.143 19.864 16.1345 19.749C16.1323 19.6863 16.0791 19.6373 16.0163 19.6405C16.0099 19.6405 16.0036 19.6416 15.9961 19.6426L15.5704 16.6937L15.9961 16.449L17.039 16.8917L17.4009 19.417L16.591 20.9888C16.5889 20.9974 16.5889 21.008 16.591 21.0165L17.1018 24.5837L15.7748 25.3499L14.851 18.9019C14.9149 18.8392 14.9479 18.7519 14.9404 18.6636C14.9266 18.5571 14.834 18.5231 14.7404 18.5784C14.6425 18.6391 14.5861 18.7487 14.5935 18.8636C14.5978 18.9275 14.652 18.9764 14.7169 18.9722C14.7223 18.9722 14.7276 18.9711 14.7329 18.9701L15.6556 25.417L14.3285 26.1843L13.6996 21.7923C13.7634 21.7295 13.7964 21.6423 13.789 21.5539C13.7836 21.4869 13.7251 21.4358 13.6581 21.4411C13.6325 21.4432 13.6091 21.4528 13.5889 21.4688C13.491 21.5294 13.4335 21.6391 13.442 21.754C13.4452 21.8178 13.4995 21.8657 13.5623 21.8625C13.5687 21.8625 13.5751 21.8615 13.5814 21.8604L14.2093 26.2513L11.9181 27.5741L11.7893 26.6727L12.7237 26.1332C12.7418 26.1236 12.7514 26.1044 12.7482 26.0842L12.4013 23.6547C12.464 23.5919 12.497 23.5046 12.4896 23.4163C12.4757 23.3099 12.3832 23.2758 12.2906 23.3311C12.1927 23.3918 12.1352 23.5014 12.1437 23.6163C12.1458 23.6791 12.1991 23.7281 12.2618 23.7249C12.2682 23.7249 12.2746 23.7238 12.2821 23.7228L12.6162 26.0565L11.6691 26.5929C11.6521 26.6025 11.6414 26.6216 11.6435 26.6419L11.7872 27.639L10.9412 28.1264L9.94402 21.1655C10.0079 21.1027 10.0398 21.0154 10.0334 20.926C10.0196 20.8196 9.92699 20.7856 9.83335 20.8409C9.73544 20.9016 9.67904 21.0112 9.68649 21.1261C9.68968 21.19 9.74395 21.2379 9.80674 21.2347C9.81313 21.2347 9.81951 21.2336 9.8259 21.2325L10.8262 28.1966L10.4006 28.4403L9.35765 27.9976L8.92026 24.9445C8.91707 24.9232 8.90217 24.9061 8.88195 24.8987L7.80498 24.4411L7.70495 23.744C7.7688 23.6813 7.80179 23.594 7.79434 23.5057C7.78902 23.4386 7.73049 23.3875 7.66345 23.3929C7.63791 23.395 7.61449 23.4046 7.59427 23.4205C7.49637 23.4812 7.4389 23.5908 7.44741 23.7057C7.44954 23.7685 7.50275 23.8175 7.56554 23.8153C7.57299 23.8153 7.57937 23.8143 7.58682 23.8122L7.68154 24.4783C7.68579 24.4986 7.70069 24.5167 7.71985 24.5241L8.79788 24.9817L9.2342 28.0349C9.23846 28.0562 9.25336 28.0732 9.27358 28.0807L10.3846 28.5521C10.4048 28.5627 10.4282 28.5627 10.4485 28.5521L10.8411 28.3254L11.1966 30.8007C11.1998 30.822 11.2147 30.839 11.2349 30.8465L12.3119 31.3041L13.0483 36.4442L13.1664 36.3761L12.4353 31.2679C12.4311 31.2477 12.4162 31.2296 12.397 31.2222L11.319 30.7646L10.9603 28.2573L11.8053 27.7635L12.0118 29.2108C12.016 29.2321 12.0309 29.2491 12.0511 29.2566L13.1281 29.7142L14.0114 35.8865L14.1295 35.8184L13.2515 29.6791C13.2473 29.6578 13.2324 29.6408 13.2122 29.6333L12.1352 29.1757L11.9224 27.6965L14.2146 26.3801L14.569 28.8554C14.5733 28.8767 14.5882 28.8948 14.6084 28.9022L16.7964 29.8302L17.386 33.9359L17.5041 33.8667L16.9198 29.7855C16.9166 29.7642 16.9017 29.7461 16.8815 29.7387L14.6925 28.8107L14.3381 26.3066L15.6651 25.5393L16.0195 28.0157C16.0238 28.037 16.0387 28.054 16.0589 28.0615L17.6914 28.7543L18.3544 33.3814L18.4725 33.3122L17.8106 28.7213C17.8063 28.7 17.7925 28.683 17.7723 28.6745L16.1387 27.9764L15.7801 25.4691L17.1071 24.7029L17.4413 27.0367C17.3785 27.0995 17.3455 27.1867 17.353 27.2761C17.3668 27.3825 17.4594 27.4155 17.552 27.3602C17.6499 27.3006 17.7073 27.191 17.6988 27.076C17.6967 27.0133 17.6435 26.9643 17.5807 26.9675C17.5743 26.9675 17.5679 26.9686 17.5605 26.9696L17.2263 24.6348L17.652 24.3911L18.6949 24.8338L19.7996 32.545L19.9177 32.4769L18.8184 24.7965C18.813 24.7753 18.7971 24.7582 18.7758 24.7518Z" fill="white"/>
<path id="Vector_18" d="M9.30756 38.6013L8.50303 32.9792C8.49877 32.9589 8.48387 32.9408 8.46471 32.9334L7.38668 32.4758L6.66835 27.4581C6.7322 27.3953 6.76413 27.308 6.75774 27.2187C6.75242 27.1516 6.69389 27.1005 6.62684 27.1058C6.6013 27.108 6.57789 27.1176 6.55767 27.1335C6.45977 27.1942 6.40336 27.3038 6.41081 27.4187C6.41401 27.4826 6.46828 27.5305 6.53107 27.5273C6.53745 27.5273 6.54384 27.5262 6.55022 27.5251L7.2643 32.512C7.26749 32.5333 7.28239 32.5513 7.30261 32.5577L8.37958 33.0153L9.18943 38.6705L9.30756 38.6013Z" fill="white"/>
<path id="Vector_19" d="M15.0946 35.2615L14.8988 33.893C14.9627 33.8302 14.9957 33.7429 14.9882 33.6535C14.9733 33.5471 14.8818 33.5141 14.7881 33.5694C14.6902 33.6301 14.6338 33.7397 14.6413 33.8547C14.6434 33.9174 14.6966 33.9664 14.7594 33.9643C14.7669 33.9643 14.7732 33.9632 14.7807 33.9611L14.9776 35.3296L15.0946 35.2615Z" fill="white"/>
<path id="Vector_20" d="M13.8359 5.4788L14.1839 7.92646C14.1871 7.94774 14.202 7.96477 14.2222 7.97222L15.2992 8.42982L15.4961 9.79945C15.4322 9.86223 15.3992 9.9495 15.4067 10.0378C15.4205 10.1442 15.5131 10.1783 15.6068 10.123C15.7047 10.0623 15.7611 9.95269 15.7536 9.83776C15.7504 9.77391 15.6962 9.72602 15.6334 9.72921C15.627 9.72921 15.6206 9.73027 15.6142 9.73134L15.4227 8.39364C15.4184 8.37236 15.4046 8.35533 15.3843 8.34788L14.3074 7.88495L13.9551 5.41602L13.8359 5.4788Z" fill="white"/>
<path id="Vector_21" d="M15.7617 4.36587L16.0161 6.15372C15.9522 6.21651 15.9192 6.30378 15.9267 6.39211C15.9405 6.49852 16.0331 6.53258 16.1257 6.47724C16.2236 6.41658 16.281 6.30697 16.2725 6.19204C16.2704 6.12925 16.2172 6.0803 16.1544 6.08349C16.148 6.08349 16.1416 6.08455 16.1342 6.08562L15.8809 4.29883L15.7617 4.36587Z" fill="white"/>
<path id="Vector_22" d="M14.8008 4.92234L15.1488 7.36999C15.152 7.39128 15.1669 7.4083 15.1871 7.41575L16.2641 7.87336L16.5344 9.75699C16.4705 9.81978 16.4375 9.90704 16.445 9.99537C16.4503 10.0624 16.5088 10.1135 16.5759 10.1082C16.6014 10.106 16.6248 10.0965 16.645 10.0805C16.7429 10.0198 16.7993 9.91023 16.7919 9.7953C16.7887 9.73145 16.7344 9.68356 16.6716 9.68675C16.6653 9.68675 16.6589 9.68781 16.6525 9.68888L16.3875 7.83718C16.3832 7.81589 16.3694 7.79886 16.3492 7.79142L15.2722 7.33168L14.92 4.85742L14.8008 4.92234Z" fill="white"/>
<path id="Vector_23" d="M19.3343 23.5412L18.5893 23.222L18.2466 20.8243C18.3094 20.7616 18.3414 20.6743 18.335 20.586C18.3211 20.4795 18.2286 20.4455 18.136 20.5008C18.0381 20.5615 17.9806 20.6711 17.9891 20.786C17.9912 20.8488 18.0445 20.8978 18.1072 20.8946C18.1136 20.8946 18.12 20.8935 18.1275 20.8925L18.4659 23.2582C18.4701 23.2795 18.485 23.2965 18.5052 23.3039L19.3502 23.6636L19.3343 23.5412Z" fill="white"/>
<path id="Vector_24" d="M11.72 37.2102L11.0624 32.615C11.0592 32.5937 11.0443 32.5767 11.0241 32.5693L8.835 31.6402L8.03047 26.0159C8.02621 25.9946 8.01131 25.9776 7.99109 25.9702L6.35755 25.2774L5.79352 21.3398C5.85738 21.2771 5.89037 21.1898 5.88292 21.1015C5.87759 21.0344 5.81906 20.9833 5.75202 20.9887C5.72648 20.9908 5.70307 21.0004 5.68285 21.0163C5.58494 21.077 5.52747 21.1866 5.53599 21.3015C5.53918 21.3654 5.59345 21.4133 5.65731 21.4101C5.66369 21.4101 5.66901 21.409 5.67433 21.408L6.23517 25.3168C6.23942 25.338 6.25432 25.3561 6.27454 25.3636L7.90702 26.0564L8.71262 31.6807C8.71581 31.7019 8.73071 31.719 8.75093 31.7264L10.9389 32.6555L11.6019 37.2815L11.72 37.2102Z" fill="white"/>
<path id="Vector_25" d="M10.7572 37.7675L10.5444 36.2574C10.5412 36.2361 10.5263 36.218 10.5061 36.2116L9.98464 35.9892L9.71433 34.1067C9.77819 34.0439 9.81011 33.9566 9.80373 33.8672C9.78989 33.7608 9.69731 33.7267 9.60472 33.7821C9.50681 33.8427 9.44935 33.9524 9.45786 34.0673C9.45999 34.1301 9.5132 34.179 9.57599 34.1758C9.58237 34.1758 9.58876 34.1748 9.59621 34.1737L9.86119 36.0254C9.86545 36.0467 9.87928 36.0637 9.8995 36.0712L10.421 36.2936L10.6423 37.8345L10.7572 37.7675Z" fill="white"/>
<path id="Vector_26" d="M9.89219 13.739L8.81416 13.2814L8.165 8.75L8.04688 8.81917L8.68539 13.3186C8.68859 13.3399 8.70349 13.3569 8.7237 13.3644L9.80067 13.822L10.2178 16.7336C10.154 16.7964 10.121 16.8837 10.1284 16.972C10.1338 17.039 10.1923 17.0901 10.2593 17.0848C10.2849 17.0827 10.3083 17.0731 10.3285 17.0571C10.4264 16.9965 10.4839 16.8869 10.4754 16.7719C10.4722 16.7081 10.4179 16.6602 10.3541 16.6634C10.3477 16.6634 10.3424 16.6644 10.337 16.6655L9.92412 13.7858C9.92093 13.7656 9.90922 13.7485 9.89219 13.739Z" fill="white"/>
<path id="Vector_27" d="M12.9347 13.0971L10.7456 12.1681L10.0997 7.63672L9.98047 7.70483L10.619 12.2053C10.6222 12.2266 10.6371 12.2436 10.6573 12.2511L12.8506 13.1844L13.1209 15.0669C13.0571 15.1297 13.0251 15.217 13.0315 15.3064C13.0368 15.3734 13.0954 15.4245 13.1624 15.4192C13.188 15.4171 13.2114 15.4075 13.2316 15.3915C13.3338 15.3309 13.3923 15.2181 13.3827 15.0999C13.3785 15.0361 13.3242 14.9871 13.2593 14.9914C13.2539 14.9914 13.2486 14.9925 13.2433 14.9935L12.9783 13.1418C12.973 13.1195 12.956 13.1024 12.9347 13.0971Z" fill="white"/>
</g>
</g>
</g>
<g id="freepik--Android--inject-39">
<g id="freepik--Cables--inject-39">
<path id="Vector_28" d="M14.7457 32.6797C14.6563 32.6797 14.568 32.6562 14.4903 32.6105C14.2083 32.4477 14.0391 32.0103 14.0391 31.4399C14.0391 30.5183 14.4786 29.5147 15.0192 29.2051C15.1937 29.0859 15.4204 29.0752 15.6056 29.1763C15.8886 29.3402 16.0578 29.7765 16.0578 30.3469C16.0578 31.2685 15.6183 32.2731 15.0777 32.5818C14.9777 32.6435 14.8628 32.6775 14.7457 32.6797ZM15.0777 29.3051C14.569 29.5977 14.1561 30.5566 14.1561 31.4409C14.1561 31.9677 14.303 32.3668 14.5488 32.5051C14.6989 32.5839 14.8798 32.5722 15.0192 32.4764C15.5268 32.1827 15.9408 31.2238 15.9408 30.3395C15.9408 29.8074 15.7939 29.4136 15.547 29.2753C15.397 29.1965 15.2161 29.2082 15.0777 29.3051Z" fill="#3B82F6"/>
<path id="Vector_29" d="M13.7733 30.4134H13.7574C13.7265 30.4038 13.7084 30.3719 13.7169 30.341C13.8042 30.0218 13.9245 29.7131 14.0756 29.4194C14.0905 29.3896 14.1267 29.3779 14.1565 29.3939C14.1863 29.4098 14.198 29.445 14.182 29.4748C14.0341 29.761 13.9181 30.0622 13.8329 30.3729C13.8255 30.3985 13.8 30.4166 13.7733 30.4144V30.4134Z" fill="#3B82F6"/>
<path id="Vector_30" d="M13.5937 31.7034C13.5618 31.7034 13.5352 31.6767 13.5352 31.6448C13.5352 31.4245 13.5511 31.2042 13.583 30.9861C13.5873 30.9542 13.6171 30.9318 13.649 30.9361C13.681 30.9403 13.7033 30.9701 13.699 31.002C13.6682 31.2138 13.6533 31.4267 13.6522 31.6406C13.6543 31.6725 13.6299 31.7012 13.5979 31.7034C13.5969 31.7034 13.5948 31.7034 13.5937 31.7034Z" fill="#3B82F6"/>
<path id="Vector_31" d="M14.5295 33.4751H14.5231C14.0815 33.424 13.7037 32.9899 13.5813 32.396C13.5707 32.3652 13.5877 32.3322 13.6185 32.3215C13.6494 32.3109 13.6824 32.3279 13.693 32.3588C13.6941 32.363 13.6952 32.3673 13.6962 32.3726C13.8261 33.0016 14.2124 33.3208 14.537 33.3591C14.5689 33.3613 14.5944 33.3889 14.5923 33.4209C14.5902 33.4528 14.5625 33.4783 14.5306 33.4762L14.5295 33.4751Z" fill="#3B82F6"/>
<path id="Vector_32" d="M15.1317 33.2995C15.0998 33.2995 15.0732 33.2729 15.0742 33.2399C15.0742 33.2207 15.0838 33.2037 15.0987 33.193C15.2658 33.0749 15.4137 32.9312 15.5361 32.7674C15.5563 32.7418 15.5925 32.7365 15.6191 32.7557C15.6447 32.7759 15.65 32.8121 15.6298 32.8387C15.4989 33.0121 15.3424 33.1654 15.1647 33.2909C15.1551 33.2973 15.1434 33.3005 15.1317 33.2995Z" fill="#3B82F6"/>
<path id="Vector_33" d="M15.9353 32.2901C15.9258 32.2901 15.9173 32.288 15.9087 32.2837C15.88 32.2688 15.8683 32.2337 15.8832 32.205C16.2056 31.5463 16.377 30.8226 16.3823 30.0894C16.3823 29.3093 16.1631 28.7165 15.7938 28.5037C15.581 28.3824 15.3373 28.3973 15.0797 28.5463C15.0521 28.5622 15.0159 28.5527 14.9999 28.5239C14.984 28.4963 14.9935 28.4611 15.0212 28.4441C15.317 28.2738 15.6044 28.2589 15.8523 28.4026C16.2578 28.6367 16.4994 29.2667 16.4994 30.0894C16.494 30.8418 16.3185 31.5824 15.9875 32.2571C15.9779 32.2774 15.9577 32.2901 15.9353 32.2901Z" fill="#3B82F6"/>
<path id="Vector_34" d="M8.42996 26.2398C8.37782 26.2398 8.32567 26.226 8.28097 26.1994C8.11922 26.1068 8.02344 25.861 8.02344 25.5428C8.02344 25.0235 8.26288 24.4786 8.56937 24.3019C8.67153 24.2338 8.80349 24.2274 8.91098 24.286C9.07274 24.3796 9.16851 24.6244 9.16851 24.9436C9.16851 25.4619 8.92907 26.0078 8.62258 26.1845C8.56405 26.2196 8.49807 26.2388 8.42996 26.2398ZM8.76093 24.352C8.71197 24.353 8.66408 24.3679 8.62258 24.3945C8.35121 24.551 8.12986 25.066 8.12986 25.5428C8.12986 25.8184 8.20754 26.0344 8.33418 26.1079C8.40974 26.1473 8.5002 26.1409 8.56937 26.0919C8.84074 25.9355 9.06209 25.4193 9.06209 24.9436C9.06209 24.667 8.98334 24.4509 8.85777 24.3786C8.82903 24.3605 8.79498 24.352 8.76093 24.352Z" fill="#3B82F6"/>
<path id="Vector_35" d="M7.89772 24.9977H7.88282C7.85409 24.9892 7.83812 24.9604 7.84557 24.9317C7.89346 24.7561 7.96051 24.5869 8.04351 24.4251C8.05735 24.3985 8.08927 24.389 8.11588 24.4028C8.14248 24.4166 8.15206 24.4486 8.13823 24.4752C8.05735 24.6305 7.99456 24.7934 7.9488 24.9615C7.94135 24.9838 7.92113 24.9987 7.89772 24.9987V24.9977Z" fill="#3B82F6"/>
<path id="Vector_36" d="M7.7993 25.7075C7.76951 25.7075 7.74609 25.684 7.74609 25.6542C7.74609 25.5329 7.75567 25.4116 7.7727 25.2914C7.77696 25.2626 7.80462 25.2424 7.83336 25.2467C7.86209 25.2509 7.88231 25.2765 7.87805 25.3052C7.86103 25.4201 7.85251 25.5372 7.85251 25.6532C7.85251 25.683 7.8291 25.7064 7.7993 25.7064V25.7075Z" fill="#3B82F6"/>
<path id="Vector_37" d="M8.31315 26.6747H8.30676C8.05774 26.6449 7.84277 26.4012 7.77467 26.0681C7.76828 26.0383 7.78744 26.0096 7.81723 26.0032C7.84703 25.9968 7.87576 26.016 7.88109 26.0457C7.94919 26.3799 8.15139 26.5491 8.32166 26.5683C8.35146 26.5704 8.37381 26.5949 8.37168 26.6247C8.36955 26.6545 8.34508 26.6768 8.31528 26.6747H8.31315Z" fill="#3B82F6"/>
<path id="Vector_38" d="M8.6431 26.5756C8.62607 26.5756 8.60904 26.5682 8.59946 26.5533C8.58244 26.5288 8.58882 26.4958 8.61223 26.4788C8.70163 26.416 8.78144 26.3383 8.84636 26.25C8.86232 26.2255 8.89638 26.2191 8.91979 26.2361C8.94426 26.2521 8.95065 26.2861 8.93362 26.3096C8.93256 26.3117 8.93149 26.3127 8.92937 26.3149C8.857 26.4117 8.76974 26.4969 8.67077 26.5671C8.66225 26.5735 8.65161 26.5756 8.64097 26.5756H8.6431Z" fill="#3B82F6"/>
<path id="Vector_39" d="M9.07849 26.0282C9.06998 26.0282 9.06253 26.0271 9.05508 26.0228C9.02848 26.0101 9.01783 25.9781 9.0306 25.9515C9.2062 25.595 9.29878 25.2034 9.30197 24.8054C9.30197 24.3872 9.18598 24.07 8.99123 23.954C8.8731 23.8923 8.73156 23.9019 8.62195 23.9774C8.59535 23.9892 8.56342 23.9774 8.55171 23.9508C8.54107 23.9274 8.54852 23.9008 8.56874 23.8859C8.71028 23.7891 8.89439 23.7806 9.04444 23.8625C9.27218 23.9934 9.40839 24.3457 9.40839 24.8022C9.40414 25.2172 9.3073 25.627 9.12319 25.9994C9.11468 26.0164 9.09765 26.0271 9.07849 26.0282Z" fill="#3B82F6"/>
<path id="Vector_40" d="M12.6526 23.5993C12.6005 23.5993 12.5483 23.5855 12.5036 23.5589C12.3419 23.4652 12.2461 23.2205 12.2461 22.9012C12.2461 22.3829 12.4855 21.837 12.792 21.6603C12.8942 21.5933 13.0262 21.5869 13.1336 21.6454C13.2943 21.738 13.3912 21.9839 13.3912 22.3021C13.3912 22.8214 13.1507 23.3663 12.8452 23.5429C12.7867 23.578 12.7207 23.5983 12.6526 23.5993ZM12.9836 21.7104C12.9346 21.7125 12.8867 21.7274 12.8452 21.7529C12.5728 21.9094 12.3525 22.4255 12.3525 22.9012C12.3525 23.1779 12.4302 23.3939 12.5568 23.4663C12.6313 23.5067 12.7229 23.5003 12.792 23.4503C13.0634 23.2939 13.2848 22.7788 13.2848 22.3021C13.2848 22.0264 13.206 21.8104 13.0804 21.737C13.0506 21.7199 13.0176 21.7104 12.9836 21.7104Z" fill="#3B82F6"/>
<path id="Vector_41" d="M12.1242 22.361C12.1242 22.361 12.1146 22.361 12.1093 22.361C12.0816 22.3535 12.0646 22.3258 12.0721 22.2971C12.0721 22.2971 12.0721 22.2971 12.0721 22.296C12.12 22.1204 12.187 21.9502 12.27 21.7884C12.2838 21.7618 12.3158 21.7522 12.3424 21.7661C12.369 21.7799 12.3786 21.8118 12.3647 21.8384C12.2849 21.9938 12.2211 22.1566 12.1753 22.3258C12.1678 22.3482 12.1476 22.362 12.1242 22.362V22.361Z" fill="#3B82F6"/>
<path id="Vector_42" d="M12.022 23.0649C11.9922 23.0649 11.9688 23.0415 11.9688 23.0117C11.9688 22.8904 11.9783 22.769 11.9954 22.6488C12.0007 22.62 12.0273 22.5998 12.056 22.6041C12.0847 22.6083 12.105 22.636 12.1007 22.6647C12.0837 22.7797 12.0752 22.8957 12.0752 23.0117C12.0752 23.0415 12.0518 23.0649 12.022 23.0649Z" fill="#3B82F6"/>
<path id="Vector_43" d="M12.5358 24.0336H12.5294C12.2793 24.0038 12.0654 23.7601 11.9973 23.427C11.9909 23.3983 12.0101 23.3706 12.0388 23.3642C12.0676 23.3589 12.0952 23.377 12.1016 23.4057C12.1697 23.7388 12.3719 23.908 12.5422 23.9282C12.572 23.9304 12.5943 23.9548 12.5922 23.9846C12.5901 24.0144 12.5656 24.0368 12.5358 24.0347V24.0336Z" fill="#3B82F6"/>
<path id="Vector_44" d="M12.8647 23.9338C12.8349 23.9338 12.8115 23.9094 12.8125 23.8796C12.8125 23.8625 12.821 23.8466 12.8349 23.837C12.9243 23.7731 13.003 23.6955 13.069 23.6082C13.0882 23.5858 13.1222 23.5837 13.1446 23.6029C13.1648 23.621 13.169 23.6508 13.1531 23.6731C13.0807 23.77 12.9934 23.854 12.8945 23.9243C12.886 23.9306 12.8753 23.9338 12.8647 23.9338Z" fill="#3B82F6"/>
<path id="Vector_45" d="M13.3022 23.3868C13.2947 23.3889 13.2862 23.3889 13.2788 23.3868C13.2532 23.374 13.2415 23.3421 13.2543 23.3155C13.4299 22.959 13.5225 22.5674 13.5257 22.1694C13.5257 21.7501 13.4086 21.434 13.2149 21.318C13.0968 21.2563 12.9553 21.2659 12.8456 21.3414C12.8201 21.3553 12.7871 21.3468 12.7722 21.3212C12.7584 21.2957 12.7669 21.2637 12.7924 21.2488C12.934 21.1531 13.1181 21.1435 13.2681 21.2254C13.4959 21.3574 13.6321 21.7086 13.6321 22.1662C13.6289 22.5802 13.5321 22.9877 13.3501 23.3592C13.3405 23.3762 13.3224 23.3868 13.3022 23.3868Z" fill="#3B82F6"/>
<path id="Vector_46" d="M11.9623 14.8023C11.9101 14.8023 11.858 14.7896 11.8122 14.763C11.6515 14.6693 11.5547 14.4235 11.5547 14.1053C11.5547 13.586 11.7952 13.0411 12.1006 12.8644C12.2028 12.7963 12.3347 12.7899 12.4433 12.8485C12.604 12.9421 12.6998 13.188 12.6998 13.5061C12.6998 14.0255 12.4603 14.5703 12.1538 14.747C12.0964 14.7821 12.0304 14.8013 11.9623 14.8023ZM12.2922 12.9145C12.2432 12.9155 12.1953 12.9304 12.1538 12.957C11.8825 13.1135 11.6611 13.6285 11.6611 14.1053C11.6611 14.3809 11.7399 14.598 11.8654 14.6704C11.941 14.7098 12.0314 14.7044 12.1006 14.6544C12.372 14.498 12.5933 13.9829 12.5933 13.5061C12.5933 13.2305 12.5157 13.0134 12.3901 12.9411C12.3603 12.924 12.3262 12.9145 12.2922 12.9145Z" fill="#3B82F6"/>
<path id="Vector_47" d="M11.4317 13.5641H11.4179C11.3902 13.5566 11.3732 13.529 11.3807 13.5002C11.3807 13.5002 11.3807 13.5002 11.3807 13.4992C11.4285 13.3236 11.4945 13.1533 11.5775 12.9915C11.5914 12.9649 11.6233 12.9554 11.6499 12.9692C11.6765 12.983 11.6861 13.015 11.6722 13.0416C11.5924 13.1969 11.5296 13.3598 11.4828 13.5279C11.4764 13.5502 11.4552 13.5651 11.4317 13.5651V13.5641Z" fill="#3B82F6"/>
<path id="Vector_48" d="M11.3306 14.2691C11.3008 14.2691 11.2773 14.2457 11.2773 14.2159C11.2773 14.0945 11.2859 13.9732 11.3039 13.853C11.3082 13.8232 11.3348 13.8029 11.3646 13.8072C11.3944 13.8115 11.4146 13.8381 11.4104 13.8679C11.3933 13.9828 11.3848 14.0999 11.3848 14.2159C11.3848 14.2457 11.3614 14.2691 11.3316 14.2691C11.3316 14.2691 11.3316 14.2691 11.3306 14.2691Z" fill="#3B82F6"/>
<path id="Vector_49" d="M11.8444 15.2371H11.838C11.5879 15.2073 11.374 14.9636 11.3059 14.6305C11.2995 14.6017 11.3187 14.5741 11.3474 14.5677C11.3751 14.5613 11.4038 14.5794 11.4102 14.6071C11.4102 14.6071 11.4102 14.6081 11.4102 14.6092C11.4794 14.9423 11.6816 15.1115 11.8508 15.1307C11.8795 15.1349 11.9008 15.1604 11.8976 15.1902C11.8944 15.2169 11.871 15.2371 11.8444 15.2371Z" fill="#3B82F6"/>
<path id="Vector_50" d="M12.1738 15.1405C12.1568 15.1405 12.1398 15.1319 12.1302 15.117C12.1142 15.0926 12.1195 15.0596 12.144 15.0426C12.2345 14.9798 12.3132 14.9021 12.3781 14.8138C12.3962 14.7903 12.4303 14.7861 12.4537 14.8042C12.4771 14.8223 12.4814 14.8563 12.4622 14.8797C12.3899 14.9766 12.3037 15.0617 12.2047 15.1309C12.1951 15.1373 12.1845 15.1405 12.1738 15.1405Z" fill="#3B82F6"/>
<path id="Vector_51" d="M12.6108 14.5908C12.6023 14.5908 12.5948 14.5887 12.5874 14.5844C12.5619 14.5717 12.5501 14.5408 12.5629 14.5153C12.5629 14.5153 12.5629 14.5142 12.5629 14.5131C12.7374 14.1556 12.83 13.7639 12.8332 13.367C12.8332 12.9488 12.7172 12.6316 12.5225 12.5156C12.4044 12.4539 12.2628 12.4624 12.1532 12.538C12.1266 12.5497 12.0947 12.538 12.083 12.5114C12.0723 12.488 12.0798 12.4614 12.1 12.4465C12.2415 12.3496 12.4256 12.3411 12.5757 12.4231C12.8034 12.555 12.9396 12.9062 12.9396 13.3627C12.9365 13.7767 12.8407 14.1854 12.6576 14.5568C12.6502 14.577 12.631 14.5908 12.6097 14.5908H12.6108Z" fill="#3B82F6"/>
<g id="Group_2" opacity="0.8">
<path id="Vector_52" d="M14.7457 32.6797C14.6563 32.6797 14.568 32.6562 14.4903 32.6105C14.2083 32.4477 14.0391 32.0103 14.0391 31.4399C14.0391 30.5183 14.4786 29.5147 15.0192 29.2051C15.1937 29.0859 15.4204 29.0752 15.6056 29.1763C15.8886 29.3402 16.0578 29.7765 16.0578 30.3469C16.0578 31.2685 15.6183 32.2731 15.0777 32.5818C14.9777 32.6435 14.8628 32.6775 14.7457 32.6797ZM15.0777 29.3051C14.569 29.5977 14.1561 30.5566 14.1561 31.4409C14.1561 31.9677 14.303 32.3668 14.5488 32.5051C14.6989 32.5839 14.8798 32.5722 15.0192 32.4764C15.5268 32.1827 15.9408 31.2238 15.9408 30.3395C15.9408 29.8074 15.7939 29.4136 15.547 29.2753C15.397 29.1965 15.2161 29.2082 15.0777 29.3051Z" fill="white"/>
<path id="Vector_53" d="M13.7733 30.4134H13.7574C13.7265 30.4038 13.7084 30.3719 13.7169 30.341C13.8042 30.0218 13.9245 29.7131 14.0756 29.4194C14.0905 29.3896 14.1267 29.3779 14.1565 29.3939C14.1863 29.4098 14.198 29.445 14.182 29.4748C14.0341 29.761 13.9181 30.0622 13.8329 30.3729C13.8255 30.3985 13.8 30.4166 13.7733 30.4144V30.4134Z" fill="white"/>
<path id="Vector_54" d="M13.5937 31.7034C13.5618 31.7034 13.5352 31.6767 13.5352 31.6448C13.5352 31.4245 13.5511 31.2042 13.583 30.9861C13.5873 30.9542 13.6171 30.9318 13.649 30.9361C13.681 30.9403 13.7033 30.9701 13.699 31.002C13.6682 31.2138 13.6533 31.4267 13.6522 31.6406C13.6543 31.6725 13.6299 31.7012 13.5979 31.7034C13.5969 31.7034 13.5948 31.7034 13.5937 31.7034Z" fill="white"/>
<path id="Vector_55" d="M14.5295 33.4751H14.5231C14.0815 33.424 13.7037 32.9899 13.5813 32.396C13.5707 32.3652 13.5877 32.3322 13.6185 32.3215C13.6494 32.3109 13.6824 32.3279 13.693 32.3588C13.6941 32.363 13.6952 32.3673 13.6962 32.3726C13.8261 33.0016 14.2124 33.3208 14.537 33.3591C14.5689 33.3613 14.5944 33.3889 14.5923 33.4209C14.5902 33.4528 14.5625 33.4783 14.5306 33.4762L14.5295 33.4751Z" fill="white"/>
<path id="Vector_56" d="M15.1317 33.2995C15.0998 33.2995 15.0732 33.2729 15.0742 33.2399C15.0742 33.2207 15.0838 33.2037 15.0987 33.193C15.2658 33.0749 15.4137 32.9312 15.5361 32.7674C15.5563 32.7418 15.5925 32.7365 15.6191 32.7557C15.6447 32.7759 15.65 32.8121 15.6298 32.8387C15.4989 33.0121 15.3424 33.1654 15.1647 33.2909C15.1551 33.2973 15.1434 33.3005 15.1317 33.2995Z" fill="white"/>
<path id="Vector_57" d="M15.9353 32.2901C15.9258 32.2901 15.9173 32.288 15.9087 32.2837C15.88 32.2688 15.8683 32.2337 15.8832 32.205C16.2056 31.5463 16.377 30.8226 16.3823 30.0894C16.3823 29.3093 16.1631 28.7165 15.7938 28.5037C15.581 28.3824 15.3373 28.3973 15.0797 28.5463C15.0521 28.5622 15.0159 28.5527 14.9999 28.5239C14.984 28.4963 14.9935 28.4611 15.0212 28.4441C15.317 28.2738 15.6044 28.2589 15.8523 28.4026C16.2578 28.6367 16.4994 29.2667 16.4994 30.0894C16.494 30.8418 16.3185 31.5824 15.9875 32.2571C15.9779 32.2774 15.9577 32.2901 15.9353 32.2901Z" fill="white"/>
<path id="Vector_58" d="M8.42996 26.2398C8.37782 26.2398 8.32567 26.226 8.28097 26.1994C8.11922 26.1068 8.02344 25.861 8.02344 25.5428C8.02344 25.0235 8.26288 24.4786 8.56937 24.3019C8.67153 24.2338 8.80349 24.2274 8.91098 24.286C9.07274 24.3796 9.16851 24.6244 9.16851 24.9436C9.16851 25.4619 8.92907 26.0078 8.62258 26.1845C8.56405 26.2196 8.49807 26.2388 8.42996 26.2398ZM8.76093 24.352C8.71197 24.353 8.66408 24.3679 8.62258 24.3945C8.35121 24.551 8.12986 25.066 8.12986 25.5428C8.12986 25.8184 8.20754 26.0344 8.33418 26.1079C8.40974 26.1473 8.5002 26.1409 8.56937 26.0919C8.84074 25.9355 9.06209 25.4193 9.06209 24.9436C9.06209 24.667 8.98334 24.4509 8.85777 24.3786C8.82903 24.3605 8.79498 24.352 8.76093 24.352Z" fill="white"/>
<path id="Vector_59" d="M7.89772 24.9996H7.88282C7.85409 24.9911 7.83812 24.9624 7.84557 24.9336C7.89346 24.7581 7.96051 24.5888 8.04351 24.4271C8.05735 24.4005 8.08927 24.3909 8.11588 24.4047C8.14248 24.4186 8.15206 24.4505 8.13823 24.4771C8.05735 24.6325 7.99456 24.7953 7.9488 24.9634C7.94135 24.9858 7.92113 25.0007 7.89772 25.0007V24.9996Z" fill="white"/>
<path id="Vector_60" d="M7.7993 25.7075C7.76951 25.7075 7.74609 25.684 7.74609 25.6542C7.74609 25.5329 7.75567 25.4116 7.7727 25.2914C7.77696 25.2626 7.80462 25.2424 7.83336 25.2467C7.86209 25.2509 7.88231 25.2765 7.87805 25.3052C7.86103 25.4201 7.85251 25.5372 7.85251 25.6532C7.85251 25.683 7.8291 25.7064 7.7993 25.7064V25.7075Z" fill="white"/>
<path id="Vector_61" d="M8.31315 26.6766H8.30676C8.05774 26.6468 7.84277 26.4031 7.77467 26.0701C7.76828 26.0403 7.78744 26.0115 7.81723 26.0051C7.84703 25.9987 7.87576 26.0179 7.88109 26.0477C7.94919 26.3819 8.15139 26.5511 8.32166 26.5702C8.35146 26.5724 8.37381 26.5968 8.37168 26.6266C8.36955 26.6564 8.34508 26.6788 8.31528 26.6766H8.31315Z" fill="white"/>
<path id="Vector_62" d="M8.6431 26.5776C8.62607 26.5776 8.60904 26.5701 8.59946 26.5552C8.58244 26.5307 8.58882 26.4977 8.61223 26.4807C8.70163 26.4179 8.78144 26.3402 8.84636 26.2519C8.86232 26.2274 8.89638 26.221 8.91979 26.2381C8.94426 26.254 8.95065 26.2881 8.93362 26.3115C8.93256 26.3136 8.93149 26.3147 8.92937 26.3168C8.857 26.4137 8.76974 26.4988 8.67077 26.569C8.66225 26.5754 8.65161 26.5776 8.64097 26.5776H8.6431Z" fill="white"/>
<path id="Vector_63" d="M9.07849 26.0282C9.06998 26.0282 9.06253 26.0271 9.05508 26.0228C9.02848 26.0101 9.01783 25.9781 9.0306 25.9515C9.2062 25.595 9.29878 25.2034 9.30197 24.8054C9.30197 24.3872 9.18598 24.07 8.99123 23.954C8.8731 23.8923 8.73156 23.9019 8.62195 23.9774C8.59535 23.9892 8.56342 23.9774 8.55171 23.9508C8.54107 23.9274 8.54852 23.9008 8.56874 23.8859C8.71028 23.7891 8.89439 23.7806 9.04444 23.8625C9.27218 23.9934 9.40839 24.3457 9.40839 24.8022C9.40414 25.2172 9.3073 25.627 9.12319 25.9994C9.11468 26.0164 9.09765 26.0271 9.07849 26.0282Z" fill="white"/>
<path id="Vector_64" d="M12.6526 23.5993C12.6005 23.5993 12.5483 23.5855 12.5036 23.5589C12.3419 23.4652 12.2461 23.2205 12.2461 22.9012C12.2461 22.3829 12.4855 21.837 12.792 21.6603C12.8942 21.5933 13.0262 21.5869 13.1336 21.6454C13.2943 21.738 13.3912 21.9839 13.3912 22.3021C13.3912 22.8214 13.1507 23.3663 12.8452 23.5429C12.7867 23.578 12.7207 23.5983 12.6526 23.5993ZM12.9836 21.7104C12.9346 21.7125 12.8867 21.7274 12.8452 21.7529C12.5728 21.9094 12.3525 22.4255 12.3525 22.9012C12.3525 23.1779 12.4302 23.3939 12.5568 23.4663C12.6313 23.5067 12.7229 23.5003 12.792 23.4503C13.0634 23.2939 13.2848 22.7788 13.2848 22.3021C13.2848 22.0264 13.206 21.8104 13.0804 21.737C13.0506 21.7199 13.0176 21.7104 12.9836 21.7104Z" fill="white"/>
<path id="Vector_65" d="M12.1242 22.361C12.1242 22.361 12.1146 22.361 12.1093 22.361C12.0816 22.3535 12.0646 22.3258 12.0721 22.2971C12.0721 22.2971 12.0721 22.2971 12.0721 22.296C12.12 22.1204 12.187 21.9502 12.27 21.7884C12.2838 21.7618 12.3158 21.7522 12.3424 21.7661C12.369 21.7799 12.3786 21.8118 12.3647 21.8384C12.2849 21.9938 12.2211 22.1566 12.1753 22.3258C12.1678 22.3482 12.1476 22.362 12.1242 22.362V22.361Z" fill="white"/>
<path id="Vector_66" d="M12.022 23.0649C11.9922 23.0649 11.9688 23.0415 11.9688 23.0117C11.9688 22.8904 11.9783 22.769 11.9954 22.6488C12.0007 22.62 12.0273 22.5998 12.056 22.6041C12.0847 22.6083 12.105 22.636 12.1007 22.6647C12.0837 22.7797 12.0752 22.8957 12.0752 23.0117C12.0752 23.0415 12.0518 23.0649 12.022 23.0649Z" fill="white"/>
<path id="Vector_67" d="M12.5358 24.0336H12.5294C12.2793 24.0038 12.0654 23.7601 11.9973 23.427C11.9909 23.3983 12.0101 23.3706 12.0388 23.3642C12.0676 23.3589 12.0952 23.377 12.1016 23.4057C12.1697 23.7388 12.3719 23.908 12.5422 23.9282C12.572 23.9304 12.5943 23.9548 12.5922 23.9846C12.5901 24.0144 12.5656 24.0368 12.5358 24.0347V24.0336Z" fill="white"/>
<path id="Vector_68" d="M12.8647 23.9338C12.8349 23.9338 12.8115 23.9094 12.8125 23.8796C12.8125 23.8625 12.821 23.8466 12.8349 23.837C12.9243 23.7731 13.003 23.6955 13.069 23.6082C13.0882 23.5858 13.1222 23.5837 13.1446 23.6029C13.1648 23.621 13.169 23.6508 13.1531 23.6731C13.0807 23.77 12.9934 23.854 12.8945 23.9243C12.886 23.9306 12.8753 23.9338 12.8647 23.9338Z" fill="white"/>
<path id="Vector_69" d="M13.3022 23.3868C13.2947 23.3889 13.2862 23.3889 13.2788 23.3868C13.2532 23.374 13.2415 23.3421 13.2543 23.3155C13.4299 22.959 13.5225 22.5674 13.5257 22.1694C13.5257 21.7501 13.4086 21.434 13.2149 21.318C13.0968 21.2563 12.9553 21.2659 12.8456 21.3414C12.8201 21.3553 12.7871 21.3468 12.7722 21.3212C12.7584 21.2957 12.7669 21.2637 12.7924 21.2488C12.934 21.1531 13.1181 21.1435 13.2681 21.2254C13.4959 21.3574 13.6321 21.7086 13.6321 22.1662C13.6289 22.5802 13.5321 22.9877 13.3501 23.3592C13.3405 23.3762 13.3224 23.3868 13.3022 23.3868Z" fill="white"/>
<path id="Vector_70" d="M11.9623 14.8023C11.9101 14.8023 11.858 14.7896 11.8122 14.763C11.6515 14.6693 11.5547 14.4235 11.5547 14.1053C11.5547 13.586 11.7952 13.0411 12.1006 12.8644C12.2028 12.7963 12.3347 12.7899 12.4433 12.8485C12.604 12.9421 12.6998 13.188 12.6998 13.5061C12.6998 14.0255 12.4603 14.5703 12.1538 14.747C12.0964 14.7821 12.0304 14.8013 11.9623 14.8023ZM12.2922 12.9145C12.2432 12.9155 12.1953 12.9304 12.1538 12.957C11.8825 13.1135 11.6611 13.6285 11.6611 14.1053C11.6611 14.3809 11.7399 14.598 11.8654 14.6704C11.941 14.7098 12.0314 14.7044 12.1006 14.6544C12.372 14.498 12.5933 13.9829 12.5933 13.5061C12.5933 13.2305 12.5157 13.0134 12.3901 12.9411C12.3603 12.924 12.3262 12.9145 12.2922 12.9145Z" fill="white"/>
<path id="Vector_71" d="M11.4317 13.5641H11.4179C11.3902 13.5566 11.3732 13.529 11.3807 13.5002C11.3807 13.5002 11.3807 13.5002 11.3807 13.4992C11.4285 13.3236 11.4945 13.1533 11.5775 12.9915C11.5914 12.9649 11.6233 12.9554 11.6499 12.9692C11.6765 12.983 11.6861 13.015 11.6722 13.0416C11.5924 13.1969 11.5296 13.3598 11.4828 13.5279C11.4764 13.5502 11.4552 13.5651 11.4317 13.5651V13.5641Z" fill="white"/>
<path id="Vector_72" d="M11.3306 14.2691C11.3008 14.2691 11.2773 14.2457 11.2773 14.2159C11.2773 14.0945 11.2859 13.9732 11.3039 13.853C11.3082 13.8232 11.3348 13.8029 11.3646 13.8072C11.3944 13.8115 11.4146 13.8381 11.4104 13.8679C11.3933 13.9828 11.3848 14.0999 11.3848 14.2159C11.3848 14.2457 11.3614 14.2691 11.3316 14.2691C11.3316 14.2691 11.3316 14.2691 11.3306 14.2691Z" fill="white"/>
<path id="Vector_73" d="M11.8444 15.2371H11.838C11.5879 15.2073 11.374 14.9636 11.3059 14.6305C11.2995 14.6017 11.3187 14.5741 11.3474 14.5677C11.3751 14.5613 11.4038 14.5794 11.4102 14.6071C11.4102 14.6071 11.4102 14.6081 11.4102 14.6092C11.4794 14.9423 11.6816 15.1115 11.8508 15.1307C11.8795 15.1349 11.9008 15.1604 11.8976 15.1902C11.8944 15.2169 11.871 15.2371 11.8444 15.2371Z" fill="white"/>
<path id="Vector_74" d="M12.1738 15.1405C12.1568 15.1405 12.1398 15.1319 12.1302 15.117C12.1142 15.0926 12.1195 15.0596 12.144 15.0426C12.2345 14.9798 12.3132 14.9021 12.3781 14.8138C12.3962 14.7903 12.4303 14.7861 12.4537 14.8042C12.4771 14.8223 12.4814 14.8563 12.4622 14.8797C12.3899 14.9766 12.3037 15.0617 12.2047 15.1309C12.1951 15.1373 12.1845 15.1405 12.1738 15.1405Z" fill="white"/>
<path id="Vector_75" d="M12.6108 14.5908C12.6023 14.5908 12.5948 14.5887 12.5874 14.5844C12.5619 14.5717 12.5501 14.5408 12.5629 14.5153C12.5629 14.5153 12.5629 14.5142 12.5629 14.5131C12.7374 14.1556 12.83 13.7639 12.8332 13.367C12.8332 12.9488 12.7172 12.6316 12.5225 12.5156C12.4044 12.4539 12.2628 12.4624 12.1532 12.538C12.1266 12.5497 12.0947 12.538 12.083 12.5114C12.0723 12.488 12.0798 12.4614 12.1 12.4465C12.2415 12.3496 12.4256 12.3411 12.5757 12.4231C12.8034 12.555 12.9396 12.9062 12.9396 13.3627C12.9365 13.7767 12.8407 14.1854 12.6576 14.5568C12.6502 14.577 12.631 14.5908 12.6097 14.5908H12.6108Z" fill="white"/>
</g>
<path id="Vector_76" d="M14.0927 23.0451C13.566 23.0451 13.135 23.0142 12.8838 22.9301C12.7891 22.9014 12.7157 22.828 12.6848 22.7343C12.6497 22.5971 12.7167 22.4332 12.8902 22.4864C13.3159 22.6779 17.0129 22.9525 19.269 20.7837C20.0501 20.0323 20.6376 19.1725 21.2058 18.3424C22.4988 16.4524 23.7184 14.6688 26.8599 14.8305L26.8386 15.2562C23.9355 15.1104 22.8341 16.7216 21.5581 18.5882C20.977 19.4396 20.3768 20.3133 19.5649 21.0955C17.9473 22.6428 15.6018 23.0451 14.0927 23.0451Z" fill="#3B82F6"/>
<path id="Vector_77" opacity="0.4" d="M14.0927 23.0451C13.566 23.0451 13.135 23.0142 12.8838 22.9301C12.7891 22.9014 12.7157 22.828 12.6848 22.7343C12.6497 22.5971 12.7167 22.4332 12.8902 22.4864C13.3159 22.6779 17.0129 22.9525 19.269 20.7837C20.0501 20.0323 20.6376 19.1725 21.2058 18.3424C22.4988 16.4524 23.7184 14.6688 26.8599 14.8305L26.8386 15.2562C23.9355 15.1104 22.8341 16.7216 21.5581 18.5882C20.977 19.4396 20.3768 20.3133 19.5649 21.0955C17.9473 22.6428 15.6018 23.0451 14.0927 23.0451Z" fill="black"/>
<path id="Vector_78" opacity="0.15" d="M16.6016 22.7015C16.8208 22.6409 17.0411 22.5696 17.2603 22.4887C17.4146 22.2354 17.5402 22.0109 17.6051 21.8906C17.3923 21.9875 17.173 22.0726 16.9559 22.1471L16.6016 22.7015Z" fill="black"/>
<path id="Vector_79" d="M12.1902 14.0245C11.8773 14.0043 11.9252 13.5988 12.0444 13.5988H12.1966C14.4495 13.5988 16.1511 12.1483 18.0369 8.63963C19.7173 5.51302 21.2678 4.24343 23.5707 4.1136C23.6878 4.10721 23.7889 4.19767 23.7953 4.31473C23.8016 4.43179 23.7112 4.53289 23.5941 4.53928C21.4657 4.6606 20.012 5.86633 18.4125 8.84183C16.9631 11.5374 15.2051 14.0245 12.1902 14.0245Z" fill="#3B82F6"/>
<path id="Vector_80" opacity="0.35" d="M12.1902 14.0245C11.8773 14.0043 11.9252 13.5988 12.0444 13.5988H12.1966C14.4495 13.5988 16.1511 12.1483 18.0369 8.63963C19.7173 5.51302 21.2678 4.24343 23.5707 4.1136C23.6878 4.10721 23.7889 4.19767 23.7953 4.31473C23.8016 4.43179 23.7112 4.53289 23.5941 4.53928C21.4657 4.6606 20.012 5.86633 18.4125 8.84183C16.9631 11.5374 15.2051 14.0245 12.1902 14.0245Z" fill="black"/>
<path id="Vector_81" d="M10.6713 25.7436C10.0126 25.7436 9.35706 25.6617 8.71748 25.502C8.61425 25.4807 8.5355 25.3945 8.52379 25.2892C8.50251 25.1008 8.56211 25.0231 8.67598 25.0529C11.8388 25.8915 14.9164 24.7103 16.9107 21.8923C17.6291 20.877 18.2144 19.8501 18.7305 18.9434C19.3211 17.9069 19.8788 16.9278 20.5184 16.168C21.5762 14.9101 23.2385 14.0896 24.4697 14.2183C24.5868 14.2311 24.6709 14.3343 24.6592 14.4514C24.6475 14.5685 24.5432 14.6536 24.4261 14.6419C24.4261 14.6419 24.4261 14.6419 24.425 14.6419C23.3438 14.5291 21.8018 15.3028 20.844 16.4415C20.2289 17.1726 19.7064 18.091 19.1009 19.1541C18.5794 20.0693 17.9888 21.1058 17.2587 22.1338C15.6028 24.4783 13.235 25.7436 10.6713 25.7436Z" fill="#3B82F6"/>
<path id="Vector_82" opacity="0.35" d="M10.6713 25.7436C10.0126 25.7436 9.35706 25.6617 8.71748 25.502C8.61425 25.4807 8.5355 25.3945 8.52379 25.2892C8.50251 25.1008 8.56211 25.0231 8.67598 25.0529C11.8388 25.8915 14.9164 24.7103 16.9107 21.8923C17.6291 20.877 18.2144 19.8501 18.7305 18.9434C19.3211 17.9069 19.8788 16.9278 20.5184 16.168C21.5762 14.9101 23.2385 14.0896 24.4697 14.2183C24.5868 14.2311 24.6709 14.3343 24.6592 14.4514C24.6475 14.5685 24.5432 14.6536 24.4261 14.6419C24.4261 14.6419 24.4261 14.6419 24.425 14.6419C23.3438 14.5291 21.8018 15.3028 20.844 16.4415C20.2289 17.1726 19.7064 18.091 19.1009 19.1541C18.5794 20.0693 17.9888 21.1058 17.2587 22.1338C15.6028 24.4783 13.235 25.7436 10.6713 25.7436Z" fill="black"/>
<path id="Vector_83" d="M24.2349 4.47099C24.2349 4.87219 23.9093 5.19783 23.5081 5.19783C23.1069 5.19783 22.7812 4.87219 22.7812 4.47099C22.7812 4.06978 23.1069 3.74414 23.5081 3.74414C23.9093 3.74414 24.2349 4.06978 24.2349 4.47099Z" fill="#3B82F6"/>
<path id="Vector_84" d="M24.8638 14.264C24.8638 14.6652 24.5382 14.9908 24.137 14.9908C23.7358 14.9908 23.4102 14.6652 23.4102 14.264C23.4102 13.8628 23.7358 13.5371 24.137 13.5371C24.5382 13.5371 24.8638 13.8628 24.8638 14.264Z" fill="#3B82F6"/>
</g>
<g id="freepik--android--inject-39">
<path id="Vector_85" d="M36.2334 17.0684C36.36 17.1897 36.6026 17.3217 37.1028 17.4196C37.603 17.5175 38.4426 17.5835 38.93 17.427C39.4174 17.2706 39.6026 17.0269 39.7037 16.7108C39.8048 16.3948 39.7835 16.2383 39.9059 16.0117C40.0858 15.6924 40.0038 15.5221 39.6622 15.6296C39.3206 15.7371 38.8492 15.8935 38.532 15.9138C38.3298 15.9255 38.1255 15.9084 37.9276 15.8659C37.8478 15.7892 38.365 15.6881 38.5384 15.4253C38.7119 15.1624 38.5916 15.0241 38.5033 15.0337C38.415 15.0432 38.2117 15.1784 37.8946 15.2614C37.5775 15.3444 37.0571 15.4742 36.7676 15.5732C36.4781 15.6722 36.2951 15.7861 36.1567 16.3277C36.0184 16.8694 36.0886 16.9279 36.2334 17.0684Z" fill="#3B82F6"/>
<path id="Vector_86" opacity="0.8" d="M36.2334 17.0684C36.36 17.1897 36.6026 17.3217 37.1028 17.4196C37.603 17.5175 38.4426 17.5835 38.93 17.427C39.4174 17.2706 39.6026 17.0269 39.7037 16.7108C39.8048 16.3948 39.7835 16.2383 39.9059 16.0117C40.0858 15.6924 40.0038 15.5221 39.6622 15.6296C39.3206 15.7371 38.8492 15.8935 38.532 15.9138C38.3298 15.9255 38.1255 15.9084 37.9276 15.8659C37.8478 15.7892 38.365 15.6881 38.5384 15.4253C38.7119 15.1624 38.5916 15.0241 38.5033 15.0337C38.415 15.0432 38.2117 15.1784 37.8946 15.2614C37.5775 15.3444 37.0571 15.4742 36.7676 15.5732C36.4781 15.6722 36.2951 15.7861 36.1567 16.3277C36.0184 16.8694 36.0886 16.9279 36.2334 17.0684Z" fill="white"/>
<path id="Vector_87" opacity="0.1" d="M39.7027 16.7098C39.8091 16.3906 39.7825 16.2373 39.9049 16.0107C39.9709 15.9181 40.0017 15.8053 39.9921 15.6914C39.9549 15.9042 39.7655 15.9255 39.5196 16.2937C39.2525 16.6928 39.2089 16.912 38.7183 17.0046C38.3841 17.0663 37.8191 17.0163 37.0582 16.779L36.1536 16.3374C36.0195 16.8695 36.0897 16.928 36.2334 17.0674C36.36 17.1887 36.6027 17.3207 37.1029 17.4186C37.603 17.5165 38.4427 17.5825 38.9301 17.426C39.4175 17.2696 39.6016 17.0259 39.7027 16.7098Z" fill="black"/>
<path id="Vector_88" d="M35.2656 16.9011C35.2656 16.9011 36.4309 17.1246 36.8885 17.0969C37.3738 17.0682 37.6335 16.7 37.3844 16.4095C37.1354 16.1189 36.5959 15.9189 36.5959 15.9189L35.57 15.5996L35.2656 16.9011Z" fill="#37474F"/>
<path id="Vector_89" d="M30.9803 15.4446C30.761 15.8851 31.0973 16.2885 31.8252 16.4353C32.5531 16.5822 35.6372 17.0026 35.6372 17.0026C35.7532 17.0217 35.8958 16.8748 35.9937 16.4055C36.0842 15.9745 35.9937 15.668 35.85 15.6393C35.85 15.6393 33.2044 14.8103 32.8905 14.6815C32.2413 14.4325 31.2804 14.8422 30.9803 15.4446Z" fill="#3B82F6"/>
<path id="Vector_90" opacity="0.8" d="M30.9803 15.4446C30.761 15.8851 31.0973 16.2885 31.8252 16.4353C32.5531 16.5822 35.6372 17.0026 35.6372 17.0026C35.7532 17.0217 35.8958 16.8748 35.9937 16.4055C36.0842 15.9745 35.9937 15.668 35.85 15.6393C35.85 15.6393 33.2044 14.8103 32.8905 14.6815C32.2413 14.4325 31.2804 14.8422 30.9803 15.4446Z" fill="white"/>
<path id="Vector_91" opacity="0.1" d="M35.9203 16.6785C35.0412 16.5604 33.4833 16.3273 32.7511 16.0793C31.6997 15.7239 31.6869 15.4695 31.7742 15.1216L31.8561 14.7246C31.4762 14.8672 31.1367 15.129 30.9803 15.444C30.761 15.8846 31.0973 16.2879 31.8252 16.4348C32.5531 16.5816 35.6372 17.002 35.6372 17.002C35.7276 17.0158 35.8341 16.9318 35.9203 16.6785Z" fill="black"/>
<path id="Vector_92" d="M30.8125 15.0651L31.1754 15.6206C31.1754 15.6206 31.4946 15.8452 31.9682 15.5142C32.4248 15.195 32.4205 14.8565 32.4205 14.8565L32.0789 14.0371L30.8125 15.0651Z" fill="#37474F"/>
<path id="Vector_93" d="M28.7951 9.42422C29.5347 9.15498 29.9434 9.42422 30.3265 10.0553C30.6298 10.5576 32.208 14.1929 32.208 14.1929C32.3304 14.6356 31.2183 15.571 30.7373 15.1709C30.7373 15.1709 28.6227 12.5104 28.2524 11.7197C27.7905 10.7257 28.1662 9.65196 28.7951 9.42422Z" fill="#3B82F6"/>
<path id="Vector_94" opacity="0.8" d="M28.7951 9.42422C29.5347 9.15498 29.9434 9.42422 30.3265 10.0553C30.6298 10.5576 32.208 14.1929 32.208 14.1929C32.3304 14.6356 31.2183 15.571 30.7373 15.1709C30.7373 15.1709 28.6227 12.5104 28.2524 11.7197C27.7905 10.7257 28.1662 9.65196 28.7951 9.42422Z" fill="white"/>
<path id="Vector_95" opacity="0.1" d="M31.5305 15.1083C31.2464 15.2722 30.9378 15.3371 30.7377 15.1711C30.7377 15.1711 28.6242 12.5106 28.2539 11.7189C28.2454 11.7008 28.239 11.6816 28.2305 11.6635L28.5327 11.4922C28.5327 11.5071 28.538 11.5209 28.5423 11.5358C28.6849 12.1477 29.052 12.7171 29.7608 12.1009C29.8119 12.0562 29.8576 12.0051 29.8959 11.9487C29.9491 12.6639 31.2805 14.6401 31.5305 15.1083Z" fill="black"/>
<path id="Vector_96" d="M28.9063 9.6274C29.2309 9.36028 29.7704 9.53375 29.9481 10.0148C30.0365 10.2542 30.3791 11.561 29.7608 12.1006C29.0531 12.7178 28.6849 12.1485 28.5413 11.5366C28.3976 10.9247 28.3018 10.0041 28.9063 9.6274Z" fill="#3B82F6"/>
<path id="Vector_97" opacity="0.1" d="M28.9063 9.6274C29.2309 9.36028 29.7704 9.53375 29.9481 10.0148C30.0365 10.2542 30.3791 11.561 29.7608 12.1006C29.0531 12.7178 28.6849 12.1485 28.5413 11.5366C28.3976 10.9247 28.3018 10.0041 28.9063 9.6274Z" fill="black"/>
<path id="Vector_98" d="M29.4934 11.726C29.2295 11.958 28.8421 11.7079 28.642 11.1939C28.442 10.6799 28.8208 9.97855 29.0901 9.82211C29.3923 9.64652 29.6988 9.8434 29.8127 10.55C29.934 11.312 29.7541 11.7302 29.4934 11.726Z" fill="#37474F"/>
<path id="Vector_99" d="M26.5995 38.1094C26.5814 38.202 26.5814 38.2967 26.5995 38.3893C26.6325 38.4957 27.1571 38.6436 27.4402 38.7245C27.8223 38.8564 28.166 39.0778 28.4448 39.3705C28.7385 39.6833 29.1791 39.9345 29.9187 39.9323C30.6584 39.9302 30.9521 39.6567 31.0212 39.5705C31.0904 39.4843 31.0606 39.264 31.0606 39.264L26.5995 38.1094Z" fill="#263238"/>
<path id="Vector_100" d="M26.7276 36.0195C26.834 36.6123 26.6968 36.9167 26.5808 37.2678C26.4786 37.5403 26.4839 37.8414 26.5957 38.1096C26.9468 38.3842 27.7077 38.4236 28.1845 38.7652C28.4399 38.9471 28.8518 39.4888 29.4051 39.4282C29.9585 39.3675 30.4864 38.6119 30.4864 38.6119C30.0628 38.398 29.6744 38.1181 29.337 37.784C28.7485 37.1859 28.2547 36.9273 28.2931 36.1355L26.7276 36.0195Z" fill="#455A64"/>
<path id="Vector_101" d="M28.409 38.726C27.9919 38.3844 27.3182 38.0874 27.3395 37.8278C27.3608 37.5681 27.0075 37.1967 27.0075 37.1967C27.0075 37.1967 26.7723 36.887 27.6386 36.7881C28.1058 36.7348 28.2696 36.6114 28.3218 36.5092C28.2962 36.3858 28.2856 36.2592 28.2931 36.1336L26.7276 36.0176C26.834 36.6103 26.6968 36.9147 26.5808 37.2659C26.4786 37.5383 26.4839 37.8395 26.5957 38.1077C26.9468 38.3822 27.7077 38.4216 28.1845 38.7632C28.2909 38.842 28.4357 38.9888 28.6049 39.125C28.5857 38.9739 28.5165 38.8334 28.409 38.726Z" fill="#37474F"/>
<path id="Vector_102" d="M26.7706 27.8887C26.3875 27.8664 26.1641 28.3867 26.1119 29.8043C26.0651 31.0696 26.6823 36.0639 26.7504 36.4289C26.8026 36.7077 28.3084 36.696 28.3286 36.3459C28.3638 35.7638 28.9991 29.601 29.0576 28.8965C29.1161 28.192 29.1502 28.0377 28.7905 27.9249C28.4308 27.8121 26.7706 27.8887 26.7706 27.8887Z" fill="#3B82F6"/>
<path id="Vector_103" opacity="0.8" d="M26.7706 27.8887C26.3875 27.8664 26.1641 28.3867 26.1119 29.8043C26.0651 31.0696 26.6823 36.0639 26.7504 36.4289C26.8026 36.7077 28.3084 36.696 28.3286 36.3459C28.3638 35.7638 28.9991 29.601 29.0576 28.8965C29.1161 28.192 29.1502 28.0377 28.7905 27.9249C28.4308 27.8121 26.7706 27.8887 26.7706 27.8887Z" fill="white"/>
<path id="Vector_104" opacity="0.1" d="M28.7926 27.93C28.4319 27.8183 26.7706 27.8896 26.7706 27.8896C26.3875 27.8673 26.1641 28.3876 26.1119 29.8052C26.0651 31.0705 26.6823 36.0648 26.7504 36.4298C26.7664 36.5149 26.9196 36.5735 27.124 36.6033C27.0356 35.5039 26.8324 32.8594 26.8324 31.8825C26.8324 30.6342 26.8047 28.5579 27.5049 29.1666C28.1562 29.7349 28.749 29.5136 29.0363 29.1336C29.0459 29.0272 29.0533 28.9485 29.0576 28.8974C29.1183 28.1961 29.1523 28.0428 28.7926 27.93Z" fill="black"/>
<path id="Vector_105" d="M26.5977 26.8655L26.6934 28.0872C26.6934 28.282 27.0819 28.647 27.9471 28.6321C28.692 28.6193 28.8878 28.2064 28.8878 28.2064L29.123 26.4941L26.5977 26.8655Z" fill="#37474F"/>
<path id="Vector_106" d="M29.1941 16.4229C29.4569 16.9614 29.707 17.7468 29.6953 21.4544C29.6836 25.1621 29.1941 27.2245 29.1941 27.2245C28.9812 27.9088 26.624 27.8524 26.5016 27.283L25.1086 19.8592C24.9394 18.1107 27.8606 13.6901 29.1941 16.4229Z" fill="#3B82F6"/>
<path id="Vector_107" opacity="0.8" d="M29.1941 16.4229C29.4569 16.9614 29.707 17.7468 29.6953 21.4544C29.6836 25.1621 29.1941 27.2245 29.1941 27.2245C28.9812 27.9088 26.624 27.8524 26.5016 27.283L25.1086 19.8592C24.9394 18.1107 27.8606 13.6901 29.1941 16.4229Z" fill="white"/>
<path id="Vector_108" opacity="0.1" d="M25.1086 19.8608L26.5016 27.2846C26.5942 27.7103 27.95 27.8508 28.7066 27.6039C28.7056 27.5911 28.7024 27.5784 28.6992 27.5666C28.5119 26.9228 27.8074 27.5826 27.6967 27.3964C27.586 27.2101 27.4349 23.6366 27.3296 22.4425C27.1891 20.8643 28.2288 20.0917 28.581 18.571C28.7652 17.7058 28.8652 16.8257 28.879 15.9414C27.4519 14.3216 24.9521 18.239 25.1086 19.8608Z" fill="black"/>
<path id="Vector_109" d="M28.4291 15.97C28.842 16.0637 29.3007 16.8874 29.2251 18.009C29.1496 19.1307 28.5579 20.7547 27.2564 20.4343C25.9549 20.114 26.5466 15.4645 28.4291 15.97Z" fill="#3B82F6"/>
<path id="Vector_110" opacity="0.1" d="M28.4291 15.97C28.842 16.0637 29.3007 16.8874 29.2251 18.009C29.1496 19.1307 28.5579 20.7547 27.2564 20.4343C25.9549 20.114 26.5466 15.4645 28.4291 15.97Z" fill="black"/>
<path id="Vector_111" d="M28.2613 16.9909C28.6136 17.0718 29.052 17.3453 28.7934 18.4585C28.5752 19.3896 28.2911 19.8419 27.5409 19.6748C26.4266 19.4279 26.6608 16.5621 28.2613 16.9909Z" fill="#455A64"/>
<path id="Vector_112" d="M27.5391 38.4705C27.9871 38.5035 28.1712 38.5194 28.6128 38.7642C29.0545 39.009 29.3716 38.314 30.0559 38.3385C30.3326 38.4141 30.5976 38.5279 30.8423 38.6791C31.019 38.7993 31.085 38.9504 31.0552 39.2591C30.8434 39.5059 30.539 39.6528 30.2145 39.6645C29.2833 39.7443 28.8129 39.3665 28.4404 39.0505C28.068 38.7344 27.8966 38.5875 27.5391 38.4705Z" fill="#3B82F6"/>
<path id="Vector_113" opacity="0.8" d="M27.5391 38.4705C27.9871 38.5035 28.1712 38.5194 28.6128 38.7642C29.0545 39.009 29.3716 38.314 30.0559 38.3385C30.3326 38.4141 30.5976 38.5279 30.8423 38.6791C31.019 38.7993 31.085 38.9504 31.0552 39.2591C30.8434 39.5059 30.539 39.6528 30.2145 39.6645C29.2833 39.7443 28.8129 39.3665 28.4404 39.0505C28.068 38.7344 27.8966 38.5875 27.5391 38.4705Z" fill="white"/>
<path id="Vector_114" opacity="0.1" d="M29.8218 39.3157C28.9098 39.2933 28.4958 38.8453 28.1308 38.5516C27.9371 38.5037 27.7381 38.4771 27.5391 38.4707C27.8966 38.5878 28.0712 38.7399 28.4436 39.0549C28.8161 39.37 29.2865 39.7488 30.2176 39.669C30.5422 39.6573 30.8466 39.5104 31.0584 39.2635C31.085 38.9549 31.019 38.8038 30.8455 38.6835C31.1031 38.9826 30.7327 39.338 29.8218 39.3157Z" fill="black"/>
<path id="Vector_115" d="M27.2483 37.3946C27.1908 37.6979 26.9897 37.948 26.7162 37.8969C26.4352 37.8245 26.2639 37.5404 26.3309 37.2584C26.3884 36.9551 26.6502 36.7497 26.9226 36.8008C27.1951 36.8518 27.3047 37.0902 27.2483 37.3946Z" fill="#3B82F6"/>
<path id="Vector_116" opacity="0.15" d="M27.249 37.3929C27.2905 37.1716 27.2426 36.9853 27.1117 36.8789C27.2437 37.0917 27.1362 37.5323 26.7499 37.5366C26.4029 37.5366 26.338 37.278 26.3721 37.1301C26.3561 37.1694 26.3433 37.2109 26.3348 37.2535C26.2678 37.5355 26.4391 37.8197 26.7201 37.892C26.9904 37.9463 27.1915 37.6962 27.249 37.3929Z" fill="black"/>
<path id="Vector_117" d="M27.687 28.206C27.7253 27.6068 28.0542 27.0769 28.5863 27.1109C29.1184 27.145 29.5196 27.6569 29.4813 28.256C29.4429 28.8552 28.9811 29.3128 28.449 29.2787C27.9169 29.2446 27.6498 28.8041 27.687 28.206Z" fill="#3B82F6"/>
<path id="Vector_118" opacity="0.15" d="M28.4586 28.7807C27.8882 28.3454 28.1074 27.4196 28.4511 27.1152C27.9988 27.1716 27.7221 27.659 27.687 28.205C27.6498 28.8031 27.9169 29.2436 28.449 29.2777C28.8066 29.2915 29.1428 29.1021 29.3163 28.7892C29.0673 28.9967 28.7044 28.9935 28.4586 28.7807Z" fill="black"/>
<path id="Vector_119" d="M28.457 16.7208C28.457 16.7208 28.7891 17.7339 28.2442 19.0471C27.6578 20.4593 26.9501 20.9073 26.2329 20.8371C25.5156 20.7669 24.6993 20.0411 24.3652 19.3791C23.8842 18.4288 23.9725 17.8243 24.0651 17.3838C24.1513 17.007 24.2801 16.641 24.4493 16.293L28.457 16.7208Z" fill="#3B82F6"/>
<path id="Vector_120" opacity="0.7" d="M28.457 16.7208C28.457 16.7208 28.7891 17.7339 28.2442 19.0471C27.6578 20.4593 26.9501 20.9073 26.2329 20.8371C25.5156 20.7669 24.6993 20.0411 24.3652 19.3791C23.8842 18.4288 23.9725 17.8243 24.0651 17.3838C24.1513 17.007 24.2801 16.641 24.4493 16.293L28.457 16.7208Z" fill="white"/>
<path id="Vector_121" d="M27.722 20.0111C27.4272 20.1867 27.0452 20.2537 26.5514 20.1558C25.6415 19.977 25.2967 18.6223 25.2158 18.0274C25.135 17.4325 25.0711 16.8153 25.6883 16.6067L25.8341 16.4428L24.4507 16.2949C24.2793 16.6429 24.1484 17.0079 24.0612 17.3857C23.9686 17.8263 23.8803 18.4308 24.3613 19.3811C24.6954 20.043 25.5096 20.7646 26.229 20.839C26.7451 20.888 27.257 20.6666 27.722 20.0111Z" fill="#3B82F6"/>
<path id="Vector_122" opacity="0.05" d="M27.722 20.0111C27.4272 20.1867 27.0452 20.2537 26.5514 20.1558C25.6415 19.977 25.2967 18.6223 25.2158 18.0274C25.135 17.4325 25.0711 16.8153 25.6883 16.6067L25.8341 16.4428L24.4507 16.2949C24.2793 16.6429 24.1484 17.0079 24.0612 17.3857C23.9686 17.8263 23.8803 18.4308 24.3613 19.3811C24.6954 20.043 25.5096 20.7646 26.229 20.839C26.7451 20.888 27.257 20.6666 27.722 20.0111Z" fill="black"/>
<path id="Vector_123" d="M24.2852 14.5553C24.5448 15.0491 24.6395 15.8036 24.4512 16.2932C24.4512 16.2932 25.7921 17.6256 27.0691 17.55C27.6416 17.5298 28.1642 17.2169 28.4526 16.721L28.8112 13.3688C28.8112 13.3688 28.2248 11.6809 27.1298 11.7501C26.0347 11.8193 24.2852 14.5553 24.2852 14.5553Z" fill="#455A64"/>
<path id="Vector_124" d="M24.7179 16.5319C25.1724 16.9119 26.1365 17.6057 27.0688 17.5504C27.2848 17.5397 27.4955 17.4897 27.6934 17.4024C27.0815 17.428 26.3557 17.1034 26.0897 16.7586C25.8119 16.3968 25.697 15.9466 25.7332 15.3049C25.746 15.1612 25.9152 12.8977 26.0525 12.373C25.2979 13.0701 24.5626 14.1407 24.3497 14.461V14.4663L24.3157 14.5185L24.3082 14.5302L24.3008 14.5419V14.5483C24.3859 14.7143 24.4498 14.8899 24.4923 15.0719C24.52 15.1857 24.5402 15.3017 24.5519 15.4188C24.5647 15.5337 24.569 15.6497 24.5647 15.7657C24.5604 15.9094 24.5381 16.053 24.4987 16.1914C24.4891 16.2244 24.4785 16.2563 24.4668 16.2861C24.4476 16.2935 24.5541 16.3915 24.7179 16.5319Z" fill="#37474F"/>
<path id="Vector_125" d="M27.1343 11.7501C26.9268 11.7767 26.7289 11.8533 26.5586 11.9736C27.0843 11.9938 27.2141 12.825 27.4014 13.5209C27.6143 14.3223 27.6079 14.1392 28.5572 14.3063L28.7061 14.3989L28.8126 13.3688C28.8126 13.3688 28.2294 11.6809 27.1343 11.7501Z" fill="#37474F"/>
<path id="Vector_126" d="M23.8075 9.12305C22.7806 9.36036 22.273 9.54128 22.3868 10.6055C22.5007 11.6697 23.2882 13.5576 23.8075 14.2504C24.3471 14.9708 24.3162 15.09 24.9345 14.9165C25.7167 14.6973 26.6479 14.2386 26.7436 13.9662C26.8394 13.6938 26.7798 12.1975 27.2268 12.189C27.6738 12.1805 27.727 13.7097 27.8291 13.9247C27.9313 14.1397 28.6677 14.5409 28.8242 14.4568C28.9806 14.3727 29.5691 12.8382 29.584 11.4994C29.5989 9.9031 29.3126 9.53276 28.2921 9.24969L23.8075 9.12305Z" fill="#3B82F6"/>
<path id="Vector_127" opacity="0.7" d="M23.8075 9.12305C22.7806 9.36036 22.273 9.54128 22.3868 10.6055C22.5007 11.6697 23.2882 13.5576 23.8075 14.2504C24.3471 14.9708 24.3162 15.09 24.9345 14.9165C25.7167 14.6973 26.6479 14.2386 26.7436 13.9662C26.8394 13.6938 26.7798 12.1975 27.2268 12.189C27.6738 12.1805 27.727 13.7097 27.8291 13.9247C27.9313 14.1397 28.6677 14.5409 28.8242 14.4568C28.9806 14.3727 29.5691 12.8382 29.584 11.4994C29.5989 9.9031 29.3126 9.53276 28.2921 9.24969L23.8075 9.12305Z" fill="white"/>
<path id="Vector_128" opacity="0.1" d="M24.4943 9.1422L23.8153 9.12305C22.7884 9.36036 22.2808 9.54128 22.3946 10.6055C22.5085 11.6697 23.2918 13.5576 23.8111 14.2504C24.3506 14.9708 24.3198 15.09 24.9381 14.9165C25.2222 14.8357 25.5 14.7356 25.7703 14.6164C25.2722 14.6324 24.7923 14.6164 24.191 13.4139C23.5897 12.2113 23.4386 11.2057 23.4727 10.4192C23.5078 9.7041 23.7823 9.40293 24.4943 9.1422Z" fill="black"/>
<path id="Vector_129" d="M22.7869 9.64501C23.2456 9.33107 23.6297 9.60989 23.867 10.5464C24.0384 11.2232 23.9426 12.2225 23.4658 12.4077C23.0168 12.5822 22.8199 12.0267 22.5687 11.2562C22.4251 10.8284 22.3272 9.96001 22.7869 9.64501Z" fill="#3B82F6"/>
<path id="Vector_130" opacity="0.1" d="M22.7869 9.64501C23.2456 9.33107 23.6297 9.60989 23.867 10.5464C24.0384 11.2232 23.9426 12.2225 23.4658 12.4077C23.0168 12.5822 22.8199 12.0267 22.5687 11.2562C22.4251 10.8284 22.3272 9.96001 22.7869 9.64501Z" fill="black"/>
<path id="Vector_131" d="M27.083 9.87109L26.9766 9.89451C27.1341 10.6512 27.2171 11.4216 27.2235 12.1942H27.2298C27.265 12.1942 27.299 12.2038 27.3299 12.2208C27.3256 11.4312 27.2426 10.6448 27.083 9.87109Z" fill="#3B82F6"/>
<path id="Vector_132" d="M24.7398 7.06836C24.7398 7.06836 24.8749 8.7168 24.8749 8.78597C24.8749 8.85515 23.8203 9.12333 23.8203 9.12333C23.8203 9.12333 24.5929 9.08821 25.6816 9.56497C26.0583 9.74162 26.4084 9.9683 26.7224 10.2407C26.8958 10.3876 27.1555 10.3663 27.3024 10.1928C27.3119 10.1811 27.3215 10.1694 27.33 10.1567C27.395 10.0588 27.4663 9.95659 27.5354 9.8672C27.7515 9.61605 28.0111 9.4064 28.3027 9.2489C28.3027 9.2489 26.9139 8.7168 26.9139 8.66572L26.832 7.61004L24.7398 7.06836Z" fill="#455A64"/>
<path id="Vector_133" d="M25.837 20.4335C26.0892 20.3069 26.0158 19.1427 25.8168 18.452C25.5146 17.3995 24.9655 16.9196 24.5547 16.9962C24.1439 17.0728 24.1513 18.1359 24.2418 18.5308C24.3961 19.2023 25.1602 20.4857 25.837 20.4335Z" fill="#3B82F6"/>
<path id="Vector_134" opacity="0.1" d="M25.837 20.4335C26.0892 20.3069 26.0158 19.1427 25.8168 18.452C25.5146 17.3995 24.9655 16.9196 24.5547 16.9962C24.1439 17.0728 24.1513 18.1359 24.2418 18.5308C24.3961 19.2023 25.1602 20.4857 25.837 20.4335Z" fill="black"/>
<path id="Vector_135" d="M28.614 5.44724C28.9631 3.96798 28.047 2.48578 26.5678 2.13665C25.0885 1.78751 23.6063 2.70365 23.2572 4.1829C22.908 5.66216 23.8242 7.14436 25.3034 7.49349C26.7827 7.84263 28.2649 6.92649 28.614 5.44724Z" fill="#455A64"/>
<path id="Vector_136" d="M26.8756 8.23917L26.8415 7.78689L26.8128 7.19094C26.8128 7.19094 26.2509 7.01641 24.8078 6.52156C23.7511 6.15973 23.22 5.06893 23.3286 3.94727C22.8901 5.26474 23.5031 6.70354 24.7578 7.29949C24.794 7.75603 24.8695 8.72764 24.8695 8.78936C24.8695 8.78936 25.06 8.66698 25.4964 8.70742C25.9327 8.74786 26.3477 9.09905 26.1668 8.57014C26.0093 8.0987 26.7053 8.20618 26.8756 8.23917Z" fill="#37474F"/>
<path id="Vector_137" d="M26.8362 2.22461C25.6038 2.22461 24.9419 3.04404 24.728 4.16571C24.5907 4.88936 24.6524 6.57931 25.3016 7.39342C25.6443 7.8191 27.2299 8.32672 27.8961 8.13836C28.6315 7.9319 28.7475 6.96774 28.8124 5.99932C28.8656 5.28418 28.7975 4.56372 28.6123 3.87092C28.3867 2.86313 27.5354 2.27463 26.8362 2.22461Z" fill="#3B82F6"/>
<path id="Vector_138" opacity="0.8" d="M26.8362 2.22461C25.6038 2.22461 24.9419 3.04404 24.728 4.16571C24.5907 4.88936 24.6524 6.57931 25.3016 7.39342C25.6443 7.8191 27.2299 8.32672 27.8961 8.13836C28.6315 7.9319 28.7475 6.96774 28.8124 5.99932C28.8656 5.28418 28.7975 4.56372 28.6123 3.87092C28.3867 2.86313 27.5354 2.27463 26.8362 2.22461Z" fill="white"/>
<path id="Vector_139" d="M28.8095 5.92742C28.7605 5.96892 28.7062 6.00511 28.6488 6.03384C27.7974 5.95935 27.5846 5.34318 27.5771 5.31125C27.5771 5.25059 27.5154 4.30133 27.3313 3.81499C27.3983 3.79583 27.4643 3.77242 27.5292 3.74688C27.8815 3.6064 28.1103 3.40314 28.2061 3.14348C28.2178 3.11155 28.2274 3.07856 28.2348 3.04451C28.221 3.02535 28.2061 3.00833 28.1922 2.99023C28.1848 3.03599 28.172 3.08176 28.1561 3.12539C28.0656 3.37015 27.8474 3.56277 27.509 3.69686C26.4448 4.12254 25.4136 3.64472 25.0294 3.25628L25.0039 3.30524C25.2955 3.59044 25.9159 3.91609 26.6449 3.91609C26.8609 3.91609 27.0759 3.88735 27.2834 3.82989C27.4643 4.30239 27.5239 5.26336 27.5261 5.31338C27.4643 5.55282 27.0833 6.19879 26.0596 6.368C25.719 6.20943 25.4275 5.96147 25.2146 5.65179L25.1699 5.68053C25.3891 6.00191 25.6903 6.25732 26.0426 6.42121C26.067 6.45313 26.2352 6.68513 26.2905 7.21616C26.2905 7.25341 26.298 7.29066 26.3022 7.32258C26.3097 7.54606 26.3544 7.76635 26.4342 7.97494L26.5066 7.99728C26.4065 7.83766 26.381 7.57905 26.3544 7.31833C26.3544 7.28108 26.3469 7.24383 26.3437 7.20552C26.2937 6.73727 26.1618 6.49783 26.1053 6.41376C27.0493 6.24455 27.4516 5.67521 27.559 5.39319C27.6399 5.56985 27.9198 6.03171 28.6584 6.08811H28.6733C28.7222 6.06151 28.769 6.03171 28.8127 5.99766V5.98808C28.8095 5.96892 28.8095 5.9487 28.8095 5.92742Z" fill="#3B82F6"/>
<path id="Vector_140" opacity="0.1" d="M27.8961 8.13584C27.9472 8.12094 27.9972 8.10179 28.0451 8.07731C27.4066 8.19118 26.6617 7.97089 25.9699 7.5665C25.2782 7.1621 25.1388 6.69811 24.9738 5.70096C24.8089 4.7038 25.009 3.31715 25.4868 2.69141C25.0909 3.0394 24.8429 3.55553 24.728 4.16106C24.5907 4.88472 24.6524 6.57466 25.3016 7.38877C25.6443 7.81765 27.2299 8.32208 27.8961 8.13584Z" fill="black"/>
<path id="Vector_141" d="M25.3968 6.07605C25.3968 5.63228 25.085 5.1651 24.7009 5.03207C24.5348 4.9629 24.3433 4.98951 24.2028 5.10231C24.0262 5.18638 23.9102 5.38539 23.9102 5.65569C23.9102 6.0984 24.2209 6.56665 24.6051 6.69967C24.7722 6.76884 24.9626 6.74117 25.1042 6.62837C25.2808 6.5443 25.3968 6.34636 25.3968 6.07605Z" fill="#3B82F6"/>
<path id="Vector_142" opacity="0.15" d="M25.3968 6.07605C25.3968 5.63228 25.085 5.1651 24.7009 5.03207C24.5348 4.9629 24.3433 4.98951 24.2028 5.10231C24.0262 5.18638 23.9102 5.38539 23.9102 5.65569C23.9102 6.0984 24.2209 6.56665 24.6051 6.69967C24.7722 6.76884 24.9626 6.74117 25.1042 6.62837C25.2808 6.5443 25.3968 6.34636 25.3968 6.07605Z" fill="black"/>
<path id="Vector_143" d="M24.6047 5.09791C24.9889 5.23094 25.3007 5.69918 25.3007 6.14295C25.3007 6.58672 24.9889 6.83787 24.6047 6.70485C24.2206 6.57183 23.9141 6.09932 23.9141 5.65661C23.9141 5.21391 24.2206 4.96063 24.6047 5.09791Z" fill="#3B82F6"/>
<path id="Vector_144" opacity="0.15" d="M24.8071 6.52298C24.7625 6.52298 24.7188 6.51447 24.6773 6.49957C24.3772 6.39315 24.125 6.01004 24.125 5.65672C24.125 5.4226 24.2314 5.27148 24.407 5.27148C24.4517 5.27148 24.4964 5.28 24.5379 5.2949C24.8369 5.40132 25.0902 5.78549 25.0902 6.13881C25.087 6.37506 24.9806 6.52298 24.8071 6.52298Z" fill="black"/>
<path id="Vector_145" opacity="0.15" d="M24.5391 5.2949C24.4976 5.28 24.4529 5.27148 24.4082 5.27148C24.3997 5.27148 24.3901 5.27148 24.3816 5.27148C24.3359 5.35023 24.3135 5.44069 24.3167 5.53115C24.3167 5.8834 24.57 6.2697 24.8701 6.37399C24.9116 6.38889 24.9552 6.39741 24.9999 6.39741C25.0084 6.39741 25.018 6.39741 25.0265 6.39741C25.0723 6.31865 25.0946 6.22926 25.0914 6.13881C25.0882 5.78549 24.8382 5.39919 24.5391 5.2949Z" fill="black"/>
<path id="Vector_146" d="M26.224 4.65933C25.975 4.64336 25.7984 4.61676 25.7122 4.69551C25.593 4.80193 25.6281 4.96688 25.6877 5.31062C25.7228 5.50749 25.7622 5.70118 25.9399 5.83633C26.1421 5.98957 26.5837 6.12366 27.1978 6.12366C27.8916 6.12366 28.4652 5.98957 28.8292 5.43938C28.8377 5.0286 28.7941 4.61889 28.6994 4.21875C28.4557 4.38583 28.1832 4.50608 27.8959 4.57206C27.2808 4.71147 26.9115 4.70402 26.224 4.65933Z" fill="#455A64"/>
<path id="Vector_147" d="M26.6849 5.67128C26.8031 5.65544 26.8837 5.52831 26.8648 5.38734C26.8459 5.24637 26.7347 5.14493 26.6165 5.16077C26.4982 5.17661 26.4177 5.30373 26.4365 5.44471C26.4554 5.58568 26.5666 5.68712 26.6849 5.67128Z" fill="#3B82F6"/>
<path id="Vector_148" d="M28.588 5.17535C28.5709 5.28603 28.4677 5.36265 28.357 5.34669C28.2464 5.33073 28.1697 5.22644 28.1857 5.11576C28.1995 5.02105 28.2793 4.94868 28.3751 4.94336C28.4975 4.94974 28.5933 5.05404 28.588 5.17642V5.17535Z" fill="#3B82F6"/>
<path id="Vector_149" d="M20.488 25.4228C20.2528 25.1195 19.7133 25.293 18.6076 26.189C17.6232 26.9861 15.2639 29.6562 15.0032 29.9212C14.6594 30.2862 14.4753 30.7746 14.4934 31.2759C14.504 31.9006 14.9893 32.0602 15.1564 31.9612C15.7949 31.5866 20.6594 28.2312 21.2298 27.8109C21.8002 27.3905 21.9375 27.316 21.7853 26.9712C21.6331 26.6264 20.488 25.4228 20.488 25.4228Z" fill="#3B82F6"/>
<path id="Vector_150" opacity="0.8" d="M20.488 25.4228C20.2528 25.1195 19.7133 25.293 18.6076 26.189C17.6232 26.9861 15.2639 29.6562 15.0032 29.9212C14.6594 30.2862 14.4753 30.7746 14.4934 31.2759C14.504 31.9006 14.9893 32.0602 15.1564 31.9612C15.7949 31.5866 20.6594 28.2312 21.2298 27.8109C21.8002 27.3905 21.9375 27.316 21.7853 26.9712C21.6331 26.6264 20.488 25.4228 20.488 25.4228Z" fill="white"/>
<path id="Vector_151" opacity="0.1" d="M19.8434 26.1862C19.9285 26.7534 20.5585 27.1546 18.5504 28.6711C17.3244 29.598 15.6515 30.7761 14.5352 31.554C14.6586 31.9467 15.0162 32.0435 15.1545 31.9616C15.793 31.587 20.6575 28.2316 21.2279 27.8112C21.7983 27.3908 21.9356 27.3164 21.7834 26.9716C21.6546 26.6789 20.815 25.7733 20.5596 25.5008L20.3882 25.4189C19.8019 25.387 19.7636 25.62 19.8434 26.1862Z" fill="black"/>
<path id="Vector_152" d="M20.6837 24.8223L20.1016 25.4948C19.9888 25.646 20.0409 26.0269 20.4943 26.559C20.9476 27.0911 21.5223 27.304 21.6755 27.1688L22.5577 26.2845L20.6837 24.8223Z" fill="#37474F"/>
<path id="Vector_153" d="M24.1367 17.7999C24.3943 17.6913 24.6582 17.5966 24.9264 17.5168C25.1988 17.4497 25.385 18.067 25.4585 18.2713C25.6883 18.9098 25.7341 19.709 25.6426 19.7963C25.4201 20.0091 24.9413 20.1422 24.9413 20.1422L24.1367 17.7999Z" fill="#455A64"/>
<path id="Vector_154" d="M23.6868 15.8032C24.3104 15.8032 25.2703 18.3435 25.3778 19.4449C25.4853 20.5463 25.6705 21.2445 24.5584 23.4346C23.3878 25.7481 22.4353 26.5633 22.4353 26.5633C22.0011 26.8134 20.2793 25.4225 20.3963 24.818C20.3963 24.818 21.3615 21.5435 21.7383 20.0462C22.115 18.5488 22.6545 15.6713 23.6868 15.8032Z" fill="#3B82F6"/>
<path id="Vector_155" opacity="0.8" d="M23.6868 15.8032C24.3104 15.8032 25.2703 18.3435 25.3778 19.4449C25.4853 20.5463 25.6705 21.2445 24.5584 23.4346C23.3878 25.7481 22.4353 26.5633 22.4353 26.5633C22.0011 26.8134 20.2793 25.4225 20.3963 24.818C20.3963 24.818 21.3615 21.5435 21.7383 20.0462C22.115 18.5488 22.6545 15.6713 23.6868 15.8032Z" fill="white"/>
<path id="Vector_156" opacity="0.1" d="M24.6733 17.0909C24.3541 16.3736 23.9827 15.8032 23.6868 15.8032C22.6545 15.6713 22.1161 18.5478 21.7383 20.0462C21.3605 21.5446 20.3963 24.818 20.3963 24.818C20.2952 25.3406 21.5669 26.4484 22.1937 26.5793C22.3374 26.4207 22.447 26.2494 22.4523 26.094C22.4694 25.6247 21.4754 25.6385 21.4222 25.397C21.369 25.1554 22.3002 22.2746 22.8908 19.9366C23.4814 17.5985 24.1434 16.5024 24.6733 17.0909Z" fill="black"/>
<path id="Vector_157" d="M20.9573 26.3679C21.3234 25.8922 21.8928 25.6368 22.3153 25.9625C22.7377 26.2881 22.7835 26.9373 22.4217 27.413C22.0598 27.8887 21.416 28.0089 20.9935 27.6833C20.571 27.3577 20.5913 26.8426 20.9573 26.3679Z" fill="#3B82F6"/>
<path id="Vector_158" opacity="0.15" d="M21.3042 27.2837C21.0595 26.8102 21.3042 26.0141 22.0896 25.8471C21.7065 25.7321 21.2627 25.9737 20.9594 26.3685C20.5934 26.8432 20.5689 27.3582 20.9914 27.6839C21.3628 27.9701 21.9023 27.9105 22.2759 27.5689C22.0471 27.637 21.5501 27.7562 21.3042 27.2837Z" fill="black"/>
<path id="Vector_159" d="M17.8482 19.6405C17.7609 19.7927 17.6928 20.0609 17.7215 20.5696C17.7503 21.0783 17.8971 21.9126 18.1674 22.3383C18.4377 22.7639 18.7208 22.8906 19.0528 22.9108C19.3849 22.931 19.5296 22.8714 19.7786 22.9342C20.1362 23.0289 20.2777 22.9087 20.0894 22.6032C19.901 22.2978 19.6328 21.8807 19.5349 21.5795C19.4732 21.3858 19.437 21.1847 19.4285 20.9814C19.4817 20.8846 19.7084 21.3603 20.0053 21.4635C20.3022 21.5667 20.4076 21.4167 20.3767 21.3337C20.3458 21.2507 20.1639 21.0868 20.0053 20.8016C19.8467 20.5164 19.5945 20.0428 19.4253 19.7863C19.2561 19.5298 19.106 19.3809 18.5431 19.3809C17.9801 19.3809 17.9546 19.4649 17.8482 19.6405Z" fill="#3B82F6"/>
<path id="Vector_160" opacity="0.8" d="M17.8482 19.6405C17.7609 19.7927 17.6928 20.0609 17.7215 20.5696C17.7503 21.0783 17.8971 21.9126 18.1674 22.3383C18.4377 22.7639 18.7208 22.8906 19.0528 22.9108C19.3849 22.931 19.5296 22.8714 19.7786 22.9342C20.1362 23.0289 20.2777 22.9087 20.0894 22.6032C19.901 22.2978 19.6328 21.8807 19.5349 21.5795C19.4732 21.3858 19.437 21.1847 19.4285 20.9814C19.4817 20.8846 19.7084 21.3603 20.0053 21.4635C20.3022 21.5667 20.4076 21.4167 20.3767 21.3337C20.3458 21.2507 20.1639 21.0868 20.0053 20.8016C19.8467 20.5164 19.5945 20.0428 19.4253 19.7863C19.2561 19.5298 19.106 19.3809 18.5431 19.3809C17.9801 19.3809 17.9546 19.4649 17.8482 19.6405Z" fill="white"/>
<path id="Vector_161" opacity="0.1" d="M18.1703 22.3374C18.4416 22.7705 18.7236 22.8897 19.0557 22.9099C19.3877 22.9301 19.5324 22.8705 19.7815 22.9333C19.9805 22.9855 20.1124 22.9716 20.1582 22.8971C20.0039 23.0036 19.8293 22.8556 19.6569 22.6971C19.4845 22.5385 18.9908 22.5747 18.8396 22.4896C18.6417 22.3778 18.3682 22.2533 18.2267 21.4871C18.0851 20.7209 18.3991 20.6357 18.6193 19.9887L18.6002 19.3789H18.5502C17.9893 19.3789 17.9521 19.4608 17.8521 19.6364C17.7648 19.7886 17.6967 20.0568 17.7254 20.5655C17.7542 21.0742 17.9 21.9117 18.1703 22.3374Z" fill="black"/>
<path id="Vector_162" d="M22.9148 9.95752C23.2266 9.7947 23.4725 10.2119 23.5459 10.7578C23.6193 11.3037 23.5789 11.6815 23.2937 11.8082C22.8744 11.9955 22.3274 11.755 22.2167 11.1824C22.1231 10.695 22.4125 10.2502 22.9148 9.95752Z" fill="#37474F"/>
<path id="Vector_163" d="M17.7734 18.6603C17.7734 18.6603 17.8447 19.8458 17.9863 20.2821C18.1342 20.744 18.5546 20.9036 18.7748 20.5929C18.9951 20.2821 19.0558 19.7075 19.0558 19.7075L19.1101 18.6348L17.7734 18.6603Z" fill="#37474F"/>
<path id="Vector_164" d="M18.1292 14.149C17.6493 14.0426 17.3417 14.4683 17.3779 15.2132C17.4141 15.9581 17.7482 19.0443 17.7482 19.0443C17.7631 19.1507 18.0068 19.2412 18.4421 19.2284C18.8773 19.2156 19.1242 19.0102 19.1306 18.923C19.1306 18.923 19.2934 16.1454 19.336 15.8113C19.4222 15.1206 18.7879 14.2905 18.1292 14.149Z" fill="#3B82F6"/>
<path id="Vector_165" opacity="0.8" d="M18.1292 14.149C17.6493 14.0426 17.3417 14.4683 17.3779 15.2132C17.4141 15.9581 17.7482 19.0443 17.7482 19.0443C17.7631 19.1507 18.0068 19.2412 18.4421 19.2284C18.8773 19.2156 19.1242 19.0102 19.1306 18.923C19.1306 18.923 19.2934 16.1454 19.336 15.8113C19.4222 15.1206 18.7879 14.2905 18.1292 14.149Z" fill="white"/>
<path id="Vector_166" opacity="0.1" d="M19.3392 15.6069C19.2966 14.9684 18.7241 14.2767 18.1292 14.149C17.6493 14.0426 17.3417 14.4683 17.3779 15.2132C17.4141 15.9581 17.7482 19.0443 17.7482 19.0443C17.761 19.1401 17.9472 19.2178 18.2803 19.2284C18.2356 18.7825 18.2197 18.1844 18.1877 17.6577C18.11 16.4094 17.8685 15.3452 18.441 15.6612C18.8667 15.8975 19.2328 15.824 19.3392 15.6069Z" fill="black"/>
<path id="Vector_167" d="M18.4552 13.8906L18.005 14.3791C18.005 14.3791 17.8667 14.743 18.3062 15.124C18.7319 15.4869 19.0511 15.3997 19.0511 15.3997L19.7641 14.8676L18.4552 13.8906Z" fill="#37474F"/>
<path id="Vector_168" d="M22.7926 9.81904C23.2949 10.2607 23.4598 11.7995 23.0809 12.2465C22.7021 12.6934 19.617 15.0847 19.617 15.0847C19.2179 15.3124 18.0366 14.4653 18.3048 13.9002C18.3048 13.9002 20.4758 11.3153 21.0377 10.6406C21.5996 9.9659 22.2892 9.3774 22.7926 9.81904Z" fill="#3B82F6"/>
<path id="Vector_169" opacity="0.8" d="M22.7926 9.81904C23.2949 10.2607 23.4598 11.7995 23.0809 12.2465C22.7021 12.6934 19.617 15.0847 19.617 15.0847C19.2179 15.3124 18.0366 14.4653 18.3048 13.9002C18.3048 13.9002 20.4758 11.3153 21.0377 10.6406C21.5996 9.9659 22.2892 9.3774 22.7926 9.81904Z" fill="white"/>
<path id="Vector_170" opacity="0.1" d="M22.796 9.8189C22.2926 9.37726 21.602 9.96682 21.0411 10.6405C20.4803 11.3141 18.3083 13.9001 18.3083 13.9001C18.2104 14.1066 18.3083 14.3513 18.4871 14.5663C18.6882 14.2736 19.1703 13.633 20.2164 12.4975C21.4147 11.1992 22.4097 10.2531 23.0142 10.1158C22.9599 10.0041 22.8865 9.90404 22.796 9.8189Z" fill="black"/>
</g>
</g>
</g>
</svg>
