<svg width="40" height="42" viewBox="0 0 40 42" fill="none" xmlns="http://www.w3.org/2000/svg">
<g id="Frame 223">
<g id="freepik--Stage--inject-245">
<g id="freepik--stage--inject-245">
<path id="Vector" opacity="0.2" d="M39.6367 30.2607L20.8722 41.0853C20.3225 41.3642 19.6734 41.3642 19.1237 41.0853L0.363315 30.262C0.121105 30.126 0 29.9423 0 29.7572C0.00680365 29.6089 0.0762008 29.4701 0.191863 29.3776C0.243571 29.3299 0.300721 29.2878 0.363315 29.2537L19.1278 18.4319C19.6775 18.1529 20.3266 18.1529 20.8763 18.4319L39.6367 29.251C40.1184 29.5313 40.1184 29.9845 39.6367 30.2607Z" fill="black"/>
<path id="Vector_2" d="M20 36.1018V39.7486C19.6966 39.7554 19.3972 39.6846 19.1291 39.5431L0.363315 28.7158C0.121105 28.5797 0 28.3933 0 28.211V25.0568C0.00680365 24.9085 0.0762008 24.7697 0.191863 24.6758L2.90652 26.2433L20 36.1018Z" fill="#3B82F6"/>
<path id="Vector_3" opacity="0.5" d="M20 36.1018V39.7486C19.6966 39.7554 19.3972 39.6846 19.1291 39.5431L0.363315 28.7158C0.121105 28.5797 0 28.3933 0 28.211V25.0568C0.00680365 24.9085 0.0762008 24.7697 0.191863 24.6758L2.90652 26.2433L20 36.1018Z" fill="white"/>
<path id="Vector_4" d="M20 36.1012V39.748C20.3034 39.7548 20.6042 39.684 20.8722 39.5425L39.6367 28.7152C39.8789 28.5791 40 28.3927 40 28.2104V25.0548C39.9932 24.9065 39.9238 24.7677 39.8081 24.6738L37.0935 26.2414L20 36.1012Z" fill="#3B82F6"/>
<path id="Vector_5" opacity="0.65" d="M20 36.1012V39.748C20.3034 39.7548 20.6042 39.684 20.8722 39.5425L39.6367 28.7152C39.8789 28.5791 40 28.3927 40 28.2104V25.0548C39.9932 24.9065 39.9238 24.7677 39.8081 24.6738L37.0935 26.2414L20 36.1012Z" fill="white"/>
<path id="Vector_6" d="M39.6367 25.5576L20.8722 36.3835C20.3225 36.6611 19.6734 36.6611 19.1237 36.3835L0.363315 25.5589C0.121105 25.4229 0 25.2405 0 25.0555C0.00680365 24.9071 0.0762008 24.7683 0.191863 24.6745C0.243571 24.6268 0.300721 24.5846 0.363315 24.5506L19.1278 13.7287C19.6775 13.4498 20.3266 13.4498 20.8763 13.7287L39.6367 24.5493C40.1184 24.8282 40.1184 25.2827 39.6367 25.5576Z" fill="#3B82F6"/>
<path id="Vector_7" opacity="0.8" d="M39.6367 25.5576L20.8722 36.3835C20.3225 36.6611 19.6734 36.6611 19.1237 36.3835L0.363315 25.5589C0.121105 25.4229 0 25.2405 0 25.0555C0.00680365 24.9071 0.0762008 24.7683 0.191863 24.6745C0.243571 24.6268 0.300721 24.5846 0.363315 24.5506L19.1278 13.7287C19.6775 13.4498 20.3266 13.4498 20.8763 13.7287L39.6367 24.5493C40.1184 24.8282 40.1184 25.2827 39.6367 25.5576Z" fill="white"/>
<path id="Vector_8" d="M20 13.7363C20.2667 13.7309 20.5307 13.7935 20.7675 13.9173L39.5265 24.7365C39.6884 24.8304 39.7796 24.946 39.7796 25.0562C39.7796 25.1665 39.687 25.2794 39.5278 25.3719L20.7634 36.1992C20.2803 36.4387 19.7142 36.4387 19.2312 36.1992L0.470812 25.3719C0.308886 25.2808 0.216356 25.1651 0.216356 25.0562C0.22452 24.9678 0.268064 24.8875 0.338822 24.8344C0.379644 24.7977 0.425908 24.765 0.474895 24.7392L19.2407 13.9173C19.4761 13.7921 19.7387 13.7309 20.0054 13.7363M20.0054 13.52C19.7006 13.5132 19.3999 13.5853 19.1319 13.7295L0.363315 24.5514C0.300721 24.5854 0.243571 24.6262 0.191863 24.6752C0.0762008 24.7691 0.00680365 24.9079 0 25.0562C0 25.2413 0.121105 25.4223 0.363315 25.5597L19.1237 36.3843C19.6734 36.6619 20.3225 36.6619 20.8722 36.3843L39.6367 25.5583C40.1184 25.2862 40.1184 24.829 39.6367 24.55L20.8763 13.7295C20.6069 13.5866 20.3062 13.5145 20.0014 13.52H20.0054Z" fill="white"/>
<path id="Vector_9" d="M19.4195 15.925L4.17937 24.718C3.85688 24.9044 3.85688 25.2051 4.17937 25.3916L19.4195 34.1832C19.7856 34.3697 20.2183 34.3697 20.5843 34.1832L35.8313 25.3902C36.1538 25.2038 36.1538 24.9031 35.8313 24.7166L20.5843 15.925C20.2183 15.7386 19.7856 15.7386 19.4195 15.925Z" fill="#455A64"/>
<path id="Vector_10" d="M35.8253 24.718L20.5824 15.9236C20.4028 15.8297 20.2027 15.7821 20 15.7875V16.3794L35.7246 25.4487L35.8253 25.3902C36.1478 25.2051 36.1478 24.9044 35.8253 24.718Z" fill="#37474F"/>
<path id="Vector_11" d="M20.0019 15.7875C19.7992 15.7821 19.5992 15.8297 19.4195 15.9236L4.17937 24.7166C3.85688 24.9031 3.85688 25.2038 4.17937 25.3902L4.28006 25.4487L20.0019 16.3794V15.7875Z" fill="#263238"/>
</g>
<g id="freepik--Light--inject-245">
<g id="Group" opacity="0.5">
<path id="Vector_12" opacity="0.3" d="M21.0505 31.9585C20.7266 32.1477 20.3538 32.2347 19.9796 32.2102V34.3262C20.234 34.3262 20.4844 34.2513 20.6981 34.1125L35.6457 25.4855C35.9246 25.3318 36.0539 25.1957 36.0539 25.0093V23.2988L21.0505 31.9585Z" fill="#3B82F6"/>
<path id="Vector_13" opacity="0.28" d="M21.0514 30.0665C20.7275 30.257 20.3547 30.3441 19.9805 30.3183V32.4342C20.2349 32.4342 20.4853 32.3594 20.6989 32.2206L35.6465 23.5935C35.9255 23.4398 36.0548 23.3051 36.0548 23.1186V21.4082L21.0514 30.0665Z" fill="#3B82F6"/>
<path id="Vector_14" opacity="0.25" d="M21.0505 28.1712C20.7266 28.3604 20.3538 28.4475 19.9796 28.423V30.5389C20.234 30.5389 20.4844 30.4641 20.6981 30.3253L35.6457 21.7023C35.9246 21.5486 36.0539 21.4125 36.0539 21.2261V19.5156L21.0505 28.1712Z" fill="#3B82F6"/>
<path id="Vector_15" opacity="0.23" d="M21.0514 26.2814C20.7275 26.4719 20.3547 26.559 19.9805 26.5331V28.649C20.2349 28.649 20.4839 28.5742 20.6989 28.4368L35.6465 19.8084C35.9255 19.6546 36.0548 19.5199 36.0548 19.3335V17.623L21.0514 26.2814Z" fill="#3B82F6"/>
<path id="Vector_16" opacity="0.21" d="M21.0505 24.3902C20.7266 24.5793 20.3538 24.6664 19.9796 24.6419V26.7578C20.234 26.7578 20.4844 26.683 20.6981 26.5442L35.6457 17.9172C35.9246 17.7634 36.0539 17.6287 36.0539 17.4409V15.7305L21.0505 24.3902Z" fill="#3B82F6"/>
<path id="Vector_17" opacity="0.18" d="M21.0514 22.4995C20.7275 22.6887 20.3547 22.7758 19.9805 22.7499V24.8658C20.2349 24.8658 20.4839 24.791 20.6989 24.6536L35.6465 16.0252C35.9255 15.8728 36.0548 15.7367 36.0548 15.5503V13.8398L21.0514 22.4995Z" fill="#3B82F6"/>
<path id="Vector_18" opacity="0.16" d="M21.0505 20.6069C20.7266 20.7961 20.3538 20.8845 19.9796 20.8587V22.9746C20.234 22.9746 20.4844 22.8998 20.6981 22.761L35.6457 14.134C35.9246 13.9802 36.0539 13.8455 36.0539 13.6591V11.9473L21.0505 20.6069Z" fill="#3B82F6"/>
<path id="Vector_19" opacity="0.14" d="M21.0514 18.7144C20.7275 18.9035 20.3547 18.9906 19.9805 18.9647V21.0807C20.2349 21.0807 20.4839 21.0058 20.6989 20.8684L35.6465 12.24C35.9255 12.0876 36.0548 11.9515 36.0548 11.7651V10.0547L21.0514 18.7144Z" fill="#3B82F6"/>
<path id="Vector_20" opacity="0.12" d="M21.0505 16.8222C20.7266 17.0127 20.3538 17.0998 19.9796 17.0739V19.1899C20.234 19.1899 20.4844 19.115 20.6981 18.9762L35.6457 10.3451C35.9246 10.1914 36.0539 10.0567 36.0539 9.87024V8.16797L21.0505 16.8222Z" fill="#3B82F6"/>
<path id="Vector_21" opacity="0.09" d="M21.0505 14.9312C20.7266 15.1203 20.3538 15.2074 19.9796 15.1815V17.2975C20.234 17.2975 20.4831 17.2226 20.6981 17.0852L35.6457 8.45682C35.9246 8.30441 36.0539 8.16834 36.0539 7.98192V6.27148L21.0505 14.9312Z" fill="#3B82F6"/>
<path id="Vector_22" opacity="0.07" d="M21.0505 13.0392C20.7266 13.2297 20.3538 13.3168 19.9796 13.2909V15.4069C20.234 15.4069 20.4844 15.332 20.6981 15.1932L35.6457 6.56619C35.9246 6.41243 36.0539 6.27772 36.0539 6.0913V4.38086L21.0505 13.0392Z" fill="#3B82F6"/>
<path id="Vector_23" opacity="0.05" d="M21.0505 11.146C20.7266 11.3352 20.3538 11.4222 19.9796 11.3977V13.515C20.234 13.5137 20.4831 13.4388 20.6981 13.3014L35.6457 4.67302C35.9246 4.51926 36.0539 4.38319 36.0539 4.19677V2.48633L21.0505 11.146Z" fill="#3B82F6"/>
<path id="Vector_24" opacity="0.02" d="M21.0514 9.25675C20.7275 9.44725 20.3547 9.53433 19.9805 9.50848V11.6244C20.2349 11.6244 20.4853 11.5496 20.6989 11.4108L35.6465 2.78103C35.9255 2.62727 36.0548 2.49256 36.0548 2.30614V0.595703L21.0514 9.25675Z" fill="#3B82F6"/>
</g>
<g id="Group_2" opacity="0.7">
<path id="Vector_25" opacity="0.5" d="M18.9081 31.9585C19.232 32.1477 19.6062 32.2361 19.9804 32.2102V34.3262C19.7259 34.3262 19.4755 34.2513 19.2619 34.1125L4.31838 25.4855C4.03943 25.3318 3.91016 25.1957 3.91016 25.0093V23.2988L18.9081 31.9585Z" fill="#3B82F6"/>
<path id="Vector_26" opacity="0.46" d="M18.9081 30.0665C19.232 30.257 19.6062 30.3455 19.9804 30.3183V32.4342C19.7259 32.4342 19.4755 32.3594 19.2619 32.2206L4.31838 23.5935C4.03943 23.4398 3.91016 23.3051 3.91016 23.1186V21.4082L18.9081 30.0665Z" fill="#3B82F6"/>
<path id="Vector_27" opacity="0.42" d="M18.9081 28.1712C19.232 28.3604 19.6062 28.4488 19.9804 28.423V30.5389C19.7259 30.5389 19.4755 30.4641 19.2619 30.3253L4.31838 21.6982C4.03943 21.5445 3.91016 21.4084 3.91016 21.222V19.5156L18.9081 28.1712Z" fill="#3B82F6"/>
<path id="Vector_28" opacity="0.38" d="M18.9095 26.2814C19.2333 26.4719 19.6075 26.5603 19.9817 26.5331V28.649C19.7273 28.649 19.4783 28.5742 19.2633 28.4368L4.31838 19.8084C4.03943 19.6546 3.91016 19.5199 3.91016 19.3335V17.623L18.9095 26.2814Z" fill="#3B82F6"/>
<path id="Vector_29" opacity="0.35" d="M18.9081 24.3902C19.232 24.5793 19.6062 24.6677 19.9804 24.6419V26.7578C19.7259 26.7578 19.4755 26.683 19.2619 26.5442L4.31838 17.9172C4.03943 17.7634 3.91016 17.6287 3.91016 17.4409V15.7305L18.9081 24.3902Z" fill="#3B82F6"/>
<path id="Vector_30" opacity="0.31" d="M18.9095 22.4995C19.2333 22.6887 19.6075 22.7758 19.9817 22.7499V24.8658C19.7273 24.8658 19.4783 24.791 19.2633 24.6536L4.31838 16.0252C4.03943 15.8728 3.91016 15.7367 3.91016 15.5503V13.8398L18.9095 22.4995Z" fill="#3B82F6"/>
<path id="Vector_31" opacity="0.27" d="M18.9081 20.6069C19.232 20.7975 19.6062 20.8845 19.9804 20.8587V22.9746C19.7259 22.9746 19.4755 22.8998 19.2619 22.761L4.31838 14.134C4.03943 13.9802 3.91016 13.8455 3.91016 13.6591V11.9473L18.9081 20.6069Z" fill="#3B82F6"/>
<path id="Vector_32" opacity="0.23" d="M18.9095 18.7144C19.2333 18.9035 19.6075 18.9906 19.9817 18.9647V21.0807C19.7273 21.0807 19.4783 21.0058 19.2633 20.8684L4.31838 12.24C4.03943 12.0876 3.91016 11.9515 3.91016 11.7651V10.0547L18.9095 18.7144Z" fill="#3B82F6"/>
<path id="Vector_33" opacity="0.19" d="M18.9095 16.8222C19.2333 17.0127 19.6075 17.1012 19.9817 17.0739V19.1899C19.7273 19.1899 19.4769 19.115 19.2633 18.9762L4.31838 10.3451C4.03943 10.1914 3.91016 10.0567 3.91016 9.87024V8.16797L18.9095 16.8222Z" fill="#3B82F6"/>
<path id="Vector_34" opacity="0.15" d="M18.9095 14.9312C19.2333 15.1203 19.6075 15.2074 19.9817 15.1815V17.2975C19.7273 17.2975 19.4783 17.2226 19.2633 17.0852L4.31838 8.45682C4.03943 8.30441 3.91016 8.16834 3.91016 7.98192V6.27148L18.9095 14.9312Z" fill="#3B82F6"/>
<path id="Vector_35" opacity="0.12" d="M18.9081 13.0392C19.232 13.2297 19.6062 13.3181 19.9804 13.2909V15.4069C19.7259 15.4069 19.4755 15.332 19.2619 15.1932L4.31838 6.56619C4.03943 6.41243 3.91016 6.27772 3.91016 6.0913V4.38086L18.9081 13.0392Z" fill="#3B82F6"/>
<path id="Vector_36" opacity="0.08" d="M18.9081 11.146C19.232 11.3352 19.6062 11.4236 19.9804 11.3977V13.515C19.7259 13.5137 19.4755 13.4388 19.2619 13.3014L4.31838 4.67438C4.03943 4.52062 3.91016 4.38455 3.91016 4.19813V2.48633L18.9081 11.146Z" fill="#3B82F6"/>
<path id="Vector_37" opacity="0.04" d="M18.9095 9.25675C19.2333 9.44725 19.6075 9.53569 19.9817 9.50848V11.6244C19.7273 11.6244 19.4769 11.5496 19.2633 11.4108L4.31838 2.78103C4.03943 2.62727 3.91016 2.49256 3.91016 2.30614V0.595703L18.9095 9.25675Z" fill="#3B82F6"/>
</g>
</g>
</g>
<g id="freepik--Brain--inject-245">
<g id="freepik--brain--inject-245">
<path id="Vector_38" d="M30.8634 17.0449C30.8634 17.0449 31.3179 17.4981 30.9995 18.3363C30.696 19.1527 29.7027 19.2888 29.7027 19.2888C29.7027 19.2888 29.8388 20.6237 27.6725 20.7856C27.682 20.693 27.682 20.5978 27.6725 20.5053C27.6725 20.5053 28.6672 20.4658 28.6821 18.9214C28.6971 17.3769 27.5391 17.1388 27.5391 17.1388C27.7881 16.7755 27.8548 16.3169 27.7187 15.8978C27.4357 15.0515 26.837 15.1413 26.837 15.1413C26.837 15.1413 27.2711 14.8229 27.0806 14.0336C26.9037 13.3002 26.3526 13.205 26.3526 13.205C26.3526 13.205 26.7608 12.4756 26.0165 11.4904C25.2721 10.5053 24.5074 10.6577 24.5074 10.6577C24.4816 10.1719 24.2951 9.70788 23.9795 9.33776C23.4501 8.72135 22.6187 8.80844 22.6187 8.80844C22.6364 8.17842 22.3765 7.57289 21.9084 7.15107C21.1165 6.40267 20.3218 6.43669 20.3218 6.43669C20.3449 6.00125 20.1436 5.58487 19.787 5.33313C19.3788 5.01472 18.8332 4.93716 18.3528 5.12766C18.3528 5.12766 18.2168 4.15882 17.3786 3.97377C16.2832 3.73428 15.7457 4.38198 15.7457 4.38198C15.7457 4.38198 15.381 3.90165 14.5469 3.76557C14.8517 3.36552 15.2245 3.02262 15.6491 2.75183C16.6356 2.14767 18.1297 2.53275 18.1297 2.53275C18.5066 2.25925 18.9692 2.1327 19.4333 2.17352C19.885 2.2089 20.2946 2.44839 20.5477 2.82395C20.5477 2.82395 21.0049 2.48649 22.1125 2.5518C23.2202 2.61712 23.4855 3.49071 23.4855 3.49071C24.0325 3.47574 24.57 3.62678 25.0286 3.92478C25.845 4.43233 25.845 5.51683 25.845 5.51683C25.845 5.51683 26.8343 5.24469 27.701 6.14413C28.5678 7.04357 28.1855 7.88042 28.1855 7.88042C29.2632 7.97703 30.0578 8.92818 29.9599 10.0059C29.9354 10.2739 29.8564 10.5352 29.7272 10.772C29.9844 10.8536 30.1885 11.0496 30.281 11.3027C30.4497 11.7367 30.281 12.0021 30.281 12.0021C30.281 12.0021 31.1233 12.3613 31.3424 13.2539C31.5614 14.1466 31.1233 14.6759 31.1233 14.6759C31.571 14.9317 31.8404 15.4148 31.8227 15.9305C31.8268 16.8531 30.8634 17.0449 30.8634 17.0449Z" fill="#3B82F6"/>
<path id="Vector_39" opacity="0.05" d="M30.8634 17.0449C30.8634 17.0449 31.3179 17.4981 30.9995 18.3363C30.696 19.1527 29.7027 19.2888 29.7027 19.2888C29.7027 19.2888 29.8388 20.6237 27.6725 20.7856C27.682 20.693 27.682 20.5978 27.6725 20.5053C27.6725 20.5053 28.6672 20.4658 28.6821 18.9214C28.6971 17.3769 27.5391 17.1388 27.5391 17.1388C27.7881 16.7755 27.8548 16.3169 27.7187 15.8978C27.4357 15.0515 26.837 15.1413 26.837 15.1413C26.837 15.1413 27.2711 14.8229 27.0806 14.0336C26.9037 13.3002 26.3526 13.205 26.3526 13.205C26.3526 13.205 26.7608 12.4756 26.0165 11.4904C25.2721 10.5053 24.5074 10.6577 24.5074 10.6577C24.4816 10.1719 24.2951 9.70788 23.9795 9.33776C23.4501 8.72135 22.6187 8.80844 22.6187 8.80844C22.6364 8.17842 22.3765 7.57289 21.9084 7.15107C21.1165 6.40267 20.3218 6.43669 20.3218 6.43669C20.3449 6.00125 20.1436 5.58487 19.787 5.33313C19.3788 5.01472 18.8332 4.93716 18.3528 5.12766C18.3528 5.12766 18.2168 4.15882 17.3786 3.97377C16.2832 3.73428 15.7457 4.38198 15.7457 4.38198C15.6423 4.26088 15.5198 4.1561 15.3824 4.0731C15.3592 4.05813 15.3388 4.04588 15.313 4.03228C15.0776 3.89348 14.8177 3.80095 14.5469 3.76013C14.8517 3.36144 15.2259 3.01989 15.6491 2.75183C16.6356 2.14767 18.1297 2.53275 18.1297 2.53275C18.5066 2.25925 18.9692 2.1327 19.4333 2.17352C19.885 2.2089 20.2946 2.44839 20.5477 2.82395C20.5477 2.82395 21.0049 2.48649 22.1125 2.5518C23.2202 2.61712 23.4855 3.49071 23.4855 3.49071C24.0325 3.47574 24.57 3.62678 25.0286 3.92478C25.845 4.43233 25.845 5.51683 25.845 5.51683C25.845 5.51683 26.8343 5.24469 27.701 6.14413C28.5678 7.04357 28.1855 7.88042 28.1855 7.88042C29.2632 7.97703 30.0578 8.92818 29.9599 10.0059C29.9354 10.2739 29.8564 10.5352 29.7272 10.772C29.9844 10.8536 30.1885 11.0496 30.281 11.3027C30.4497 11.7367 30.281 12.0021 30.281 12.0021C30.281 12.0021 31.1233 12.3613 31.3424 13.2539C31.5614 14.1466 31.1233 14.6759 31.1233 14.6759C31.571 14.9317 31.8404 15.4148 31.8227 15.9305C31.8268 16.8531 30.8634 17.0449 30.8634 17.0449Z" fill="black"/>
<path id="Vector_40" opacity="0.2" d="M27.9049 17.0021C28.0682 16.6279 28.0886 16.2047 27.9593 15.8169C27.7974 15.3339 27.5253 15.0849 27.2708 14.9678C27.4014 14.6521 27.4218 14.3024 27.328 13.9745C27.2545 13.588 27.015 13.2547 26.6734 13.0601C26.7565 12.7172 26.7837 12.0844 26.2176 11.336C25.6515 10.5876 25.0719 10.4284 24.7358 10.3985C24.6623 9.94674 24.4677 9.52355 24.1711 9.17384C23.8363 8.80236 23.3655 8.58057 22.8661 8.55743C22.8131 7.94919 22.5355 7.38176 22.0878 6.96674C21.6755 6.56124 21.1475 6.29318 20.576 6.20065C20.5257 5.77066 20.2957 5.38149 19.9433 5.12976C19.5446 4.82223 19.033 4.70521 18.5404 4.80726C18.422 4.45211 18.1322 3.87924 17.4355 3.72684C16.5945 3.54178 16.0339 3.82346 15.755 4.03165C15.461 3.78535 15.11 3.61662 14.7344 3.53906C14.6038 3.68602 14.4827 3.83978 14.3711 4.00035C15.1685 4.08608 15.5195 4.51471 15.5386 4.54464C15.5862 4.60587 15.6583 4.64261 15.7359 4.64534C15.8135 4.6467 15.8869 4.6154 15.9387 4.55689C15.9577 4.53512 16.4081 4.03165 17.3252 4.2344C17.9757 4.37047 18.0981 5.14064 18.1022 5.17194C18.124 5.31345 18.2573 5.41143 18.3989 5.38965C18.422 5.38557 18.4438 5.37877 18.4655 5.36924C18.8601 5.2182 19.3065 5.28624 19.6371 5.54886C19.9201 5.7448 20.0834 6.07138 20.0712 6.41564C20.063 6.48912 20.0875 6.56396 20.1379 6.61839C20.1855 6.6769 20.259 6.7082 20.3352 6.70276C20.361 6.70276 21.04 6.69051 21.7354 7.34638C22.1422 7.7165 22.3695 8.24446 22.3572 8.7942C22.3504 8.8704 22.3763 8.9466 22.4307 9.00103C22.4851 9.05546 22.5613 9.08267 22.6389 9.07587C22.6457 9.07587 23.3505 9.01328 23.7805 9.51403C24.0554 9.83924 24.2173 10.242 24.2459 10.6666C24.2459 10.7428 24.2813 10.8135 24.3398 10.8625C24.3983 10.9101 24.4745 10.9319 24.5493 10.9197C24.5752 10.9197 25.1794 10.8258 25.808 11.6545C26.4367 12.4831 26.1373 13.0696 26.1251 13.0914C26.0856 13.1635 26.0843 13.2492 26.1183 13.3241C26.1536 13.3989 26.2217 13.4533 26.3033 13.4697C26.3197 13.4697 26.6966 13.5554 26.8272 14.1038C26.9714 14.7011 26.6911 14.9365 26.6816 14.9433C26.5877 15.0114 26.5537 15.1352 26.5972 15.2427C26.6408 15.3529 26.7524 15.4196 26.8694 15.406C26.9089 15.406 27.2776 15.3842 27.4736 15.987C27.5865 16.3258 27.5362 16.6973 27.3375 16.994C27.2844 17.0647 27.2708 17.1559 27.3007 17.2389C27.332 17.3205 27.4014 17.3818 27.4872 17.4022C27.5266 17.4103 28.4397 17.6281 28.4288 18.9289C28.4152 20.1917 27.6913 20.2556 27.6641 20.2583C27.5212 20.2665 27.411 20.389 27.4178 20.5319C27.4178 20.5387 27.4178 20.5468 27.4205 20.5536C27.4259 20.6203 27.4259 20.687 27.4205 20.7536C27.5021 20.7849 27.5879 20.7986 27.6749 20.7958C27.7661 20.7958 27.8491 20.7768 27.9335 20.7659V20.7155C28.2968 20.5904 28.9214 20.1917 28.935 18.9344C28.9499 17.8104 28.3757 17.2362 27.9049 17.0021Z" fill="black"/>
<path id="Vector_41" d="M27.6682 20.5071C27.6682 20.5071 28.6629 20.4676 28.6793 18.9232C28.6956 17.3787 27.5349 17.142 27.5349 17.142C27.7839 16.7773 27.8492 16.3174 27.7131 15.8983C27.4328 15.0533 26.8328 15.1431 26.8328 15.1431C26.8328 15.1431 27.2668 14.8246 27.0763 14.0354C26.8994 13.3006 26.3483 13.2081 26.3483 13.2081C26.3483 13.2081 26.7566 12.476 26.0109 11.4909C25.2652 10.5057 24.5018 10.6581 24.5018 10.6581C24.4746 10.1723 24.2909 9.70831 23.9752 9.33819C23.4473 8.72314 22.6145 8.81159 22.6145 8.81159C22.6335 8.18293 22.3777 7.57604 21.9137 7.1515C21.1218 6.4031 20.3285 6.43711 20.3285 6.43711C20.3502 6.00168 20.1489 5.5853 19.7923 5.33356C19.3855 5.01515 18.8398 4.93759 18.3595 5.12809C18.3595 5.12809 18.2234 4.15925 17.3825 3.97419C16.2939 3.73334 15.7496 4.38241 15.7496 4.38241C15.7496 4.38241 15.0094 3.40269 13.2268 3.83812C11.73 4.20143 11.6239 5.31995 11.6239 5.31995C11.6239 5.31995 10.089 5.03284 9.38548 6.08741C8.68198 7.14197 8.90106 8.50542 8.90106 8.50542C8.90106 8.50542 8.02203 9.12183 8.06557 10.0444C8.07646 10.5601 8.22886 11.0622 8.50645 11.4963C8.50645 11.4963 7.62606 12.9931 8.24247 14.2178C8.58265 14.9321 9.20314 15.4751 9.95699 15.7146C9.95699 15.7146 9.95699 17.0331 10.572 17.6931C11.1871 18.353 12.2866 18.3081 12.2866 18.3081C12.4879 18.9 12.9139 19.3899 13.4745 19.6688C14.397 20.1084 15.3645 19.7559 15.3645 19.7559C15.653 20.1043 16.034 20.3642 16.464 20.5043C17.1675 20.7234 18.0465 20.5043 18.0465 20.5043C18.1282 20.9765 18.4983 21.3453 18.9705 21.4269C19.8059 21.6024 20.2455 21.0758 20.2455 21.0758C20.2455 21.0758 20.5094 21.6473 21.1245 21.6909C21.4824 21.7208 21.8362 21.5929 22.092 21.3398C22.092 21.3398 22.4444 22.4379 23.8949 22.4828C25.3455 22.5277 25.702 21.9004 25.702 21.9004C25.702 21.9004 26.4014 22.3957 27.1049 21.8678C27.5172 21.5426 27.7295 21.0282 27.6682 20.5071Z" fill="#3B82F6"/>
<path id="Vector_42" opacity="0.2" d="M27.6682 20.5071C27.6682 20.5071 28.6629 20.4676 28.6793 18.9232C28.6956 17.3787 27.5349 17.142 27.5349 17.142C27.7839 16.7773 27.8492 16.3174 27.7131 15.8983C27.4328 15.0533 26.8328 15.1431 26.8328 15.1431C26.8328 15.1431 27.2668 14.8246 27.0763 14.0354C26.8994 13.3006 26.3483 13.2081 26.3483 13.2081C26.3483 13.2081 26.7566 12.476 26.0109 11.4909C25.2652 10.5057 24.5018 10.6581 24.5018 10.6581C24.4746 10.1723 24.2909 9.70831 23.9752 9.33819C23.4473 8.72314 22.6145 8.81159 22.6145 8.81159C22.6335 8.18293 22.3777 7.57604 21.9137 7.1515C21.1218 6.4031 20.3285 6.43711 20.3285 6.43711C20.3502 6.00168 20.1489 5.5853 19.7923 5.33356C19.3855 5.01515 18.8398 4.93759 18.3595 5.12809C18.3595 5.12809 18.2234 4.15925 17.3825 3.97419C16.2939 3.73334 15.7496 4.38241 15.7496 4.38241C15.7496 4.38241 15.0094 3.40269 13.2268 3.83812C11.73 4.20143 11.6239 5.31995 11.6239 5.31995C11.6239 5.31995 10.089 5.03284 9.38548 6.08741C8.68198 7.14197 8.90106 8.50542 8.90106 8.50542C8.90106 8.50542 8.02203 9.12183 8.06557 10.0444C8.07646 10.5601 8.22886 11.0622 8.50645 11.4963C8.50645 11.4963 7.62606 12.9931 8.24247 14.2178C8.58265 14.9321 9.20314 15.4751 9.95699 15.7146C9.95699 15.7146 9.95699 17.0331 10.572 17.6931C11.1871 18.353 12.2866 18.3081 12.2866 18.3081C12.4879 18.9 12.9139 19.3899 13.4745 19.6688C14.397 20.1084 15.3645 19.7559 15.3645 19.7559C15.653 20.1043 16.034 20.3642 16.464 20.5043C17.1675 20.7234 18.0465 20.5043 18.0465 20.5043C18.1282 20.9765 18.4983 21.3453 18.9705 21.4269C19.8059 21.6024 20.2455 21.0758 20.2455 21.0758C20.2455 21.0758 20.5094 21.6473 21.1245 21.6909C21.4824 21.7208 21.8362 21.5929 22.092 21.3398C22.092 21.3398 22.4444 22.4379 23.8949 22.4828C25.3455 22.5277 25.702 21.9004 25.702 21.9004C25.702 21.9004 26.4014 22.3957 27.1049 21.8678C27.5172 21.5426 27.7295 21.0282 27.6682 20.5071Z" fill="white"/>
<g id="Group_3" opacity="0.05">
<path id="Vector_43" d="M16.0746 7.95616C15.925 7.66496 15.7413 7.3901 15.5303 7.13972C15.3739 6.96147 15.1221 6.69749 14.8649 6.7315C14.7887 6.73967 14.8377 6.86758 14.8922 6.86758C15.1303 6.90976 15.3004 7.11251 15.4283 7.29893C15.5684 7.50168 15.6936 7.71259 15.8039 7.93167C16.1141 8.50453 16.2924 9.13999 16.325 9.79042C16.3468 10.3347 16.2134 10.8913 15.6923 11.1607C15.0813 11.4764 14.2921 11.2763 13.7165 10.9824C13.2253 10.7538 12.881 10.2939 12.8007 9.75777C12.7912 9.68973 12.6851 9.63258 12.6878 9.73191C12.6823 10.0258 12.7558 10.3157 12.9001 10.5715C13.0579 10.8096 13.2729 11.0042 13.5246 11.1389C14.1152 11.4845 14.8309 11.6832 15.5099 11.5077C17.1006 11.1022 16.6448 9.01345 16.0746 7.95616Z" fill="black"/>
<path id="Vector_44" d="M14.352 8.79936C14.3275 8.57756 14.2527 8.36393 14.1329 8.17615C14.0173 7.98564 13.8703 7.81555 13.6988 7.67268C13.5301 7.51755 13.3301 7.40053 13.111 7.33113C13.0171 7.30664 13.0239 7.43863 13.0811 7.47537C13.258 7.57198 13.4253 7.68356 13.5832 7.81011C13.7301 7.94346 13.8553 8.09995 13.9519 8.27276C14.0417 8.43877 14.0962 8.61974 14.1125 8.80753C14.1207 8.90822 14.1166 9.00891 14.103 9.10825C14.0894 9.2035 14.0649 9.29331 14.0499 9.38856C14.0431 9.4321 14.0989 9.52463 14.1479 9.47564C14.3084 9.28922 14.3833 9.04293 14.352 8.79936Z" fill="black"/>
<path id="Vector_45" d="M15.127 5.59912C14.6439 5.46849 14.1418 5.42358 13.6424 5.46304C13.1716 5.49842 12.7171 5.65763 12.3266 5.92433C11.634 6.3829 11.1142 7.06462 10.9836 7.89603C10.9114 8.3546 10.872 8.92882 11.2775 9.25676C11.3265 9.29486 11.4135 9.27309 11.3877 9.19825C11.2761 8.94107 11.2217 8.66212 11.2298 8.38181C11.2435 8.14232 11.2788 7.90555 11.3387 7.67423C11.4748 7.20342 11.7415 6.78159 12.1089 6.45774C12.4885 6.08354 12.9675 5.82772 13.49 5.72022C13.7649 5.68212 14.0438 5.67396 14.3201 5.69981C14.5949 5.73791 14.8725 5.75152 15.1501 5.73927C15.2249 5.73519 15.1746 5.61272 15.127 5.59912Z" fill="black"/>
<path id="Vector_46" d="M12.0362 10.7246C11.6198 10.0565 10.8306 9.5231 10.0291 9.53943C9.40048 9.55167 8.43164 9.90274 8.52145 10.6879C8.57996 11.0825 8.80176 11.4336 9.13378 11.6554C9.28482 11.7533 9.47668 11.7642 9.63861 11.6839C9.82639 11.5764 9.84544 11.3397 9.89579 11.1533C9.90395 11.1233 9.86993 11.0566 9.83591 11.0934C9.68079 11.2594 9.52975 11.6676 9.24264 11.4649C9.01403 11.2866 8.85619 11.0349 8.7936 10.7518C8.68066 10.1463 9.38007 9.85376 9.86177 9.78572C10.5326 9.68911 11.149 10.0429 11.5858 10.5287C11.8688 10.8444 12.2417 11.4989 11.7818 11.8255C11.6307 11.9343 11.4429 11.9779 11.2592 11.9479C11.047 11.9071 11.0266 11.7438 10.9871 11.5588C10.9667 11.4676 10.802 11.4295 10.7707 11.5302C10.7041 11.7588 10.8129 12.0023 11.0279 12.1058C11.2443 12.2065 11.4906 12.2187 11.7151 12.1384C11.9437 12.0745 12.1328 11.9112 12.2294 11.6935C12.3492 11.3791 12.2036 10.994 12.0362 10.7246Z" fill="black"/>
<path id="Vector_47" d="M18.2199 18.3338C17.8688 17.6534 17.2129 17.1921 16.538 16.8791C16.4251 16.8274 16.3121 16.7785 16.1978 16.7336C16.3312 16.6138 16.4469 16.4764 16.5421 16.3253C16.7408 16.0273 16.8918 15.7008 16.9898 15.3565C17.0959 15.0218 17.0497 14.6584 16.8619 14.3618C16.7653 14.2148 16.6346 14.0937 16.4795 14.0107C16.3258 13.9291 16.0645 13.8393 15.8944 13.9168C15.8264 13.9481 15.9026 14.0529 15.9475 14.0597C16.123 14.1019 16.2768 14.1033 16.4305 14.2135C16.5612 14.3101 16.6578 14.4434 16.7095 14.5972C16.787 14.8557 16.7762 15.1333 16.6768 15.3851C16.5829 15.664 16.4537 15.9307 16.2917 16.177C16.2142 16.2968 16.123 16.4056 16.0196 16.5036C15.9706 16.5458 15.9162 16.5811 15.8577 16.6111C15.278 16.4083 14.6793 16.2573 14.0887 16.0668C13.2383 15.7946 12.4558 15.3769 11.8598 14.7061C11.487 14.3155 11.2298 13.8311 11.1155 13.3032C11.0774 13.0827 11.0638 12.8582 11.0747 12.635C11.0829 12.4527 11.0978 12.2118 11.2325 12.0731C11.2965 12.0064 11.174 11.8717 11.0965 11.9207C10.8148 12.103 10.8243 12.5561 10.8243 12.8541C10.8202 13.3249 10.9359 13.7889 11.1618 14.2026C11.6217 15 12.317 15.6382 13.1512 16.0273C14.5636 16.7077 16.3611 16.7172 17.5055 17.9038C17.813 18.2045 18.0239 18.5882 18.1138 19.0087C18.16 19.2373 18.16 19.4741 18.1138 19.7027C18.0661 19.919 17.9287 20.0741 17.8593 20.2755C17.8402 20.3286 17.9164 20.4238 17.9736 20.3953C18.307 20.2361 18.424 19.7843 18.4485 19.4428C18.473 19.059 18.3941 18.6767 18.2199 18.3338Z" fill="black"/>
<path id="Vector_48" d="M16.4405 18.4124C16.0541 18.1335 15.5819 18.0641 15.1288 17.9606C14.6757 17.8572 14.2212 17.7647 13.7762 17.63C13.5544 17.5633 13.3367 17.4844 13.1244 17.3919C12.8196 17.2558 12.5543 17.0612 12.2549 16.9265C12.2236 16.9088 12.1842 16.9197 12.1651 16.9496C12.1542 16.9687 12.1529 16.9918 12.1638 17.0122C12.2536 17.2041 12.4835 17.3456 12.6591 17.4531C12.8346 17.5606 13.0197 17.6504 13.2115 17.7252C13.617 17.879 14.0334 18.0015 14.458 18.0913C14.9669 18.2083 15.5193 18.2668 16.0092 18.4478C16.1602 18.5036 16.3017 18.5825 16.4297 18.6791C16.5848 18.7934 16.812 18.9717 16.8283 19.1771C16.8283 19.2438 16.9481 19.305 16.9644 19.2112C17.0052 18.8683 16.6977 18.5988 16.4405 18.4124Z" fill="black"/>
<path id="Vector_49" d="M10.2676 14.65C10.1302 14.3969 9.9533 14.1669 9.74375 13.9696C9.4716 13.6716 9.27157 13.3586 9.27293 12.9355C9.2811 12.7123 9.30967 12.4919 9.35866 12.2741C9.40084 12.0496 9.47296 11.7911 9.38451 11.572C9.36955 11.5339 9.31512 11.5026 9.28926 11.5475C9.24572 11.6523 9.21851 11.7639 9.21034 11.8782C9.19265 11.9816 9.1736 12.0823 9.15319 12.1843C9.10829 12.3844 9.07427 12.5885 9.05522 12.7926C9.02664 13.1627 9.13686 13.5301 9.3641 13.824C9.53692 14.0499 9.75055 14.239 9.92064 14.4676C10.0009 14.5697 10.0608 14.6867 10.0935 14.8119C10.1424 15.0242 10.0703 15.2201 10.0227 15.427C10.0227 15.4582 10.0485 15.5521 10.0935 15.5113C10.3329 15.2922 10.4037 14.9439 10.2676 14.65Z" fill="black"/>
<path id="Vector_50" d="M26.0772 13.3834C25.8717 13.4501 25.6744 13.5412 25.4894 13.6555C25.2757 13.7589 25.0458 13.8229 24.809 13.842C24.3872 13.8746 23.9776 13.7372 23.5571 13.7399C23.1843 13.7358 22.8291 13.8937 22.5815 14.1712C22.4876 14.2719 22.406 14.3835 22.3393 14.5046C22.2549 14.4107 22.1665 14.3182 22.0739 14.2325C21.727 13.9086 21.3174 13.6583 20.8711 13.4977C20.3703 13.3371 19.8546 13.2296 19.3321 13.1779C18.8613 13.1153 18.4054 13.0554 17.9713 12.8391C17.6148 12.6595 17.1998 12.4077 17.0923 11.9941C17.0733 11.9247 16.9562 11.9029 16.9698 11.9941C16.9998 12.3506 17.2665 12.62 17.5345 12.8296C17.8298 13.0595 18.1714 13.2242 18.536 13.3126C19.4886 13.5371 20.5037 13.5113 21.3487 14.0651C22.0862 14.5291 22.5965 15.2802 22.757 16.1361C22.8836 16.8532 22.9394 17.7486 22.3733 18.2983C21.9719 18.6712 21.5215 18.9896 21.0343 19.2413C20.9214 19.3026 20.7976 19.3774 20.6778 19.4522C20.7432 19.2386 20.7867 19.0195 20.8071 18.7964C20.8602 18.3419 20.8207 17.882 20.6928 17.4438C20.5595 17.0301 20.3404 16.6491 20.0492 16.3266C19.7063 15.9429 19.279 15.6898 18.8681 15.3877C18.6218 15.2149 18.4054 15.004 18.2244 14.7632C18.0203 14.491 17.8502 14.1781 17.6693 13.8855C17.6339 13.8283 17.5931 13.9032 17.6121 13.9454C17.8189 14.4053 18.0203 14.8679 18.3673 15.2435C18.7143 15.6191 19.1579 15.8626 19.5307 16.196C20.1744 16.773 20.5431 17.5962 20.5431 18.4616C20.5499 18.7365 20.5186 19.0114 20.4479 19.2781C20.3989 19.459 20.324 19.6319 20.2696 19.8101C20.1744 19.9217 20.1104 20.0578 20.0846 20.202C20.0737 20.27 20.1907 20.3748 20.2465 20.3054C20.3866 20.119 20.5472 19.9489 20.7255 19.7979C20.8969 19.6713 21.0793 19.5611 21.2698 19.4658C21.7093 19.2345 22.1202 18.9529 22.4944 18.6249C22.7979 18.3745 23.0142 18.033 23.1095 17.6506C23.1925 17.2642 23.2088 16.8655 23.1571 16.4736C23.1271 16.0776 23.036 15.6898 22.8849 15.3224C22.8006 15.1414 22.6999 14.97 22.5829 14.8081C22.6033 14.7319 22.6318 14.6584 22.6672 14.5876C22.7502 14.4543 22.8536 14.3345 22.9761 14.2352C23.2605 13.9984 23.6361 14.0216 23.9817 14.0678C24.379 14.1223 24.7736 14.1767 25.1682 14.0678C25.3628 14.0161 25.5506 13.9386 25.7261 13.8406C25.8935 13.7617 26.0446 13.6514 26.1711 13.5154C26.2051 13.4664 26.1384 13.3698 26.0772 13.3834Z" fill="black"/>
<path id="Vector_51" d="M24.8317 11.8942C24.599 11.3431 23.9935 11.1104 23.471 10.924C22.8804 10.7362 22.3143 10.4777 21.7864 10.1525C21.5401 9.99327 21.3183 9.79733 21.1319 9.57145C20.8597 9.20541 20.6951 8.76998 20.6556 8.31549C20.6461 8.24201 20.4774 8.16581 20.4583 8.26787C20.2474 9.40135 21.1822 10.2164 22.0912 10.6818C22.5797 10.9322 23.0981 11.09 23.6084 11.2805C24.0234 11.4397 24.6698 11.7595 24.5786 12.312C24.535 12.5841 24.2874 12.6644 24.0547 12.7202C23.7417 12.7868 23.422 12.8127 23.1022 12.7991C22.4409 12.7651 21.7864 12.6603 21.1482 12.4834C19.963 12.1827 18.9438 11.4248 18.3138 10.377C17.9573 9.77011 17.7518 9.08703 17.7123 8.38489C17.6919 8.03518 17.711 7.68547 17.7668 7.33985C17.828 6.93163 17.9029 6.48803 18.141 6.13833C18.1559 6.11519 18.141 6.0458 18.1029 6.07573C17.8988 6.29617 17.7641 6.57104 17.711 6.86632C17.6307 7.17248 17.5722 7.48273 17.5327 7.79705C17.447 8.49647 17.53 9.20541 17.7777 9.86536C18.2526 11.041 19.1683 11.984 20.329 12.4929C20.9332 12.7297 21.5632 12.893 22.2068 12.9774C22.8872 13.0862 23.6057 13.1338 24.2751 12.9488C24.5146 12.9025 24.7228 12.7528 24.8426 12.5406C24.9324 12.3337 24.9283 12.0983 24.8317 11.8942Z" fill="black"/>
<path id="Vector_52" d="M22.5864 11.8104C22.3442 11.7273 22.0802 11.7015 21.8353 11.6212C21.5849 11.545 21.3413 11.4498 21.1046 11.3368C20.6787 11.1218 20.3031 10.8184 20.0051 10.4455C19.6676 10.0428 19.4336 9.56379 19.3207 9.05079C19.2213 8.5065 19.371 7.98398 19.4009 7.44513C19.4009 7.40023 19.3247 7.29001 19.2921 7.37029C19.0403 7.95405 18.9601 8.59767 19.0635 9.22497C19.1887 9.75429 19.4404 10.2455 19.7983 10.6565C20.1248 11.062 20.5453 11.3817 21.0229 11.5872C21.2869 11.6933 21.5604 11.775 21.8394 11.8335C22.068 11.8825 22.3837 11.9791 22.6136 11.9124C22.6504 11.9002 22.6286 11.8226 22.5864 11.8104Z" fill="black"/>
<path id="Vector_53" d="M26.6806 16.279C26.1621 15.7946 25.226 15.6504 25.0613 14.8489C25.0504 14.7999 24.9565 14.7469 24.9484 14.8244C24.8899 15.4925 25.6832 15.913 26.1649 16.2056C26.4601 16.3702 26.6915 16.6315 26.8194 16.9444C26.9772 17.3323 26.9214 17.6956 26.7881 18.0779C26.7731 18.1242 26.8262 18.1977 26.8738 18.165C27.5215 17.7173 27.1378 16.7063 26.6806 16.279Z" fill="black"/>
<path id="Vector_54" d="M27.8653 19.1907C27.5863 19.4397 27.3101 19.6302 26.9264 19.6465C26.5998 19.6561 26.2773 19.5771 25.9902 19.4207C25.6759 19.2791 25.4554 18.9866 25.4051 18.6464C25.3792 18.4437 25.3901 18.2368 25.4404 18.0382C25.499 17.8449 25.5411 17.6463 25.5643 17.4462L25.5915 17.4667C25.7534 17.6177 25.8827 17.8 25.9711 18.0028C25.9875 18.0314 26.0555 18.0735 26.08 18.0273C26.197 17.8082 26.0269 17.5728 25.8718 17.4204C25.7031 17.2612 25.5166 17.1251 25.3139 17.0122C25.0867 16.8843 24.8676 16.74 24.6594 16.5822C24.5546 16.4992 24.4566 16.408 24.3655 16.31C24.2294 16.1672 24.1301 16.0039 24.0049 15.8569C23.9817 15.8297 23.9518 15.8569 23.9532 15.8868C23.9681 16.1467 24.1927 16.4026 24.3682 16.5767C24.5723 16.7713 24.7968 16.9414 25.039 17.0843C25.1465 17.1496 25.2527 17.2204 25.3574 17.287C25.3343 17.302 25.3193 17.3251 25.3139 17.3524C25.2744 17.5537 25.1982 17.747 25.1465 17.9443C25.0962 18.1307 25.0758 18.3253 25.0853 18.5185C25.0853 18.8315 25.2078 19.1335 25.4268 19.3581C25.899 19.7813 26.5358 19.9718 27.1631 19.8779C27.3264 19.852 27.4829 19.7949 27.6258 19.7105C27.8 19.6207 27.9251 19.4574 27.97 19.2669C27.9823 19.2206 27.9143 19.1417 27.8653 19.1907Z" fill="black"/>
<path id="Vector_55" d="M25.809 21.3448C25.7967 21.2509 25.7695 21.1583 25.7287 21.0726C25.6457 20.8876 25.5423 20.7134 25.4198 20.5528C25.2892 20.3909 25.1259 20.2589 24.9395 20.1664C24.8469 20.1174 24.7503 20.0766 24.6496 20.0453L24.5911 20.0262C24.6251 19.9391 24.6455 19.848 24.6523 19.7541C24.6646 19.4601 24.6279 19.1649 24.5435 18.8832C24.4659 18.6043 24.3407 18.3158 24.0618 18.1879C23.9502 18.1362 23.9448 18.2967 24.0223 18.3457C24.1421 18.4206 24.2033 18.6505 24.2441 18.7757C24.2958 18.9376 24.3326 19.105 24.353 19.2751C24.3829 19.5227 24.4061 19.7908 24.2931 20.014C24.2809 20.0221 24.2741 20.0357 24.2741 20.0493C24.2605 20.0752 24.2441 20.0997 24.2278 20.1228C24.0046 20.4086 23.6332 20.531 23.3188 20.6889C23.0045 20.8467 22.6575 21.0291 22.6099 21.4019C22.6017 21.4604 22.6929 21.5448 22.746 21.4836C22.9582 21.2237 23.2277 21.0155 23.5325 20.8767C23.8182 20.7637 24.0876 20.61 24.3299 20.4208C24.3911 20.365 24.4469 20.3011 24.4931 20.2317H24.5149L24.6306 20.2671C24.7081 20.2929 24.783 20.3242 24.8551 20.361C24.9952 20.4317 25.1191 20.531 25.2198 20.6508C25.2973 20.7488 25.3667 20.8522 25.4307 20.9597C25.4769 21.0345 25.5191 21.1121 25.5559 21.1924C25.5912 21.2631 25.6225 21.3366 25.6484 21.4114C25.6593 21.4563 25.6756 21.4985 25.6974 21.5393C25.7083 21.5543 25.73 21.5802 25.7518 21.5693C25.8294 21.5325 25.8158 21.4169 25.809 21.3448Z" fill="black"/>
<path id="Vector_56" d="M23.538 18.6096C23.538 18.566 23.4726 18.5157 23.459 18.5851C23.4223 18.8273 23.3148 19.0518 23.1488 19.2328C22.9828 19.3961 22.8004 19.5417 22.6045 19.6669C22.4113 19.792 22.233 19.9376 22.0738 20.1023C21.9908 20.188 21.9241 20.2874 21.8751 20.3962C21.8275 20.5092 21.8194 20.6357 21.8506 20.7541C21.8506 20.7786 21.8956 20.8466 21.9282 20.8099C22.0194 20.6888 22.101 20.5622 22.1731 20.4289C22.2344 20.3323 22.3079 20.2452 22.3909 20.1662C22.5514 20.0261 22.7215 19.8955 22.8998 19.7784C23.0944 19.6546 23.2631 19.494 23.3978 19.3076C23.5257 19.0994 23.5761 18.8518 23.538 18.6096Z" fill="black"/>
<path id="Vector_57" d="M16.5527 13.0338C16.3649 12.944 16.1649 12.8869 15.958 12.8624C15.3607 12.7862 14.7551 12.8188 14.1687 12.9576C13.6938 13.0502 13.2311 13.1985 12.7903 13.3985C12.5603 13.5033 12.3426 13.6339 12.1412 13.7877C12.0051 13.8925 11.733 14.087 11.8105 14.2844C11.8228 14.3156 11.8595 14.3592 11.8976 14.3483C12.0949 14.2912 12.2473 14.0762 12.412 13.9591C12.5861 13.8339 12.7712 13.7278 12.9672 13.6407C13.3536 13.4666 13.7577 13.3346 14.1728 13.2448C14.6803 13.1196 15.2028 13.0638 15.7253 13.0787C15.905 13.0855 16.0846 13.1073 16.2615 13.1413C16.4356 13.1808 16.5976 13.257 16.7377 13.3672C16.7541 13.3795 16.7772 13.3781 16.7894 13.3618C16.7894 13.3618 16.7908 13.3591 16.7922 13.3577C16.8548 13.2039 16.6629 13.0924 16.5527 13.0338Z" fill="black"/>
<path id="Vector_58" d="M13.6954 11.7967C13.6165 11.8389 13.5458 11.8947 13.4872 11.9628C13.411 12.0362 13.3335 12.0988 13.2532 12.1723C13.0899 12.307 12.9089 12.4213 12.7171 12.5125C12.5347 12.5969 12.3429 12.6581 12.1442 12.6921C12.0517 12.7071 11.9578 12.7166 11.8639 12.722C11.7727 12.7152 11.6802 12.722 11.5918 12.7438C11.5237 12.7683 11.5618 12.8608 11.6067 12.8881C11.7836 12.9955 12.0666 12.9534 12.2599 12.9207C12.4776 12.8812 12.6885 12.8119 12.8858 12.7112C13.079 12.6145 13.2586 12.4934 13.4219 12.3533C13.5049 12.2812 13.5825 12.2036 13.6533 12.1192C13.724 12.0566 13.7676 11.9696 13.7757 11.8757C13.7825 11.8348 13.7403 11.7777 13.6954 11.7967Z" fill="black"/>
</g>
<g id="Group_4" opacity="0.05">
<path id="Vector_59" d="M23.7168 3.88219C23.6937 3.85634 23.6665 3.88219 23.6624 3.90668C23.6365 4.04276 23.6624 4.17883 23.6447 4.3149C23.6216 4.49724 23.5685 4.6755 23.4841 4.83878C23.3236 5.15583 23.0514 5.47833 22.7004 5.58719C21.8363 5.85933 21.0961 5.29191 20.4973 4.74081C20.4633 4.63059 20.4225 4.52309 20.3762 4.41696C20.2524 4.14481 20.0864 3.89172 19.885 3.66992C19.7013 3.45492 19.4999 3.25762 19.2822 3.07936C19.1706 2.98411 19.0468 2.90247 18.9148 2.83715C18.8087 2.7732 18.6862 2.74326 18.5624 2.75415C18.493 2.76911 18.527 2.87389 18.5814 2.89022C18.8019 2.96234 19.0005 3.08889 19.1597 3.25762C19.3407 3.42771 19.5108 3.61005 19.6687 3.80191C19.851 4.00738 20.0007 4.24006 20.1095 4.49316C20.1708 4.6442 20.2157 4.80204 20.2456 4.96261C20.2592 5.03473 20.2715 5.10685 20.2864 5.17761C20.3109 5.26741 20.3463 5.35314 20.3898 5.43478C20.4048 5.4688 20.4565 5.5069 20.481 5.46064C20.5327 5.35858 20.5572 5.247 20.5545 5.1327C20.7613 5.36947 21.0144 5.56133 21.2975 5.6974C21.7465 5.92192 22.2595 5.97772 22.7466 5.85661C23.129 5.74095 23.4515 5.48241 23.6461 5.13406C23.8624 4.76803 24.023 4.23734 23.7168 3.88219Z" fill="black"/>
<path id="Vector_60" d="M25.6037 6.7823C25.2989 6.55234 24.9084 6.34007 24.5151 6.35095C24.4376 6.35095 24.492 6.49519 24.5532 6.49927C24.8254 6.5224 25.1288 6.70202 25.3493 6.86259C25.533 6.99866 25.8187 7.22726 25.8119 7.48308C25.8051 7.84095 25.1914 7.89946 24.941 7.8913C24.4566 7.85864 23.9926 7.68447 23.6075 7.39055C23.4048 7.25312 23.2224 7.08983 23.0632 6.90341C22.8809 6.68297 22.8033 6.41763 22.6741 6.16589C22.6537 6.12779 22.5775 6.09241 22.5707 6.16589C22.5638 6.47614 22.6591 6.78094 22.8428 7.03132C22.9993 7.2572 23.1925 7.45586 23.4157 7.61643C23.8565 7.95797 24.3927 8.15392 24.9506 8.17977C25.3302 8.18794 26.0133 8.05459 26.1017 7.59738C26.1616 7.25856 25.8418 6.96328 25.6037 6.7823Z" fill="black"/>
<path id="Vector_61" d="M29.4476 10.5688C29.2857 10.5226 29.087 10.5852 28.9237 10.6097C28.7291 10.6396 28.5345 10.6723 28.3386 10.6927C27.9521 10.7389 27.5616 10.7226 27.1806 10.6423C26.8663 10.5729 26.5669 10.4505 26.2948 10.2804C25.9859 10.0681 25.711 9.81091 25.4783 9.51836C25.4361 9.47073 25.3763 9.49114 25.379 9.55509C25.4062 9.72927 25.4797 9.89392 25.5926 10.03C25.6947 10.1729 25.8185 10.2981 25.9587 10.4042C26.2567 10.6233 26.5955 10.7825 26.9534 10.8736C27.3589 10.9811 27.782 11.0165 28.1998 10.9771C28.4325 10.9553 28.6638 10.9199 28.8938 10.8736C29.0121 10.8519 29.1278 10.8233 29.2448 10.7974C29.3238 10.7798 29.4544 10.7743 29.502 10.6981C29.5251 10.6546 29.5102 10.6001 29.4666 10.577C29.4612 10.5743 29.4544 10.5716 29.4476 10.5688Z" fill="black"/>
<path id="Vector_62" d="M28.2402 8.59208C28.1572 8.59208 28.2239 8.72815 28.2715 8.73631C28.4878 8.79618 28.5532 9.25747 28.4579 9.43981C28.315 9.71196 27.8728 9.72284 27.6102 9.72556C27.1856 9.72828 26.7679 9.62079 26.3978 9.41123C26.0481 9.21121 25.7677 8.92137 25.4316 8.70366C25.3745 8.66828 25.3609 8.754 25.3895 8.78938C25.7052 9.16358 26.0331 9.54186 26.478 9.7555C26.9448 9.97185 27.4659 10.0467 27.9749 9.96913C28.311 9.91879 28.7192 9.77047 28.7532 9.37722C28.7899 9.06561 28.6117 8.57847 28.2402 8.59208Z" fill="black"/>
<path id="Vector_63" d="M29.8778 11.8644C29.8615 11.8549 29.8438 11.8481 29.8261 11.8413C29.8003 11.8331 29.7731 11.8263 29.7459 11.8209C29.6941 11.81 29.6424 11.8032 29.5907 11.8005C29.4764 11.795 29.3635 11.8032 29.2505 11.8223C28.9975 11.8644 28.7525 11.9379 28.5185 12.0427C28.3185 12.1243 28.1416 12.2536 28.0014 12.4169C27.8531 12.6332 27.7742 12.8891 27.7728 13.1503C27.7578 13.3272 27.7946 13.5055 27.8776 13.662C28.0191 13.9069 28.2763 14.0607 28.5579 14.0702C28.5811 14.0702 28.6042 14.0647 28.6246 14.0525C28.6505 14.0266 28.6559 13.9858 28.6382 13.9532C28.6192 13.9232 28.5947 13.8974 28.5647 13.877C28.4382 13.7885 28.3253 13.6797 28.2314 13.5572C27.9769 13.1599 28.0939 12.6332 28.4899 12.3788C28.494 12.3761 28.4981 12.3734 28.5035 12.3706C28.7171 12.2522 28.9457 12.1638 29.1839 12.1066C29.4383 12.025 29.7105 12.025 29.9649 12.1066C29.9921 12.1094 30.0166 12.089 30.0194 12.0604C30.0194 12.0577 30.0194 12.0549 30.0194 12.0522C30.0316 12.0046 29.9146 11.8821 29.8778 11.8644Z" fill="black"/>
<path id="Vector_64" d="M30.5166 14.981C30.2445 14.3959 29.5859 14.0366 28.9695 13.9332C28.6334 13.8761 28.0469 13.8516 27.8278 14.17C27.8142 14.1863 27.806 14.2081 27.8047 14.2299C27.8088 14.2625 27.8333 14.2897 27.8659 14.2965C27.8972 14.3033 27.9312 14.3033 27.9625 14.2965C28.2347 14.2462 28.4755 14.1605 28.7599 14.1822C29.2988 14.2271 29.7941 14.4993 30.1206 14.9306C30.3493 15.2695 30.4091 15.8301 30.1506 16.173C29.9288 16.4655 29.5246 16.4669 29.1981 16.3784C29.0117 16.3403 28.8388 16.2492 28.7014 16.1172C28.5857 15.9811 28.666 15.8328 28.7654 15.709C28.8171 15.6464 28.7232 15.5076 28.6483 15.5566C28.4252 15.7008 28.2401 15.9376 28.3925 16.2043C28.515 16.3812 28.6946 16.5118 28.9001 16.5758C29.3437 16.7472 29.8866 16.788 30.2799 16.4696C30.7003 16.1322 30.7303 15.4409 30.5166 14.981Z" fill="black"/>
<path id="Vector_65" d="M29.9 17.8316C29.8021 17.6221 29.6578 17.4357 29.4796 17.2873C29.3109 17.1336 29.0863 17.0601 28.8591 17.0819C28.7843 17.0955 28.8305 17.218 28.8904 17.218C29.2755 17.2465 29.5327 17.618 29.6633 17.9446C29.7286 18.1079 29.7681 18.2793 29.7803 18.4549C29.7844 18.5392 29.7817 18.6236 29.7721 18.7066C29.7721 18.7365 29.7613 18.7665 29.7572 18.7964C29.7422 18.8535 29.7381 18.9134 29.7422 18.9719C29.7531 19.0196 29.7912 19.0713 29.8456 19.0509C29.9368 19.0141 30.0021 18.8726 30.0307 18.7869C30.062 18.6794 30.0756 18.5678 30.0674 18.4562C30.0552 18.2385 29.998 18.0262 29.9 17.8316Z" fill="black"/>
</g>
<g id="Group_5" opacity="0.2">
<path id="Vector_66" d="M16.9047 7.39321C16.8094 7.37688 16.7155 7.43675 16.6624 7.60956C16.54 7.99873 16.6624 8.64372 16.7019 9.04105C16.7523 9.61256 16.8475 10.1786 16.9877 10.7338C17.102 11.1842 17.2516 11.64 17.551 11.9952C17.8476 12.3177 18.2178 12.564 18.6314 12.7109C19.735 13.1532 20.9773 13.2198 22.0332 13.7737C22.1693 13.8417 22.3285 13.9097 22.4415 13.8213C22.5217 13.7396 22.5326 13.6145 22.47 13.5192C22.4061 13.4294 22.3163 13.3586 22.2142 13.3165C21.7938 13.111 21.3257 13.0334 20.8739 12.9082C20.1078 12.7177 19.3921 12.364 18.777 11.87C18.1633 11.372 17.7184 10.6984 17.5034 9.93777C17.3768 9.45471 17.3673 8.9526 17.2952 8.46002C17.2584 8.20012 17.2761 7.90756 17.1714 7.66263C17.1305 7.53608 17.0312 7.43539 16.9047 7.39321Z" fill="white"/>
<path id="Vector_67" d="M14.593 9.33324C14.5373 9.78092 14.1821 10.132 13.7344 10.1837C13.6514 10.1769 13.5684 10.2 13.5017 10.2504C13.397 10.3647 13.5358 10.5375 13.6637 10.6246C14.0882 10.9144 14.5985 11.1852 15.0938 11.0505C15.6122 10.9144 15.9293 10.3497 15.9524 9.81222C15.9728 9.36182 15.6803 6.99551 14.7604 7.71533C14.3291 8.05416 14.6461 8.88012 14.593 9.33324Z" fill="white"/>
<path id="Vector_68" d="M13.6219 9.30103C13.9689 8.0927 11.7169 6.7415 11.6366 8.30634C11.6121 8.51181 11.6462 8.72 11.7346 8.90778C12.0775 9.51602 12.6585 8.57032 13.1375 9.16087C13.1892 9.24116 13.2491 9.31736 13.3171 9.38539C13.3893 9.45479 13.5022 9.45751 13.5784 9.39356C13.6002 9.36634 13.6151 9.33505 13.6219 9.30103Z" fill="white"/>
<path id="Vector_69" d="M18.9784 14.6346C19.0546 14.7326 19.1457 14.8156 19.2505 14.8809C20.1935 15.5613 20.9936 16.5546 21.0902 17.7126C21.1106 17.9616 21.1338 18.2705 21.3624 18.3658C21.5025 18.4079 21.6549 18.3862 21.7774 18.3059C22.2183 18.0637 22.4673 17.5534 22.4972 17.0513C22.5067 16.5451 22.3884 16.0457 22.153 15.598C21.8631 14.9735 21.3637 14.4292 20.6834 14.2455C20.3976 14.172 18.5184 13.9447 18.9784 14.6346Z" fill="white"/>
<path id="Vector_70" d="M13.1024 14.4058C13.3854 14.4466 13.6657 14.6371 13.9624 14.6684C14.3284 14.7079 14.757 14.6684 15.0645 14.4521C15.1625 14.3636 15.2659 14.2792 15.3748 14.203C15.6184 14.0901 15.9082 14.15 16.0878 14.35C16.2593 14.5527 16.345 14.814 16.3259 15.078C16.33 15.4073 16.179 15.7189 15.9177 15.9203C15.5639 16.1625 15.0863 16.0727 14.6767 15.9502C14.0263 15.7556 13.3813 15.4944 12.8683 15.0508C12.7785 14.9827 12.7078 14.8943 12.6588 14.7936C12.6112 14.6888 12.6302 14.5664 12.7064 14.4806C12.7758 14.4262 12.8615 14.3976 12.9486 14.399C13.0003 14.3963 13.052 14.399 13.1024 14.4058Z" fill="white"/>
<path id="Vector_71" d="M18.9847 10.8914C19.5481 11.5173 20.3223 11.916 21.1088 12.2168C21.8572 12.5039 23.0329 12.9216 23.8303 12.5855C24.0752 12.4821 24.2807 12.2331 24.2453 11.9705C24.2099 11.7078 23.9841 11.5432 23.7609 11.4262C22.9703 11.0003 22.0586 10.8302 21.2572 10.4274C21.1034 10.3498 20.8938 10.2804 20.7768 10.407C20.6598 10.5335 20.7346 10.7227 20.8544 10.8302C21.0462 11.0016 21.2612 11.1472 21.4926 11.2615C21.7933 11.3976 22.3906 11.4466 22.6261 11.6697C22.8615 11.8929 22.6587 12.0535 22.3757 12.0113C21.5824 11.8915 20.7891 11.6711 20.1196 11.2289C19.5617 10.8737 19.1331 10.3485 18.8949 9.73206C18.8106 9.50618 18.7439 9.27486 18.6976 9.03809C18.6731 8.90202 18.7248 8.51965 18.601 8.42304C18.2105 8.11551 18.2513 9.32112 18.2772 9.47352C18.3751 10.0028 18.6201 10.4941 18.9847 10.8914Z" fill="white"/>
<path id="Vector_72" d="M17.6109 4.85172C17.3768 4.54147 16.9999 4.37274 16.6121 4.40404C16.2297 4.43942 15.8664 4.58774 15.5698 4.83267C15.0296 4.38635 14.3233 4.19176 13.6307 4.2979C13.1191 4.37138 12.5884 4.60134 12.27 5.03406C12.2115 5.1157 12.1666 5.24225 12.2455 5.3062C12.2809 5.32933 12.3217 5.34158 12.3639 5.34022C12.8959 5.36471 13.4293 5.1225 13.9832 5.13339C14.5615 5.12931 15.1303 5.28171 15.6296 5.57427C15.9481 5.77157 16.227 6.041 16.5822 6.17163C17.0353 6.34172 17.5401 6.11311 17.7116 5.65999C17.8136 5.39057 17.7755 5.08849 17.6109 4.85172Z" fill="white"/>
<path id="Vector_73" d="M9.87864 6.29948C9.52621 6.73628 9.32755 7.27921 9.31666 7.84119C9.30713 8.4508 9.56567 8.95427 10.2447 8.95835C10.31 8.96243 10.3753 8.95019 10.4352 8.92297C10.6202 8.825 10.6066 8.56238 10.5876 8.35419C10.5332 7.73097 10.676 7.10776 10.9958 6.57027C11.0856 6.41923 11.1945 6.24914 11.1441 6.08041C11.0911 5.94297 10.9645 5.84772 10.8175 5.83275C10.4338 5.7756 10.11 6.01373 9.87864 6.29948Z" fill="white"/>
<path id="Vector_74" d="M19.9806 19.3034C20.035 18.8299 20.0051 18.3495 19.8921 17.8869C19.7356 17.2011 19.3356 16.5969 18.7682 16.1819C18.4783 15.9751 17.9027 15.6376 17.5544 15.8825C17.206 16.1275 17.304 16.601 17.5136 16.8867C17.7231 17.1725 18.0402 17.3698 18.2729 17.6419C18.5572 17.9971 18.7273 18.4298 18.7627 18.8843C18.8049 19.2843 18.6688 19.6259 18.6824 20.0042C18.6811 20.1375 18.7423 20.2627 18.8484 20.343C18.9206 20.3865 19.0036 20.4083 19.0879 20.4042C19.3778 20.3784 19.6336 20.2083 19.7683 19.9511C19.8799 19.7511 19.952 19.5306 19.9806 19.3034Z" fill="white"/>
<path id="Vector_75" d="M13.418 17.1602L15.3353 17.797C15.7013 17.9031 16.0551 18.0515 16.3871 18.2392C16.7205 18.4311 16.9777 18.7332 17.111 19.0938C17.1682 19.2693 17.2104 19.4884 17.3832 19.5496C17.5533 19.5864 17.7234 19.483 17.7669 19.3142C17.8023 19.1496 17.7792 18.9768 17.703 18.8271C17.3696 18.027 16.5994 17.4881 15.7979 17.1534C14.9965 16.8186 14.1406 16.6404 13.3405 16.3056C12.5403 15.9695 11.811 15.4838 11.1946 14.8728C10.9075 14.5884 10.5931 14.5367 10.6231 15.0279C10.7074 16.3329 12.4043 16.8241 13.418 17.1602Z" fill="white"/>
<path id="Vector_76" d="M24.6515 15.1167C24.446 14.8527 24.1753 15.0527 24.1644 15.4215C24.1535 15.7902 24.4297 16.1318 24.7386 16.3508C25.0475 16.5699 25.4067 16.7196 25.6911 16.9673C25.8367 17.087 25.9673 17.2244 26.0803 17.3755C26.2164 17.5769 26.2939 18.2218 26.6654 17.8599C26.9307 17.6027 26.7919 17.0054 26.6137 16.7523C26.3932 16.4407 26.0503 16.2447 25.7183 16.0569C25.3659 15.8569 24.9019 15.5984 24.7127 15.2282C24.6951 15.1901 24.6746 15.152 24.6515 15.1167Z" fill="white"/>
<path id="Vector_77" d="M25.855 19.8431C25.4509 19.6975 25.1243 19.3927 24.9528 18.998C24.9283 18.9368 24.8821 18.862 24.8168 18.8769C24.7514 18.8919 24.7582 18.9735 24.7678 19.0321C24.8031 19.2566 24.8072 19.5029 24.9215 19.7015C25.0508 19.9097 25.2154 20.0934 25.4073 20.2458C25.5638 20.3669 25.6917 20.5207 25.7815 20.6976C25.8632 20.8827 25.8509 21.0936 25.9707 21.2664C26.0346 21.3562 26.1217 21.4242 26.2237 21.465C26.602 21.6052 27.0225 21.4215 27.1763 21.0487C27.5056 20.1751 26.485 20.0798 25.855 19.8431Z" fill="white"/>
<path id="Vector_78" d="M10.0776 10.0125C9.93886 10.0071 9.80006 10.0289 9.66943 10.0765C9.53744 10.1255 9.43675 10.2343 9.39729 10.369C9.37551 10.5732 9.48437 10.7677 9.66943 10.8562C9.85313 10.9378 10.045 10.9963 10.2423 11.0317C10.5553 11.1161 10.8451 11.2685 11.0914 11.478C11.1989 11.5692 11.3336 11.6794 11.4642 11.6236C11.5608 11.5624 11.6166 11.4535 11.6085 11.3392C11.6207 11.1324 11.5745 10.9269 11.4724 10.746C11.1826 10.2289 10.6383 10.0098 10.0776 10.0125Z" fill="white"/>
</g>
<path id="Vector_79" d="M20.165 3.69696C20.4671 4.10517 20.7215 4.55149 21.1026 4.88351C21.4836 5.21553 22.0442 5.40739 22.5014 5.19104C22.798 5.04 23.0049 4.75696 23.0579 4.42767C23.13 3.99496 22.9218 3.38671 22.5545 3.13906C22.0564 2.82201 21.4155 2.84378 20.9406 3.19349C20.9107 3.22206 20.8726 3.24383 20.8318 3.25336C20.7828 3.25336 20.7352 3.23567 20.6957 3.20573C20.4535 3.05605 19.9092 2.55394 19.6071 2.66144C19.1853 2.80024 20.0521 3.54319 20.165 3.69696Z" fill="#3B82F6"/>
<path id="Vector_80" d="M23.9254 5.66389C23.905 5.69927 23.9009 5.74145 23.9131 5.77955C23.9363 5.81221 23.973 5.83262 24.0125 5.8367C24.2737 5.8993 24.5404 5.93331 24.8003 6.00407C25.2943 6.14015 25.7433 6.40549 26.1012 6.77152C26.3488 6.99604 26.5067 7.30221 26.5489 7.63423C26.5679 7.96488 26.357 8.32276 26.0318 8.37991C25.9801 8.54592 26.1379 8.69832 26.2835 8.78813C26.5176 8.93917 26.7639 9.06707 27.0224 9.17049C27.3082 9.28479 27.6932 9.34194 27.8715 9.09157C28.0076 8.90515 27.9368 8.633 27.7817 8.46563C27.613 8.31051 27.4116 8.19621 27.1925 8.13089C27.5885 7.70362 27.5749 6.98924 27.2306 6.51979C26.8863 6.05034 26.2781 5.8231 25.6916 5.85847C25.5773 5.88025 25.4589 5.86528 25.3528 5.81629C25.1392 5.68022 25.2412 5.35228 25.229 5.14409C25.2058 4.77125 24.9255 4.20655 24.4806 4.49911C24.1295 4.73451 24.0737 5.31146 23.9254 5.66389Z" fill="#3B82F6"/>
<path id="Vector_81" d="M23.6755 6.58274C23.5681 6.56369 23.4578 6.60451 23.3884 6.68888C23.3231 6.80454 23.4197 6.94469 23.5245 7.03314C23.6606 7.15697 23.813 7.26038 23.9776 7.34339C24.3069 7.5094 24.6743 7.5856 25.0431 7.56383C25.0907 7.56383 25.137 7.55294 25.1792 7.53389C25.5112 7.35291 25.1193 6.80318 24.8948 6.71745C24.5491 6.5773 24.0443 6.58954 23.6755 6.58274Z" fill="#3B82F6"/>
<path id="Vector_82" d="M26.7048 11.1357C26.6354 11.1167 26.5606 11.1289 26.5007 11.1697C26.449 11.2296 26.4422 11.3153 26.4857 11.382C26.5715 11.5317 26.7103 11.6542 26.8014 11.8093C26.9157 11.9971 26.977 12.2121 26.9783 12.4325C26.9783 12.608 26.9429 12.7958 27.03 12.9482C27.0776 13.0299 27.1566 13.0911 27.1988 13.1741C27.2246 13.2244 27.2369 13.2816 27.2627 13.3319C27.2858 13.385 27.3348 13.4218 27.392 13.4286C27.4818 13.4286 27.5281 13.3251 27.5525 13.2381C27.6355 12.9224 27.6287 12.5577 27.7703 12.2638C27.9295 11.9304 28.2275 11.8351 28.5404 11.7195C28.9024 11.5766 29.2929 11.5535 29.6685 11.4623C29.7202 11.4514 29.7692 11.431 29.8141 11.4038C29.859 11.3739 29.8862 11.3221 29.8835 11.2677C29.8617 11.0867 29.4984 11.1316 29.3854 11.1453C28.4955 11.2732 27.5934 11.2691 26.7048 11.1357Z" fill="#3B82F6"/>
<path id="Vector_83" d="M28.5469 13.4206C28.5469 12.9063 29.2558 12.5457 29.6994 12.543C30.041 12.5525 30.3716 12.66 30.6519 12.8546C31.0084 13.0886 31.1404 13.671 31.0479 14.0683C31.0248 14.1922 30.9635 14.3051 30.8751 14.3936C30.7826 14.482 30.6465 14.5065 30.5295 14.4562C30.4601 14.4126 30.4015 14.3541 30.3566 14.2861C30.0219 13.8738 29.5266 13.6261 28.9959 13.6057C28.8204 13.5962 28.5999 13.5839 28.5469 13.4206Z" fill="#3B82F6"/>
<path id="Vector_84" d="M29.3912 14.6331C29.1285 14.5256 28.8441 14.4848 28.5625 14.5161C28.4536 14.5215 28.3488 14.5596 28.2631 14.6263C28.176 14.6971 28.1543 14.8209 28.2114 14.9175C28.2454 14.957 28.2876 14.9896 28.3352 15.01C28.5638 15.1339 28.7843 15.2754 28.9925 15.4319C29.0714 15.4822 29.1367 15.553 29.1789 15.636C29.1966 15.7258 29.2224 15.8156 29.2551 15.9013C29.3354 15.9939 29.451 16.0469 29.5735 16.0469C29.6538 16.0646 29.7368 16.0619 29.8157 16.036C29.911 15.9789 29.9763 15.8809 29.9912 15.7707C30.1123 15.2414 29.783 14.7148 29.2537 14.5923C29.1789 14.5746 29.1027 14.5664 29.0265 14.5678" fill="#3B82F6"/>
<path id="Vector_85" d="M23.3499 8.11189C23.3037 8.09556 23.2533 8.10373 23.2139 8.13094C23.1839 8.16768 23.1839 8.22075 23.2139 8.25749C23.2452 8.29151 23.2846 8.31872 23.3282 8.33505C23.6466 8.46432 23.9514 8.62897 24.2344 8.82356C24.5188 9.02358 24.712 9.32975 24.7719 9.67265C24.7814 9.75838 24.7869 9.85907 24.859 9.90534C24.9393 9.9448 25.0372 9.91622 25.0835 9.83866C25.127 9.76382 25.1502 9.67809 25.1502 9.59101C25.1856 9.19503 25.2862 8.58543 24.8195 8.40309C24.644 8.35819 24.4657 8.32825 24.2861 8.31328C23.9759 8.24933 23.6656 8.16904 23.3499 8.11189Z" fill="#3B82F6"/>
<path id="Vector_86" d="M15.8615 3.10801C15.7513 3.17877 15.6288 3.27402 15.6329 3.40465C15.652 3.52167 15.7431 3.61284 15.8602 3.63053C15.9758 3.64278 16.0915 3.63325 16.2031 3.6006C16.9664 3.44003 17.8523 3.51079 18.3911 4.07549C18.4823 4.18979 18.5871 4.29457 18.7027 4.38438C19.0402 4.60209 19.4851 4.56399 19.8566 4.65652C19.8621 4.57896 19.843 4.5014 19.8022 4.43608C19.1096 3.10801 17.1978 2.25483 15.8615 3.10801Z" fill="#3B82F6"/>
<path id="Vector_87" d="M29.7998 16.9844C29.7168 16.9993 29.6202 17.0361 29.6011 17.1204C29.5821 17.2048 29.6447 17.2674 29.6991 17.3232L29.9522 17.5777C30.0134 17.6348 30.0679 17.6974 30.1141 17.7668C30.2244 17.9464 30.223 18.175 30.2665 18.3764C30.2802 18.439 30.3128 18.5125 30.3768 18.5193C30.4135 18.5179 30.4475 18.5016 30.472 18.4744C30.6734 18.2948 30.6938 17.9927 30.6925 17.7219C30.6979 17.1341 30.3768 16.8782 29.7998 16.9844Z" fill="#3B82F6"/>
<path id="Vector_88" d="M17.2196 12.1065C17.2196 12.2616 17.0944 12.3882 16.9393 12.3895C16.7842 12.3895 16.6576 12.2643 16.6563 12.1092C16.6549 11.9541 16.7814 11.8275 16.9366 11.8262C17.0917 11.8262 17.2169 11.9514 17.2182 12.1065H17.2196Z" fill="#FAFAFA"/>
<path id="Vector_89" d="M15.2704 6.72953C15.2704 6.88465 15.1452 7.0112 14.9901 7.01256C14.8349 7.01256 14.7084 6.88737 14.707 6.73225C14.707 6.57713 14.8322 6.45058 14.9873 6.44922C14.9873 6.44922 14.9887 6.44922 14.9901 6.44922C15.1452 6.44922 15.269 6.57441 15.2704 6.72953Z" fill="#FAFAFA"/>
<path id="Vector_90" d="M12.9657 9.73089C12.9657 9.88601 12.8391 10.0126 12.684 10.0126C12.5289 10.0126 12.4023 9.88601 12.4023 9.73089C12.4023 9.57577 12.5289 9.44922 12.684 9.44922C12.8391 9.44922 12.9643 9.57441 12.9643 9.72953C12.9643 9.72953 12.9643 9.72953 12.9643 9.73089H12.9657Z" fill="#FAFAFA"/>
<path id="Vector_91" d="M10.2391 11.2504C10.2391 11.4055 10.1126 11.5321 9.95745 11.5321C9.80233 11.5321 9.67578 11.4055 9.67578 11.2504C9.67578 11.0953 9.80233 10.9688 9.95745 10.9688C10.1126 10.9688 10.2378 11.0939 10.2378 11.2491C10.2378 11.2491 10.2378 11.2491 10.2378 11.2504H10.2391Z" fill="#FAFAFA"/>
<path id="Vector_92" d="M16.1114 13.8955C16.1114 14.0507 15.9862 14.1759 15.8311 14.1759C15.676 14.1759 15.5508 14.0507 15.5508 13.8955C15.5508 13.7404 15.676 13.6152 15.8311 13.6152C15.9862 13.6152 16.11 13.7404 16.1114 13.8955Z" fill="#FAFAFA"/>
<path id="Vector_93" d="M11.8563 14.5088C11.8563 14.6639 11.7311 14.7905 11.576 14.7919C11.4209 14.7932 11.2943 14.6667 11.293 14.5115C11.2916 14.3564 11.4182 14.2299 11.5733 14.2285C11.5733 14.2285 11.5747 14.2285 11.576 14.2285C11.7311 14.2285 11.855 14.3537 11.8563 14.5088Z" fill="#FAFAFA"/>
<path id="Vector_94" d="M22.5606 14.6996C22.5606 14.8548 22.4341 14.98 22.279 14.9786C22.1238 14.9772 21.9987 14.852 22 14.6969C22 14.5432 22.1266 14.418 22.2803 14.418C22.4354 14.418 22.5606 14.5432 22.5606 14.6983C22.5606 14.6983 22.5606 14.6983 22.5606 14.6996Z" fill="#FAFAFA"/>
<path id="Vector_95" d="M20.5321 20.1977C20.5321 20.3528 20.4055 20.4794 20.2504 20.4794C20.0953 20.4794 19.9688 20.3528 19.9688 20.1977C19.9688 20.0426 20.0953 19.916 20.2504 19.916C20.4055 19.916 20.5307 20.0412 20.5307 20.1963C20.5307 20.1963 20.5307 20.1963 20.5307 20.1977H20.5321Z" fill="#FAFAFA"/>
<path id="Vector_96" d="M22.9708 11.8428C22.9708 11.9979 22.8456 12.1231 22.6905 12.1231C22.5353 12.1231 22.4102 11.9979 22.4102 11.8428C22.4102 11.6877 22.5353 11.5625 22.6905 11.5625C22.8456 11.5625 22.9708 11.6877 22.9708 11.8428Z" fill="#FAFAFA"/>
<path id="Vector_97" d="M22.9501 6.16898C22.9501 6.32411 22.8249 6.45065 22.6698 6.45201C22.5146 6.45201 22.3881 6.32683 22.3867 6.1717C22.3867 6.01658 22.5119 5.89003 22.667 5.88867C22.667 5.88867 22.6684 5.88867 22.6698 5.88867C22.8249 5.88867 22.9487 6.01386 22.9501 6.16898Z" fill="#F0F0F0"/>
<path id="Vector_98" d="M28.0829 9.9262C28.0829 10.0813 27.9563 10.2079 27.8012 10.2079C27.6461 10.2079 27.5195 10.0813 27.5195 9.9262C27.5195 9.77108 27.6461 9.64453 27.8012 9.64453C27.9563 9.64453 28.0815 9.76972 28.0815 9.92484C28.0815 9.92484 28.0815 9.92484 28.0815 9.9262H28.0829Z" fill="#F0F0F0"/>
<path id="Vector_99" d="M28.8485 14.0649C28.8485 14.22 28.722 14.3465 28.5668 14.3465C28.4117 14.3465 28.2852 14.22 28.2852 14.0649C28.2852 13.9098 28.4117 13.7832 28.5668 13.7832C28.722 13.7832 28.8471 13.9084 28.8471 14.0635C28.8471 14.0635 28.8471 14.0635 28.8471 14.0649H28.8485Z" fill="#F0F0F0"/>
<path id="Vector_100" d="M19.5712 3.1723C19.5712 3.32742 19.4446 3.45397 19.2895 3.45397C19.1344 3.45397 19.0078 3.32742 19.0078 3.1723C19.0078 3.01717 19.1344 2.89062 19.2895 2.89062C19.4446 2.89062 19.5712 3.01717 19.5712 3.1723Z" fill="#F0F0F0"/>
<path id="Vector_101" d="M19.7716 7.42093C19.7716 7.57606 19.6464 7.70125 19.4912 7.70125C19.3361 7.70125 19.2109 7.57606 19.2109 7.42093C19.2109 7.26581 19.3361 7.14062 19.4912 7.14062C19.6464 7.14062 19.7702 7.26581 19.7716 7.42093Z" fill="#FAFAFA"/>
<path id="Vector_102" d="M19.8584 16.5352C20.0132 16.5352 20.1387 16.4097 20.1387 16.2549C20.1387 16.1001 20.0132 15.9746 19.8584 15.9746C19.7036 15.9746 19.5781 16.1001 19.5781 16.2549C19.5781 16.4097 19.7036 16.5352 19.8584 16.5352Z" fill="#FAFAFA"/>
<path id="Vector_103" d="M25.877 17.462C25.877 17.6171 25.7518 17.7423 25.5967 17.7423C25.4416 17.7423 25.3164 17.6171 25.3164 17.462C25.3164 17.3068 25.4416 17.1816 25.5967 17.1816C25.7518 17.1816 25.877 17.3068 25.877 17.462Z" fill="#FAFAFA"/>
<path id="Vector_104" d="M12.5555 17.1613C12.5542 17.3165 12.4263 17.4417 12.2711 17.4403C12.116 17.4389 11.9908 17.311 11.9922 17.1559C11.9936 17.0008 12.1187 16.877 12.2739 16.877C12.429 16.877 12.5555 17.0035 12.5555 17.1586C12.5555 17.1586 12.5555 17.16 12.5555 17.1613Z" fill="#FAFAFA"/>
<path id="Vector_105" d="M17.2196 19.1905C17.2196 19.3456 17.0944 19.4721 16.9393 19.4735C16.7842 19.4735 16.6576 19.3483 16.6563 19.1932C16.6549 19.0381 16.7814 18.9115 16.9366 18.9102C17.0917 18.9102 17.2169 19.0353 17.2182 19.1905H17.2196Z" fill="#FAFAFA"/>
<path id="Vector_106" d="M24.8094 20.1235C24.8094 20.2786 24.6829 20.4051 24.5278 20.4051C24.3726 20.4051 24.2461 20.2786 24.2461 20.1235C24.2461 19.9683 24.3726 19.8418 24.5278 19.8418C24.6829 19.8418 24.8094 19.9683 24.8094 20.1235Z" fill="#FAFAFA"/>
</g>
</g>
</g>
</svg>
