<svg width="40" height="56" viewBox="0 0 40 56" fill="none" xmlns="http://www.w3.org/2000/svg">
<g id="freepik--Robot--inject-54">
<g id="freepik--robot--inject-54">
<path id="Vector" d="M23.4395 23.4062C23.7463 25.6645 23.8308 32.9541 23.735 35.016C23.6392 37.0778 23.7252 38.6883 22.5985 38.8767C22.1829 38.9448 21.2185 38.9416 21.0172 38.4968C20.7753 37.961 20.3954 35.4933 20.1227 34.0451C19.6177 31.3566 18.9375 26.8935 18.9375 26.8935C18.9375 26.8935 20.4165 23.8414 23.4395 23.4062Z" fill="#455A64"/>
<path id="Vector_2" d="M27.9013 51.0092C27.9614 51.2138 27.9419 51.4329 27.8478 51.6229C27.7569 51.7999 26.8022 52.3015 25.5391 52.1781C24.6008 52.0856 23.703 51.743 22.9415 51.1862C22.4691 50.8517 21.9674 50.777 21.3424 50.7218C20.7173 50.6666 19.9023 50.3306 19.7741 50.0335C19.6458 49.7364 19.8179 49.2363 19.8179 49.2363L27.9013 51.0092Z" fill="#263238"/>
<path id="Vector_3" d="M23.1484 47.5546C23.2571 47.5124 23.3724 47.4831 23.4877 47.4669C23.6257 47.4426 23.7669 47.4507 23.9001 47.4896C24.2524 47.6065 24.2978 48.014 24.5495 48.2397C24.7751 48.4508 25.0284 48.631 25.3028 48.7738C25.7103 49.0076 25.845 49.0985 26.2655 49.2982C26.686 49.4979 27.2705 49.644 27.6033 49.8827C28.0903 50.2334 28.1293 51.076 27.5546 51.3909C27.0578 51.6637 25.7687 51.9364 24.4277 51.5143C23.6987 51.2838 22.9081 50.4753 21.947 50.3779C21.3349 50.3113 20.1822 50.1051 19.8023 49.6278C19.6773 49.4411 19.7926 49.1002 19.8429 48.907C19.8656 48.8225 19.89 48.7365 19.9143 48.6521C19.9241 48.5823 19.9484 48.5157 19.9842 48.4556C20.0702 48.3647 20.2537 48.4037 20.3592 48.4215C20.7196 48.5027 21.093 48.5043 21.4551 48.4296C22.0704 48.2738 22.5623 47.7721 23.1484 47.5546Z" fill="#455A64"/>
<path id="Vector_4" d="M25.543 51.7192C26.4359 51.7777 27.1989 51.5845 27.5545 51.3945C28.0415 51.1315 28.0854 50.5032 27.8078 50.0957C27.3824 50.6558 26.7233 50.6136 26.3742 50.7451C26.2313 50.7954 26.2898 51.0698 26.2606 51.3588C26.2362 51.5893 25.9537 51.6819 25.543 51.7192Z" fill="#3B82F6"/>
<path id="Vector_5" d="M21.961 37.6459C21.1282 37.5306 20.9528 38.016 20.8457 38.6801C20.7385 39.3441 19.8716 48.025 19.8407 48.4828C19.8099 48.9406 20.6103 49.4472 21.4171 49.6193C22.224 49.7914 22.6818 47.9422 23.4611 47.7084C24.0878 47.5201 24.1235 47.9097 24.5505 48.2458L23.3946 37.9365L21.961 37.6459Z" fill="#3B82F6"/>
<path id="Vector_6" d="M22.794 36.3694C21.7534 36.3499 21.3978 37.4328 21.4319 38.0806C21.466 38.7284 21.8394 39.631 22.8265 39.5515C24.1594 39.4459 23.997 36.4343 22.794 36.3694Z" fill="#3B82F6"/>
<path id="Vector_7" opacity="0.3" d="M22.794 36.3694C21.7534 36.3499 21.3978 37.4328 21.4319 38.0806C21.466 38.7284 21.8394 39.631 22.8265 39.5515C24.1594 39.4459 23.997 36.4343 22.794 36.3694Z" fill="black"/>
<path id="Vector_8" d="M21.8533 40.4977L21.8306 40.4896C21.2721 40.3191 20.923 40.1178 20.7087 39.832C20.7087 39.9018 20.6941 39.9749 20.686 40.0496C20.9945 40.3402 21.3727 40.5448 21.7835 40.6438L21.8062 40.6519C22.0725 40.7315 22.1082 40.7428 22.0481 41.9166C21.9426 43.972 21.6715 46.1637 21.5237 47.0631C21.514 47.18 21.4555 47.2872 21.3614 47.3586C21.2558 47.4122 21.1308 47.4187 21.0204 47.3748C20.6519 47.2709 20.1843 47.0956 19.9733 47.0144C19.9733 47.0713 19.9619 47.1265 19.957 47.1768C20.1859 47.2645 20.6243 47.4284 20.9766 47.5275C21.048 47.5486 21.1211 47.5583 21.1941 47.5599C21.2834 47.5616 21.3711 47.5388 21.4474 47.4917C21.5789 47.396 21.6617 47.2482 21.6763 47.0859C21.8241 46.1832 22.0968 43.9833 22.2023 41.9215C22.2705 40.7217 22.2429 40.6162 21.8533 40.4977Z" fill="#455A64"/>
<path id="Vector_9" d="M15.7117 24.7993C16.4471 24.7993 17.6274 25.2474 18.3288 26.1549C19.0301 27.0625 18.9782 28.3824 18.9782 28.3824C19.5984 28.6015 20.7381 28.1502 21.355 27.5836C22.1245 26.8774 22.7463 26.163 23.1409 25.2782C23.3552 24.8334 23.5094 24.3626 23.6019 23.8787C23.6653 23.3771 23.6506 22.8689 23.5581 22.3721C23.2334 20.5376 20.5449 20.4239 19.1551 20.4239C14.8869 20.4126 14.848 21.4159 14.4827 22.5718C14.1742 23.5459 13.9713 25.4211 14.4259 25.4941C14.6045 25.098 15.0396 24.7993 15.7117 24.7993Z" fill="#3B82F6"/>
<path id="Vector_10" opacity="0.15" d="M15.0244 21.8846C14.8621 22.409 15.6122 24.0342 19.0832 24.0374C22.4098 24.0374 23.3206 22.8847 23.142 22.1298C22.9634 21.3749 22.137 20.5469 19.1774 20.5469C16.7259 20.5469 15.3508 20.8781 15.0244 21.8846Z" fill="black"/>
<path id="Vector_11" d="M28.1727 18.989C27.572 19.0101 26.9745 18.8948 26.4242 18.6529C24.713 17.8038 24.1285 16.4385 23.0667 13.9594C22.8768 13.5113 22.6674 13.021 22.4287 12.482C22.0553 11.7271 21.8426 11.4835 21.7647 11.4121L21.6916 11.4251C21.1185 11.503 20.5893 11.102 20.5097 10.5289C20.4367 9.99315 20.7825 9.48824 21.3101 9.36485C22.781 9.08886 23.5522 10.0143 24.3233 11.5761C24.3298 11.5891 24.3363 11.602 24.3412 11.615C24.588 12.1703 24.8039 12.6752 25.0003 13.1346C26.0183 15.5163 26.3836 16.2891 27.3544 16.7762C28.2847 17.2372 31.5544 16.4515 32.8419 15.2582C33.2673 14.8653 33.9296 14.8897 34.3225 15.315C34.7154 15.7404 34.6911 16.4028 34.2657 16.7956C32.9604 18.0019 30.2491 18.989 28.1727 18.989Z" fill="#455A64"/>
<path id="Vector_12" d="M35.1115 13.8828H35.0726C34.8972 13.8617 34.769 13.7042 34.7868 13.5289C34.816 13.123 34.9102 12.7236 35.0693 12.3486C35.269 11.9313 35.5823 11.5806 35.9736 11.3355C36.1132 11.2235 36.3178 11.2446 36.4298 11.3842C36.5418 11.5238 36.5207 11.7284 36.3811 11.8404C36.3616 11.855 36.3421 11.868 36.321 11.8794C36.0369 12.0563 35.808 12.308 35.6603 12.6067C35.5271 12.9249 35.4492 13.2626 35.4281 13.6068C35.4037 13.7643 35.2706 13.8812 35.1115 13.8828Z" fill="#455A64"/>
<path id="Vector_13" d="M35.5236 14.7271C35.4716 14.7271 35.4213 14.7141 35.3759 14.6898C35.22 14.607 35.1583 14.4138 35.2379 14.2563C35.4067 13.8845 35.6356 13.5436 35.9149 13.2481C36.2477 12.9283 36.6649 12.7091 37.1163 12.6149C37.2948 12.5971 37.454 12.7253 37.4734 12.9039C37.4897 13.0565 37.3971 13.1994 37.251 13.2465C36.9247 13.313 36.6227 13.4673 36.3776 13.693C36.1422 13.9446 35.9506 14.2336 35.811 14.5485C35.7558 14.6573 35.6454 14.7255 35.5236 14.7271Z" fill="#455A64"/>
<path id="Vector_14" d="M34.4512 16.9551C35.4447 16.9551 36.25 16.1497 36.25 15.1563C36.25 14.1628 35.4447 13.3574 34.4512 13.3574C33.4577 13.3574 32.6523 14.1628 32.6523 15.1563C32.6523 16.1497 33.4577 16.9551 34.4512 16.9551Z" fill="#3B82F6"/>
<path id="Vector_15" d="M33.3453 14.9588C33.3015 14.9588 33.2592 14.9491 33.2187 14.9328C32.6553 14.6909 32.4231 14.1324 32.5287 13.272C32.5287 13.0934 32.6748 12.9473 32.8534 12.9473C33.032 12.9473 33.1781 13.0934 33.1781 13.272C33.1781 13.2979 33.1748 13.3239 33.1683 13.3499C33.0807 14.0724 33.2852 14.2574 33.4719 14.337C33.6359 14.4117 33.7073 14.6032 33.6327 14.7672C33.5807 14.8809 33.4687 14.9539 33.3453 14.9572V14.9588Z" fill="#455A64"/>
<path id="Vector_16" d="M34.2282 13.9166C34.0853 13.9166 33.9587 13.8225 33.9181 13.6845C33.798 13.2981 33.7428 12.8938 33.7558 12.4879C33.7752 12.0269 33.9246 11.582 34.186 11.2021C34.2688 11.043 34.4652 10.9813 34.6243 11.0641C34.7834 11.1469 34.8451 11.3434 34.7623 11.5025C34.7494 11.5268 34.7347 11.5479 34.7169 11.569C34.5237 11.8402 34.4117 12.16 34.3922 12.4928C34.3792 12.8354 34.4247 13.1763 34.5269 13.5026C34.5756 13.6731 34.4799 13.8517 34.3094 13.9036C34.2834 13.9118 34.2558 13.9166 34.2282 13.9182V13.9166Z" fill="#455A64"/>
<path id="Vector_17" d="M18.9757 28.3824C18.69 31.0741 17.1152 37.9611 16.417 38.6283C15.7189 39.2956 14.5922 39.2907 14.2675 37.9302C13.9428 36.5697 14.1961 26.8904 14.4299 25.5006C14.6637 24.1109 16.0534 23.8885 17.383 24.4502C18.7127 25.012 19.5553 26.0023 18.9757 28.3824Z" fill="#455A64"/>
<path id="Vector_18" d="M12.0101 51.7031C11.9728 51.9629 12.0101 52.2275 12.1189 52.4662C12.2342 52.6545 12.5605 52.838 12.6644 53.1367C12.7683 53.4354 12.692 53.8137 12.7635 54.153C12.8268 54.4501 12.9907 55.0557 13.8333 55.5719C14.6759 56.0882 16.0202 56.0168 16.8628 55.9113C17.7054 55.8057 18.3012 55.4437 18.3597 54.9875C18.3824 54.6612 18.3337 54.3332 18.2152 54.028L12.0101 51.7031Z" fill="#37474F"/>
<path id="Vector_19" d="M12.1243 50.2292C12.035 51.0182 11.9359 51.3883 12.0203 51.7617C12.1048 52.1351 12.4895 52.3072 12.7623 52.7131C13.035 53.119 12.5853 54.0817 13.5481 54.835C14.5108 55.5884 15.4849 55.6273 16.7042 55.5348C17.4007 55.4828 17.8406 55.2766 18.0436 55.0883C18.4738 54.6938 18.4462 53.8869 18.0695 53.5103C17.8309 53.2846 17.6052 53.0459 17.3909 52.7959C17.1782 52.5232 16.9672 52.2667 16.7042 51.8705C16.2285 51.1513 16.1441 49.4547 15.8307 49.0992C15.5174 48.7436 12.6064 48.1105 12.1243 50.2292Z" fill="#455A64"/>
<path id="Vector_20" d="M18.2138 54.8723C18.2089 54.7473 18.1943 54.6239 18.1732 54.5005C18.1018 54.0427 17.8485 53.9258 17.4037 53.9258C16.9588 53.9258 15.4879 53.9891 15.4879 54.52C15.4879 55.3317 14.7768 55.4438 14.3125 55.2912C15.0398 55.5996 15.8045 55.6029 16.7039 55.5347C17.4004 55.4827 17.8404 55.2765 18.0433 55.0882C18.1148 55.0281 18.1716 54.9551 18.2138 54.8723Z" fill="#3B82F6"/>
<path id="Vector_21" d="M14.268 37.9297C13.8216 38.0125 13.729 38.722 13.5342 39.8682C13.3394 41.0144 11.8782 50.067 11.9107 50.5525C11.9432 51.0379 12.388 51.7263 12.7614 52.0558C13.1348 52.3854 13.6576 52.1013 13.9368 51.0687C14.307 49.7082 15.6415 49.5329 16.0084 50.4193C16.5166 51.637 16.7033 51.8805 16.7033 51.8805C16.7033 51.8805 16.9419 48.989 16.9257 45.8378C16.9078 43.6769 16.903 40.8569 16.903 39.3324C16.903 38.3583 16.7569 38.1959 16.5507 38.1261C15.9597 37.9475 14.268 37.9297 14.268 37.9297Z" fill="#3B82F6"/>
<path id="Vector_22" d="M15.5515 36.9905C14.1716 36.7616 13.3484 39.8852 15.1034 40.1385C16.7643 40.3771 17.1978 37.2632 15.5515 36.9905Z" fill="#3B82F6"/>
<path id="Vector_23" opacity="0.3" d="M15.5515 36.9905C14.1716 36.7616 13.3484 39.8852 15.1034 40.1385C16.7643 40.3771 17.1978 37.2632 15.5515 36.9905Z" fill="black"/>
<path id="Vector_24" d="M16.8289 49.8746C16.5821 49.7366 16.4051 49.5011 16.3418 49.2251C16.2509 48.5579 16.2168 45.6534 16.3418 43.7361C16.4506 42.0574 16.4928 41.6482 16.8954 41.4729V41.3105C16.3272 41.5216 16.2931 42.0135 16.1811 43.7328C16.0512 45.72 16.0902 48.579 16.1811 49.2527C16.233 49.6245 16.5301 49.8924 16.8175 50.0645C16.8224 50.0012 16.8256 49.9379 16.8289 49.8746Z" fill="#455A64"/>
<path id="Vector_25" d="M13.3921 40.7305C13.3921 40.7857 13.3742 40.8425 13.3645 40.8928C14.259 41.4351 14.2168 41.9124 14.0918 43.2096C14.0772 43.3719 14.0609 43.5343 14.0447 43.7161C13.8596 45.6026 13.5755 47.4778 13.1924 49.3351C13.1729 49.4227 13.1128 49.4958 13.03 49.5299C12.8141 49.6257 12.4326 49.5477 12.0462 49.4162C12.0462 49.4714 12.0299 49.5266 12.0234 49.5786C12.2702 49.6695 12.5283 49.7215 12.7897 49.7328C12.8936 49.7361 12.9975 49.7166 13.095 49.6776C13.2248 49.624 13.3206 49.5104 13.3498 49.3724C13.7346 47.5102 14.022 45.6302 14.2087 43.7372C14.2249 43.557 14.2395 43.3898 14.2558 43.2339C14.3808 41.901 14.4327 41.3409 13.3921 40.7305Z" fill="#455A64"/>
<path id="Vector_26" d="M21.5659 19.4231C20.3873 19.0383 19.1875 17.6031 19.1875 17.6031C19.1875 17.6031 20.8889 14.6938 22.3598 15.7767C23.8307 16.8596 23.7171 20.1244 21.5659 19.4231Z" fill="#3B82F6"/>
<path id="Vector_27" opacity="0.15" d="M21.5659 19.4231C20.3873 19.0383 19.1875 17.6031 19.1875 17.6031C19.1875 17.6031 20.8889 14.6938 22.3598 15.7767C23.8307 16.8596 23.7171 20.1244 21.5659 19.4231Z" fill="black"/>
<path id="Vector_28" d="M22.3327 17.3166C22.6217 19.1999 22.2645 21.2212 21.8944 22.369C21.7402 22.9161 20.4446 23.2733 18.9364 23.2733C17.4281 23.2733 16.3014 22.7294 16.1163 22.205C15.9312 21.6806 16.6894 20.5474 15.5156 16.8831C15.5156 16.8831 17.2901 14.1232 19.7514 14.719C22.2126 15.3148 22.3327 17.3166 22.3327 17.3166Z" fill="#455A64"/>
<path id="Vector_29" d="M18.3063 8.77538C15.8142 8.88253 13.7508 9.72838 13.1906 10.821C12.6305 11.9136 12.9812 14.1427 13.7053 15.8263C14.2037 16.9838 15.1665 19.1058 16.0237 19.6691C16.8809 20.2325 18.1992 20.3007 18.8697 19.1918C19.5402 18.083 20.6296 15.6022 21.8553 16.7565C22.9642 17.7988 22.8554 18.9304 22.6232 19.2015C22.568 19.2681 22.5031 19.3266 22.4317 19.3753L22.4203 19.6285C22.6817 19.5782 22.9187 19.4418 23.0924 19.2389C23.8327 18.4482 24.0893 15.8425 23.771 13.1264C23.4528 10.4103 22.3959 8.60004 18.3063 8.77538Z" fill="#3B82F6"/>
<path id="Vector_30" d="M13.6585 10.8522C14.2543 10.2174 15.1943 10.6476 15.6765 11.4545C16.2707 12.4546 16.4525 14.0423 15.9119 14.8638C15.3713 15.6853 14.2884 15.3509 13.738 14.4109C13.0772 13.2955 13.1552 11.3895 13.6585 10.8522Z" fill="#455A64"/>
<path id="Vector_31" d="M23.8793 14.3946C23.5854 14.2047 23.2575 14.0699 22.9149 14.0001C22.4084 13.893 21.8905 13.8508 21.3742 13.8702C21.1729 11.9496 20.5965 10.5144 20.0624 10.0469L19.9553 10.1686C20.392 10.5502 21.0089 11.9025 21.22 13.8767C19.5965 13.9482 17.8106 14.4661 16.8885 15.0879C16.4306 15.3931 16.0215 15.7665 15.6757 16.1935C15.5312 15.6756 15.4159 15.1512 15.3283 14.6219L15.1659 14.6479C15.2601 15.2242 15.39 15.7941 15.5507 16.3542C15.1464 16.8932 14.9094 17.5394 14.8672 18.2115C14.9208 18.304 14.9743 18.395 15.0295 18.4842C15.0117 17.7959 15.2146 17.1205 15.6091 16.5555C15.9598 17.7342 16.5475 19.1742 17.4664 20.0591C17.5379 20.0542 17.6077 20.0444 17.6775 20.0315C16.6936 19.1548 16.0799 17.6124 15.7293 16.3899C16.0783 15.9337 16.5004 15.5392 16.9794 15.2226C17.8788 14.6106 19.6403 14.1024 21.2362 14.0342C21.3093 14.8411 21.3125 15.6512 21.2443 16.4581C21.2995 16.4614 21.3531 16.4695 21.4067 16.4825C21.4732 15.6658 21.4684 14.846 21.3937 14.0293C21.8937 14.0115 22.3938 14.0537 22.8824 14.1576C23.2477 14.229 23.5919 14.38 23.8923 14.6008L23.8793 14.3946Z" fill="#455A64"/>
<path id="Vector_32" d="M10.1383 21.7066C9.98085 21.7066 9.825 21.6919 9.66914 21.666C7.90114 21.3656 6.07956 19.4807 5.05838 17.9579C4.75153 17.4676 4.89927 16.8198 5.38957 16.513C5.85877 16.2191 6.4757 16.3409 6.79878 16.7889C7.9125 18.4482 9.29573 19.4742 10.0198 19.5992C10.0929 19.6171 10.1708 19.6139 10.2422 19.5895C10.5832 19.3314 11.3787 17.6413 12.1515 14.0209C12.6385 11.7804 12.8545 10.7576 14.2215 10.5628C14.7946 10.4832 15.3238 10.8842 15.4034 11.459C15.4748 11.9752 15.155 12.4672 14.6533 12.61C14.4699 13.2189 14.3189 13.8358 14.2004 14.4608C12.9746 20.1577 11.8641 20.9906 11.5005 21.265C11.1076 21.5588 10.6286 21.713 10.1383 21.7066Z" fill="#455A64"/>
<path id="Vector_33" d="M5.13497 14.7646C5.00346 14.7646 4.88495 14.6834 4.83624 14.5617L4.80702 14.4902C4.6674 14.1688 4.55862 13.8343 4.48232 13.4918C4.36542 13.0275 4.39952 12.5388 4.5781 12.0939C4.67064 11.9397 4.86871 11.8894 5.02295 11.9819C5.15607 12.0615 5.21452 12.2238 5.16257 12.3699C5.0408 12.6849 5.02295 13.0307 5.11224 13.3554C5.18205 13.6623 5.28108 13.961 5.40772 14.2483L5.43694 14.3214C5.50188 14.487 5.42233 14.6721 5.25835 14.7403C5.21939 14.7565 5.17718 14.7646 5.13497 14.7646Z" fill="#455A64"/>
<path id="Vector_34" d="M6.37453 15.2602C6.19595 15.257 6.05308 15.1092 6.0547 14.9306C6.0547 14.8689 6.07418 14.8072 6.1099 14.7553C6.23329 14.5751 6.36804 14.2682 6.10178 13.6773C6.02873 13.5117 6.10178 13.3201 6.269 13.247C6.4346 13.174 6.62618 13.247 6.69923 13.4126C6.99471 14.062 6.97685 14.6433 6.6489 15.1206C6.58721 15.2099 6.48331 15.2634 6.37453 15.2602Z" fill="#455A64"/>
<path id="Vector_35" d="M5.22854 17.8789C6.22201 17.8789 7.02738 17.0736 7.02738 16.0801C7.02738 15.0866 6.22201 14.2812 5.22854 14.2812C4.23506 14.2812 3.42969 15.0866 3.42969 16.0801C3.42969 17.0736 4.23506 17.8789 5.22854 17.8789Z" fill="#3B82F6"/>
<path id="Vector_36" d="M4.17446 15.0632C4.10465 15.0632 4.03484 15.0405 3.97964 14.9967C3.66955 14.745 3.41141 14.4317 3.22471 14.0778C2.97144 13.6719 2.86429 13.193 2.92111 12.7189C2.96819 12.5452 3.14678 12.4429 3.31887 12.49C3.46336 12.5289 3.5624 12.6621 3.55915 12.813C3.52506 13.1426 3.60299 13.4754 3.7832 13.7547C3.92931 14.0339 4.129 14.2823 4.37091 14.4853C4.51053 14.5973 4.53326 14.8018 4.42123 14.9415C4.36116 15.0162 4.27025 15.0616 4.17446 15.0632Z" fill="#455A64"/>
<path id="Vector_37" d="M3.96181 16.2462C3.92771 16.2462 3.89362 16.2414 3.86115 16.23C3.46826 16.1229 3.10135 15.9313 2.78801 15.6715C2.45519 15.3825 2.19868 15.0189 2.03633 14.6097C1.94216 14.4571 1.99087 14.2574 2.14348 14.1633C2.29609 14.0691 2.49578 14.1178 2.58994 14.2704C2.60455 14.2964 2.61754 14.3224 2.62566 14.3516C2.74742 14.6666 2.94387 14.9491 3.19713 15.1731C3.4504 15.3809 3.74426 15.5335 4.06084 15.6179C4.22806 15.6813 4.31411 15.868 4.25079 16.0368C4.20533 16.1586 4.09169 16.2414 3.96181 16.2462Z" fill="#455A64"/>
<path id="Vector_38" d="M15.5859 3.60938C15.646 4.39515 15.9041 5.15333 16.336 5.8141C16.7451 6.42616 17.1137 6.95056 17.1137 7.58697V9.21048C17.1137 9.21048 18.2501 10.821 19.8736 10.5466C21.5637 10.2641 19.8947 9.09521 19.8947 9.09521V7.686C19.8947 7.686 20.0977 5.93099 18.9904 4.81077C17.8832 3.69055 15.5859 3.60938 15.5859 3.60938Z" fill="#455A64"/>
<path id="Vector_39" d="M15.5793 4.12481C15.3407 2.81139 15.7417 1.43141 17.3068 0.432955C18.8718 -0.565503 22.2974 0.163452 22.6871 2.61495C23.028 4.74175 22.8137 5.86197 22.4906 7.02765C22.2909 7.75335 21.8786 8.35405 21.2016 8.38815C20.5521 8.42062 19.5131 8.35081 18.7452 8.02448C18.4351 7.89298 18.1721 7.65107 17.9156 6.78574C17.5941 5.70286 17.2175 4.21086 15.5793 4.12481Z" fill="#3B82F6"/>
<path id="Vector_40" d="M18.8841 3.73928C17.8938 3.61589 18.0496 4.04612 18.2347 4.66955C18.4247 5.31895 18.9815 5.90017 20.5255 5.94725C21.5515 5.97972 22.2951 5.79951 22.8179 5.43584C22.8844 4.74423 22.8763 4.04774 22.7919 3.35938C22.438 3.57043 22.0435 3.70518 21.6343 3.75551C20.7219 3.87727 19.7949 3.8724 18.8841 3.73928Z" fill="#455A64"/>
<path id="Vector_41" d="M22.7234 2.8366C22.712 2.76192 22.7023 2.69048 22.6893 2.61418C22.6893 2.60931 22.6893 2.60281 22.6893 2.59794C22.5513 2.83173 22.3224 2.99733 22.0578 3.05577C21.8272 1.97452 21.3824 1.14003 20.7265 0.568557C20.5284 0.394842 20.3109 0.247103 20.0771 0.126963C19.7816 0.0555289 19.4812 0.0133177 19.1776 0.00195312C18.5916 0.135081 18.0542 0.422442 17.6175 0.834813C17.5395 0.909494 17.4665 0.987423 17.3967 1.07022C17.046 1.07834 16.6969 1.13191 16.3609 1.23257C16.2943 1.30725 16.2326 1.38193 16.1758 1.45824C16.5281 1.33323 16.8966 1.25692 17.27 1.23582C16.4875 2.26837 16.3868 3.60452 16.3966 4.32048C16.4518 4.34646 16.507 4.37568 16.5589 4.40653C16.5394 3.71654 16.6158 2.27974 17.4762 1.23095C17.8447 1.23582 18.2117 1.29589 18.564 1.40629C19.7248 1.76671 19.9715 2.23428 20.2313 2.73107L20.293 2.84634C20.4894 3.21488 20.9262 3.32527 21.345 3.32527C21.5415 3.32527 21.7379 3.30255 21.9311 3.25871C22.0172 3.72141 22.0642 4.18898 22.074 4.6598C22.1373 6.91323 21.6632 7.84187 21.2622 8.23152C21.1892 8.2997 21.108 8.35815 21.0203 8.40523H21.2152C21.2541 8.40523 21.2898 8.40523 21.3256 8.39387C21.3613 8.3825 21.3515 8.37438 21.3645 8.3614C21.8012 7.95877 22.3094 6.99278 22.2445 4.66954C22.2331 4.18736 22.1828 3.7068 22.0951 3.23273C22.3386 3.16617 22.5578 3.02817 22.7234 2.8366ZM20.431 2.76679L20.3709 2.65152C20.0949 2.1255 19.8335 1.62871 18.6078 1.25043C18.2847 1.14815 17.9503 1.08808 17.611 1.07347C17.6499 1.03288 17.684 0.99067 17.7246 0.951705C18.236 0.474394 18.8838 0.170798 19.5787 0.0863756C19.9602 0.219503 20.3141 0.424065 20.6177 0.690321C21.2476 1.24069 21.6762 2.04757 21.897 3.09636C21.4652 3.19377 20.6826 3.23598 20.431 2.76679Z" fill="#455A64"/>
<path id="Vector_42" d="M20.0429 5.07618C20.189 5.06644 20.2945 4.73687 20.5916 4.68167C20.8887 4.62647 21.0478 5.02098 21.1907 5.00637C21.3336 4.99176 21.1436 4.31963 20.5868 4.35697C20.1062 4.3797 19.9244 5.08755 20.0429 5.07618Z" fill="#3B82F6"/>
<path id="Vector_43" d="M22.285 4.76252C22.4133 4.74466 22.488 4.44756 22.7477 4.38099C23.0075 4.31443 23.1715 4.65537 23.2965 4.63588C23.4215 4.6164 23.2153 4.03356 22.7234 4.09201C22.3029 4.13747 22.1811 4.77226 22.285 4.76252Z" fill="#3B82F6"/>
</g>
<g id="freepik--Screen--inject-54">
<path id="Vector_44" opacity="0.35" d="M34.6092 8.73641C35.7327 8.01882 36.7474 7.14375 37.6224 6.1388C39.1177 4.39353 39.884 2.45181 39.9165 0.511719V12.0386C39.8678 15.0178 38.0949 17.992 34.6092 20.2649C32.4613 21.666 29.901 22.6418 27.1914 23.1873V11.6603C29.9059 11.1149 32.4613 10.1375 34.6092 8.73641Z" fill="#455A64"/>
<path id="Vector_45" d="M34.6092 8.73641C35.7327 8.01882 36.7474 7.14375 37.6224 6.1388C39.1177 4.39353 39.884 2.45181 39.9165 0.511719V12.0386C39.8678 15.0178 38.0949 17.992 34.6092 20.2649C32.4613 21.666 29.901 22.6418 27.1914 23.1873V11.6603C29.9059 11.1149 32.4613 10.1375 34.6092 8.73641Z" stroke="white" stroke-width="1.02" stroke-miterlimit="10"/>
</g>
<g id="freepik--screen--inject-54">
<g id="Group" opacity="0.35">
<path id="Vector_46" d="M0.0820312 6.29768V21.1479C5.76431 23.7731 14.1416 23.9566 19.5414 22.8737C22.881 22.2048 25.6474 20.9774 28.146 19.5358C28.7597 19.1835 29.3506 18.7922 29.9156 18.3652V3.52148C29.349 3.9436 28.7564 4.33324 28.1428 4.68554C25.6409 6.13371 22.665 7.13379 19.5089 7.69877C15.304 8.45857 5.86172 8.3985 0.0820312 6.29768Z" fill="#455A64"/>
</g>
<path id="Vector_47" opacity="0.4" d="M0.0820312 6.29768V21.1479C5.76431 23.7731 14.1416 23.9566 19.5414 22.8737C22.881 22.2048 25.6474 20.9774 28.146 19.5358C28.7597 19.1835 29.3506 18.7922 29.9156 18.3652V3.52148C29.349 3.9436 28.7564 4.33324 28.1428 4.68554C25.6409 6.13371 22.665 7.13379 19.5089 7.69877C15.304 8.45857 5.86172 8.3985 0.0820312 6.29768Z" stroke="white" stroke-width="1.02" stroke-miterlimit="10"/>
</g>
</g>
</svg>
