<svg width="41" height="44" viewBox="0 0 41 44" fill="none" xmlns="http://www.w3.org/2000/svg">
<g id="Frame 225">
<g id="freepik--Device--inject-39">
<g id="freepik--device--inject-39">
<path id="Vector" d="M15.7119 0.242599L1.17708 8.63486C0.726929 8.87537 0.463008 9.36064 0.50664 9.86933L5.13058 42.1315C5.20188 42.6232 5.63714 43.183 6.10432 43.3809C6.5715 43.5789 7.32495 43.5246 7.78575 43.2585L22.2684 34.8971C22.7271 34.6321 23.0453 34.0149 22.975 33.5254L18.3671 1.36852C18.2968 0.87686 17.8605 0.318157 17.3933 0.119152C16.9261 -0.0798532 16.1727 -0.0234508 15.7119 0.242599Z" fill="#37474F"/>
<path id="Vector_2" d="M7.58228 43.3546C7.12574 43.5345 6.5085 43.5515 6.10411 43.3802C5.63692 43.1822 5.2006 42.6225 5.13036 42.1308L0.506426 9.8686C0.481949 9.63767 0.52771 9.40354 0.638386 9.19922L2.18999 9.84838C1.97608 10.1038 1.87286 10.4326 1.90052 10.7647L6.47658 42.7076C6.56278 43.2972 7.03847 43.559 7.58228 43.3546Z" fill="#263238"/>
<path id="Vector_3" d="M2.52473 9.5526C2.11927 9.78566 1.83939 10.3305 1.90111 10.7626L6.47716 42.7066C6.57294 43.3707 7.16037 43.6197 7.78293 43.26L22.2688 34.8975C22.7275 34.6325 23.0457 34.0153 22.9754 33.5258L18.3674 1.36892C18.2972 0.879388 17.8641 0.696346 17.4097 0.961332L2.52473 9.5526Z" fill="#455A64"/>
<path id="Vector_4" d="M3.60858 11.4217C3.1712 11.6739 2.87003 12.2581 2.93707 12.7253L6.89802 40.3583C6.96506 40.8255 7.37371 40.9968 7.81216 40.7467L21.4339 32.8791C21.8702 32.6279 22.1724 32.0405 22.1065 31.5755L18.1487 3.9425C18.0817 3.47638 17.6698 3.30398 17.2335 3.55407L3.60858 11.4217Z" fill="#37474F"/>
<path id="Vector_5" d="M9.10116 6.84673L11.5158 5.45263C11.6595 5.36962 11.7936 5.41857 11.8138 5.55905C11.8212 5.72719 11.735 5.88469 11.5903 5.96983L9.17565 7.36925C9.03092 7.45226 8.8979 7.40224 8.87768 7.26283C8.8681 7.09256 8.9543 6.93186 9.10116 6.84673Z" fill="black"/>
<path id="Vector_6" d="M13.2431 4.45173C13.3782 4.37405 13.5048 4.42726 13.5251 4.57092C13.5357 4.73481 13.4527 4.88912 13.3122 4.97319C13.1771 5.05194 13.0504 4.99767 13.0302 4.854C13.0196 4.69011 13.1026 4.5358 13.2431 4.45173Z" fill="black"/>
<path id="Vector_7" d="M14.2225 3.8892C14.3576 3.81151 14.4843 3.86472 14.5055 4.00945C14.5151 4.17228 14.4332 4.32765 14.2927 4.41172C14.1575 4.48941 14.0309 4.4362 14.0107 4.29147C14 4.12865 14.082 3.97221 14.2225 3.8892Z" fill="black"/>
<path id="Vector_8" d="M6.39223 8.40728C6.52738 8.32853 6.65402 8.38281 6.67424 8.52647C6.68595 8.68929 6.60614 8.84467 6.46673 8.92874C6.33157 9.00749 6.206 8.95322 6.18471 8.80955C6.17301 8.64779 6.25389 8.49242 6.39223 8.40728Z" fill="black"/>
<path id="Vector_9" d="M7.37076 7.84233C7.50591 7.76464 7.63149 7.81785 7.65277 7.96258C7.66341 8.12434 7.5836 8.27971 7.44525 8.36485C7.3101 8.44253 7.18346 8.38932 7.16324 8.24459C7.15153 8.08177 7.23135 7.92746 7.37076 7.84233Z" fill="black"/>
<path id="Vector_10" d="M20.9417 31.0086L17.0233 3.67578L3.61444 11.4221C3.17706 11.6743 2.87589 12.2585 2.94293 12.7257L6.85918 40.0575L20.2681 32.3123C20.7055 32.0601 21.013 31.4737 20.9417 31.0086Z" fill="#3B82F6"/>
<g id="Group" opacity="0.6">
<path id="Vector_11" d="M7.22123 13.1975C7.23932 13.1879 7.2489 13.1688 7.24571 13.1485L6.74234 9.61328L6.62422 9.68245L7.11375 13.1219L6.17938 13.6615C6.16129 13.6711 6.15171 13.6902 6.1549 13.7104L6.37519 15.2525C6.37945 15.2727 6.39435 15.2908 6.4135 15.2982L7.49154 15.7558L7.83421 18.1492C7.77142 18.212 7.73843 18.2993 7.74482 18.3876C7.75014 18.4546 7.80867 18.5057 7.87571 18.5004C7.90125 18.4983 7.92466 18.4887 7.94488 18.4727C8.04279 18.4121 8.10026 18.3025 8.09174 18.1875C8.08962 18.1247 8.03641 18.0758 7.97362 18.079C7.96723 18.079 7.96085 18.08 7.9534 18.0811L7.61392 15.7143C7.61073 15.693 7.59583 15.676 7.57561 15.6686L6.49864 15.211L6.2858 13.7317L7.22123 13.1975Z" fill="white"/>
<path id="Vector_12" d="M4.69336 10.7966L5.4085 15.8079C5.41276 15.8292 5.42766 15.8462 5.44788 15.8537L6.52804 16.3092L6.72385 17.6777C6.66 17.7405 6.62701 17.8278 6.63446 17.9172C6.64935 18.0236 6.74088 18.0566 6.83453 18.0012C6.93243 17.9406 6.98883 17.831 6.98138 17.716C6.97926 17.6532 6.92605 17.6043 6.86326 17.6064C6.85581 17.6064 6.84942 17.6075 6.84197 17.6096L6.64616 16.2751C6.64297 16.2538 6.62807 16.2368 6.60785 16.2294L5.52769 15.7739L4.80723 10.7285L4.69336 10.7966Z" fill="white"/>
<path id="Vector_13" d="M8.84814 38.9078L8.04254 33.2856C8.03829 33.2643 8.02445 33.2473 8.00423 33.2388L6.9262 32.7812L4.81696 18.0431C4.87975 17.9803 4.91274 17.893 4.90529 17.8047C4.89145 17.6983 4.79887 17.6642 4.70628 17.7196C4.60838 17.7802 4.55091 17.8899 4.55942 18.0048C4.56155 18.0676 4.61476 18.1165 4.67755 18.1133C4.68394 18.1133 4.69032 18.1123 4.69777 18.1112L6.80382 32.8163C6.80701 32.8376 6.82191 32.8557 6.84213 32.8631L7.92335 33.3218L8.73321 38.9769L8.84814 38.9078Z" fill="white"/>
<path id="Vector_14" d="M3.73242 11.3524L4.44756 16.3658C4.45182 16.3871 4.46565 16.4041 4.48587 16.4126L5.56391 16.8724L5.90126 19.2594C5.83634 19.3222 5.80335 19.4105 5.80974 19.5009C5.82357 19.6074 5.91616 19.6414 6.00981 19.5861C6.10771 19.5254 6.16411 19.4158 6.15666 19.3009C6.15347 19.237 6.0992 19.1891 6.03535 19.1923C6.03002 19.1923 6.02577 19.1923 6.02045 19.1944L5.68842 16.8319C5.6831 16.8106 5.66926 16.7936 5.64904 16.7862L4.57101 16.3296L3.85055 11.2832L3.73242 11.3524Z" fill="white"/>
<path id="Vector_15" d="M17.0414 34.1767L16.7519 32.1548C16.7477 32.1345 16.7328 32.1164 16.7136 32.109L15.6356 31.6514L15.3716 29.7656C15.4344 29.7028 15.4674 29.6156 15.461 29.5272C15.4557 29.4602 15.3972 29.4091 15.3301 29.4144C15.3046 29.4166 15.2812 29.4262 15.261 29.4421C15.1631 29.5028 15.1056 29.6124 15.1141 29.7273C15.1173 29.7912 15.1716 29.8391 15.2354 29.8359C15.2418 29.8359 15.2471 29.8348 15.2525 29.8337L15.5185 31.6854C15.5217 31.7067 15.5366 31.7238 15.5568 31.7312L16.6338 32.1888L16.9286 34.2448L17.0414 34.1767Z" fill="white"/>
<path id="Vector_16" d="M7.88452 39.4637L7.46735 36.5531C7.53014 36.4903 7.56313 36.4031 7.55674 36.3137C7.54185 36.2073 7.45032 36.1743 7.35667 36.2296C7.25877 36.2903 7.2013 36.3999 7.20982 36.5148C7.21194 36.5776 7.26409 36.6265 7.32581 36.6244C7.33326 36.6244 7.34071 36.6234 7.34816 36.6212L7.76533 39.5329L7.88452 39.4637Z" fill="white"/>
<path id="Vector_17" d="M19.2778 24.5018L18.1667 24.0304C18.1465 24.0198 18.1231 24.0198 18.1029 24.0304L17.7134 24.2592L17.2132 20.7697L18.0241 19.1979C18.0263 19.1894 18.0263 19.1787 18.0241 19.1702L17.6559 16.6002C17.6517 16.5789 17.6378 16.5619 17.6176 16.5533L16.5055 16.0819C16.4853 16.0723 16.4619 16.0723 16.4417 16.0819L16.049 16.3086L15.6233 13.3288C15.619 13.3075 15.6041 13.2895 15.5839 13.282L14.507 12.8276L14.2941 11.343L15.6776 10.5417L16.7205 10.9844L17.3122 15.1135C17.2483 15.1763 17.2164 15.2635 17.2228 15.3529C17.2377 15.4594 17.3292 15.4923 17.4229 15.437C17.5208 15.3774 17.5782 15.2678 17.5697 15.1529C17.5665 15.089 17.5122 15.0411 17.4495 15.0443C17.4431 15.0443 17.4367 15.0454 17.4303 15.0464L16.8439 10.9482C16.8407 10.9269 16.8258 10.9099 16.8056 10.9025L15.6935 10.431C15.6733 10.4214 15.6499 10.4214 15.6297 10.431L14.2728 11.2153L13.4885 5.71875L13.3693 5.78686L14.1547 11.2834L13.729 11.5271L12.6648 11.0855L12.0199 6.56266L11.9018 6.63077L12.5403 11.1227C12.5435 11.144 12.5584 11.1611 12.5786 11.1685L13.7077 11.6399C13.728 11.6495 13.7503 11.6495 13.7705 11.6399L14.1643 11.4133L14.3771 12.8659C14.3814 12.8872 14.3963 12.9053 14.4165 12.9127L15.4998 13.3597L15.9319 16.3756L12.6755 18.2561L11.9529 13.2096C11.9486 13.1884 11.9348 13.1713 11.9146 13.1628L10.281 12.47L9.63506 7.93867L9.51693 8.00678L10.1576 12.5083C10.1608 12.5296 10.1757 12.5466 10.1959 12.5541L11.8294 13.2533L12.5573 18.3316L10.2055 19.6885L9.16255 19.2468L7.70992 9.05607L7.5918 9.12525L9.04336 19.2798C9.04656 19.3011 9.06145 19.3192 9.08167 19.3266L10.1927 19.7981C10.2129 19.8077 10.2363 19.8077 10.2565 19.7981L12.5786 18.4583L12.8383 20.278C12.7755 20.3408 12.7436 20.4281 12.75 20.5175C12.7638 20.6239 12.8564 20.6569 12.949 20.6026C13.0469 20.542 13.1043 20.4323 13.0958 20.3174C13.0937 20.2546 13.0405 20.2057 12.9777 20.2089C12.9713 20.2089 12.9649 20.2099 12.9575 20.211L12.6968 18.3912L15.9532 16.5108L16.3789 19.4597C16.3161 19.5225 16.2831 19.6097 16.2895 19.6991C16.2948 19.7662 16.3533 19.8172 16.4204 19.8119C16.4459 19.8098 16.4693 19.8002 16.4896 19.7843C16.5875 19.7236 16.6449 19.614 16.6364 19.499C16.6343 19.4363 16.5811 19.3873 16.5183 19.3905C16.5119 19.3905 16.5055 19.3916 16.4981 19.3926L16.0724 16.4437L16.4981 16.199L17.541 16.6417L17.9028 19.167L17.093 20.7388C17.0908 20.7473 17.0908 20.758 17.093 20.7665L17.6038 24.3337L16.2767 25.0999L15.353 18.6519C15.4168 18.5892 15.4498 18.5019 15.4424 18.4136C15.4285 18.3071 15.336 18.2731 15.2423 18.3284C15.1444 18.3891 15.088 18.4987 15.0955 18.6136C15.0997 18.6775 15.154 18.7264 15.2189 18.7222C15.2242 18.7222 15.2295 18.7211 15.2349 18.7201L16.1575 25.167L14.8305 25.9342L14.2015 21.5423C14.2654 21.4795 14.2984 21.3923 14.2909 21.3039C14.2856 21.2369 14.2271 21.1858 14.16 21.1911C14.1345 21.1932 14.1111 21.2028 14.0909 21.2188C13.9929 21.2794 13.9355 21.3891 13.944 21.504C13.9472 21.5678 14.0015 21.6157 14.0642 21.6125C14.0706 21.6125 14.077 21.6115 14.0834 21.6104L14.7113 26.0013L12.4201 27.3241L12.2913 26.4227L13.2257 25.8832C13.2438 25.8736 13.2533 25.8544 13.2501 25.8342L12.9032 23.4047C12.966 23.3419 12.999 23.2546 12.9915 23.1663C12.9777 23.0599 12.8851 23.0258 12.7925 23.0811C12.6946 23.1418 12.6372 23.2514 12.6457 23.3663C12.6478 23.4291 12.701 23.4781 12.7638 23.4749C12.7702 23.4749 12.7766 23.4738 12.784 23.4728L13.1182 25.8065L12.171 26.3429C12.154 26.3525 12.1434 26.3716 12.1455 26.3919L12.2892 27.389L11.4431 27.8764L10.446 20.9155C10.5098 20.8527 10.5418 20.7654 10.5354 20.676C10.5215 20.5696 10.4289 20.5356 10.3353 20.5909C10.2374 20.6516 10.181 20.7612 10.1884 20.8761C10.1916 20.94 10.2459 20.9879 10.3087 20.9847C10.3151 20.9847 10.3215 20.9836 10.3278 20.9825L11.3282 27.9466L10.9025 28.1903L9.8596 27.7476L9.42222 24.6945C9.41902 24.6732 9.40413 24.6561 9.38391 24.6487L8.30694 24.1911L8.2069 23.494C8.27075 23.4313 8.30375 23.344 8.2963 23.2557C8.29098 23.1886 8.23244 23.1375 8.1654 23.1429C8.13986 23.145 8.11645 23.1546 8.09623 23.1705C7.99832 23.2312 7.94085 23.3408 7.94937 23.4557C7.9515 23.5185 8.00471 23.5675 8.06749 23.5653C8.07494 23.5653 8.08133 23.5643 8.08878 23.5622L8.18349 24.2283C8.18775 24.2486 8.20265 24.2667 8.2218 24.2741L9.29983 24.7317L9.73616 27.7849C9.74041 27.8062 9.75531 27.8232 9.77553 27.8307L10.8866 28.3021C10.9068 28.3127 10.9302 28.3127 10.9504 28.3021L11.3431 28.0754L11.6985 30.5507C11.7017 30.572 11.7166 30.5891 11.7368 30.5965L12.8138 31.0541L13.5502 36.1942L13.6684 36.1261L12.9373 31.0179C12.933 30.9977 12.9181 30.9796 12.899 30.9722L11.8209 30.5146L11.4623 28.0073L12.3073 27.5135L12.5137 28.9608C12.518 28.9821 12.5329 28.9991 12.5531 29.0066L13.6301 29.4642L14.5133 35.6365L14.6315 35.5684L13.7535 29.4291C13.7492 29.4078 13.7343 29.3908 13.7141 29.3833L12.6372 28.9257L12.4243 27.4465L14.7166 26.1301L15.071 28.6054C15.0752 28.6267 15.0901 28.6448 15.1104 28.6522L17.2983 29.5802L17.8879 33.6859L18.006 33.6167L17.4218 29.5355C17.4186 29.5142 17.4037 29.4961 17.3835 29.4887L15.1944 28.5607L14.84 26.0566L16.1671 25.2893L16.5215 27.7657C16.5257 27.787 16.5406 27.804 16.5609 27.8115L18.1933 28.5043L18.8563 33.1314L18.9745 33.0622L18.3125 28.4713C18.3083 28.45 18.2944 28.433 18.2742 28.4245L16.6407 27.7264L16.282 25.2191L17.6091 24.4529L17.9432 26.7867C17.8805 26.8495 17.8475 26.9367 17.8549 27.0261C17.8688 27.1325 17.9613 27.1655 18.0539 27.1102C18.1518 27.0506 18.2093 26.941 18.2008 26.826C18.1987 26.7633 18.1454 26.7143 18.0827 26.7175C18.0763 26.7175 18.0699 26.7186 18.0624 26.7196L17.7283 24.3848L18.154 24.1411L19.1969 24.5838L20.3015 32.295L20.4196 32.2269L19.3203 24.5465C19.315 24.5253 19.299 24.5082 19.2778 24.5018Z" fill="white"/>
<path id="Vector_18" d="M9.81146 38.3513L9.00693 32.7292C9.00267 32.7089 8.98778 32.6908 8.96862 32.6834L7.89059 32.2258L7.17225 27.2081C7.23611 27.1453 7.26803 27.058 7.26165 26.9687C7.25633 26.9016 7.1978 26.8505 7.13075 26.8558C7.10521 26.858 7.0818 26.8676 7.06158 26.8835C6.96367 26.9442 6.90727 27.0538 6.91472 27.1687C6.91791 27.2326 6.97219 27.2805 7.03497 27.2773C7.04136 27.2773 7.04774 27.2762 7.05413 27.2751L7.76821 32.262C7.7714 32.2833 7.7863 32.3013 7.80652 32.3077L8.88348 32.7653L9.69334 38.4205L9.81146 38.3513Z" fill="white"/>
<path id="Vector_19" d="M15.5966 35.0115L15.4008 33.643C15.4646 33.5802 15.4976 33.4929 15.4902 33.4035C15.4753 33.2971 15.3837 33.2641 15.2901 33.3194C15.1922 33.3801 15.1358 33.4897 15.1432 33.6047C15.1454 33.6674 15.1986 33.7164 15.2614 33.7143C15.2688 33.7143 15.2752 33.7132 15.2826 33.7111L15.4795 35.0796L15.5966 35.0115Z" fill="white"/>
<path id="Vector_20" d="M14.3379 5.2288L14.6859 7.67646C14.6891 7.69774 14.704 7.71477 14.7242 7.72222L15.8012 8.17982L15.998 9.54945C15.9342 9.61223 15.9012 9.6995 15.9086 9.78783C15.9225 9.89425 16.0151 9.9283 16.1087 9.87296C16.2066 9.8123 16.263 9.70269 16.2556 9.58776C16.2524 9.52391 16.1981 9.47602 16.1353 9.47921C16.1289 9.47921 16.1225 9.48027 16.1162 9.48134L15.9246 8.14364C15.9204 8.12236 15.9065 8.10533 15.8863 8.09788L14.8093 7.63495L14.4571 5.16602L14.3379 5.2288Z" fill="white"/>
<path id="Vector_21" d="M16.2656 4.11587L16.52 5.90372C16.4561 5.96651 16.4231 6.05378 16.4306 6.14211C16.4444 6.24852 16.537 6.28258 16.6296 6.22724C16.7275 6.16658 16.785 6.05697 16.7764 5.94204C16.7743 5.87925 16.7211 5.8303 16.6583 5.83349C16.6519 5.83349 16.6455 5.83455 16.6381 5.83562L16.3848 4.04883L16.2656 4.11587Z" fill="white"/>
<path id="Vector_22" d="M15.3008 4.67234L15.6488 7.11999C15.652 7.14128 15.6669 7.1583 15.6871 7.16575L16.7641 7.62336L17.0344 9.50699C16.9705 9.56978 16.9375 9.65704 16.945 9.74537C16.9503 9.81241 17.0088 9.86349 17.0759 9.85817C17.1014 9.85604 17.1248 9.84647 17.145 9.8305C17.2429 9.76984 17.2993 9.66023 17.2919 9.5453C17.2887 9.48145 17.2344 9.43356 17.1716 9.43675C17.1653 9.43675 17.1589 9.43781 17.1525 9.43888L16.8875 7.58718C16.8832 7.56589 16.8694 7.54886 16.8492 7.54142L15.7722 7.08168L15.42 4.60742L15.3008 4.67234Z" fill="white"/>
<path id="Vector_23" d="M19.8343 23.2912L19.0893 22.972L18.7466 20.5743C18.8094 20.5116 18.8414 20.4243 18.835 20.336C18.8211 20.2295 18.7286 20.1955 18.636 20.2508C18.5381 20.3115 18.4806 20.4211 18.4891 20.536C18.4912 20.5988 18.5445 20.6478 18.6072 20.6446C18.6136 20.6446 18.62 20.6435 18.6275 20.6425L18.9659 23.0082C18.9701 23.0295 18.985 23.0465 19.0052 23.0539L19.8502 23.4136L19.8343 23.2912Z" fill="white"/>
<path id="Vector_24" d="M12.222 36.9602L11.5643 32.365C11.5611 32.3437 11.5462 32.3267 11.526 32.3193L9.33695 31.3902L8.53242 25.7659C8.52816 25.7446 8.51326 25.7276 8.49304 25.7202L6.8595 25.0274L6.29548 21.0898C6.35933 21.0271 6.39232 20.9398 6.38487 20.8515C6.37955 20.7844 6.32102 20.7333 6.25397 20.7387C6.22843 20.7408 6.20502 20.7504 6.1848 20.7663C6.08689 20.827 6.02943 20.9366 6.03794 21.0515C6.04113 21.1154 6.09541 21.1633 6.15926 21.1601C6.16564 21.1601 6.17097 21.159 6.17629 21.158L6.73712 25.0668C6.74137 25.088 6.75627 25.1061 6.77649 25.1136L8.40897 25.8064L9.21457 31.4307C9.21776 31.4519 9.23266 31.469 9.25288 31.4764L11.4409 32.4055L12.1039 37.0315L12.222 36.9602Z" fill="white"/>
<path id="Vector_25" d="M11.2572 37.5175L11.0444 36.0074C11.0412 35.9861 11.0263 35.968 11.0061 35.9616L10.4846 35.7392L10.2143 33.8567C10.2782 33.7939 10.3101 33.7066 10.3037 33.6172C10.2899 33.5108 10.1973 33.4767 10.1047 33.5321C10.0068 33.5927 9.94935 33.7024 9.95786 33.8173C9.95999 33.8801 10.0132 33.929 10.076 33.9258C10.0824 33.9258 10.0888 33.9248 10.0962 33.9237L10.3612 35.7754C10.3654 35.7967 10.3793 35.8137 10.3995 35.8212L10.921 36.0436L11.1423 37.5845L11.2572 37.5175Z" fill="white"/>
<path id="Vector_26" d="M10.3961 13.489L9.31807 13.0314L8.66891 8.5L8.55078 8.56917L9.1893 13.0686C9.19249 13.0899 9.20739 13.1069 9.22761 13.1144L10.3046 13.572L10.7217 16.4836C10.6579 16.5464 10.6249 16.6337 10.6324 16.722C10.6377 16.789 10.6962 16.8401 10.7632 16.8348C10.7888 16.8327 10.8122 16.8231 10.8324 16.8071C10.9303 16.7465 10.9878 16.6369 10.9793 16.5219C10.9761 16.4581 10.9218 16.4102 10.858 16.4134C10.8516 16.4134 10.8463 16.4144 10.8409 16.4155L10.428 13.5358C10.4248 13.5156 10.4131 13.4985 10.3961 13.489Z" fill="white"/>
<path id="Vector_27" d="M13.4347 12.8471L11.2456 11.9181L10.5997 7.38672L10.4805 7.45483L11.119 11.9553C11.1222 11.9766 11.1371 11.9936 11.1573 12.0011L13.3506 12.9344L13.6209 14.8169C13.5571 14.8797 13.5251 14.967 13.5315 15.0564C13.5368 15.1234 13.5954 15.1745 13.6624 15.1692C13.688 15.1671 13.7114 15.1575 13.7316 15.1415C13.8338 15.0809 13.8923 14.9681 13.8827 14.8499C13.8785 14.7861 13.8242 14.7371 13.7593 14.7414C13.7539 14.7414 13.7486 14.7425 13.7433 14.7435L13.4783 12.8918C13.473 12.8695 13.456 12.8524 13.4347 12.8471Z" fill="white"/>
</g>
</g>
</g>
<g id="freepik--Android--inject-39">
<g id="freepik--Cables--inject-39">
<path id="Vector_28" d="M15.2457 32.4297C15.1563 32.4297 15.068 32.4062 14.9903 32.3605C14.7083 32.1977 14.5391 31.7603 14.5391 31.1899C14.5391 30.2683 14.9786 29.2647 15.5192 28.9551C15.6937 28.8359 15.9204 28.8252 16.1056 28.9263C16.3886 29.0902 16.5578 29.5265 16.5578 30.0969C16.5578 31.0185 16.1183 32.0231 15.5777 32.3318C15.4777 32.3935 15.3628 32.4275 15.2457 32.4297ZM15.5777 29.0551C15.069 29.3477 14.6561 30.3066 14.6561 31.1909C14.6561 31.7177 14.803 32.1168 15.0488 32.2551C15.1989 32.3339 15.3798 32.3222 15.5192 32.2264C16.0268 31.9327 16.4408 30.9738 16.4408 30.0895C16.4408 29.5574 16.2939 29.1636 16.047 29.0253C15.897 28.9465 15.7161 28.9582 15.5777 29.0551Z" fill="#3B82F6"/>
<path id="Vector_29" d="M14.2714 30.1634H14.2554C14.2246 30.1538 14.2065 30.1219 14.215 30.091C14.3023 29.7718 14.4225 29.4631 14.5736 29.1694C14.5885 29.1396 14.6247 29.1279 14.6545 29.1439C14.6843 29.1598 14.696 29.195 14.68 29.2248C14.5321 29.511 14.4161 29.8122 14.331 30.1229C14.3235 30.1485 14.298 30.1666 14.2714 30.1644V30.1634Z" fill="#3B82F6"/>
<path id="Vector_30" d="M14.0937 31.4534C14.0618 31.4534 14.0352 31.4267 14.0352 31.3948C14.0352 31.1745 14.0511 30.9542 14.083 30.7361C14.0873 30.7042 14.1171 30.6818 14.149 30.6861C14.181 30.6903 14.2033 30.7201 14.199 30.752C14.1682 30.9638 14.1533 31.1767 14.1522 31.3906C14.1543 31.4225 14.1299 31.4512 14.0979 31.4534C14.0969 31.4534 14.0948 31.4534 14.0937 31.4534Z" fill="#3B82F6"/>
<path id="Vector_31" d="M15.0275 33.2251H15.0212C14.5795 33.174 14.2017 32.7399 14.0793 32.146C14.0687 32.1152 14.0857 32.0822 14.1166 32.0715C14.1475 32.0609 14.1804 32.0779 14.1911 32.1088C14.1922 32.113 14.1932 32.1173 14.1943 32.1226C14.3241 32.7516 14.7104 33.0708 15.035 33.1091C15.0669 33.1113 15.0925 33.1389 15.0903 33.1709C15.0882 33.2028 15.0605 33.2283 15.0286 33.2262L15.0275 33.2251Z" fill="#3B82F6"/>
<path id="Vector_32" d="M15.6317 33.0495C15.5998 33.0495 15.5732 33.0229 15.5742 32.9899C15.5742 32.9707 15.5838 32.9537 15.5987 32.943C15.7658 32.8249 15.9137 32.6812 16.0361 32.5174C16.0563 32.4918 16.0925 32.4865 16.1191 32.5057C16.1447 32.5259 16.15 32.5621 16.1298 32.5887C15.9989 32.7621 15.8424 32.9154 15.6647 33.0409C15.6551 33.0473 15.6434 33.0505 15.6317 33.0495Z" fill="#3B82F6"/>
<path id="Vector_33" d="M16.4353 32.0401C16.4258 32.0401 16.4173 32.038 16.4087 32.0337C16.38 32.0188 16.3683 31.9837 16.3832 31.955C16.7056 31.2963 16.877 30.5726 16.8823 29.8394C16.8823 29.0593 16.6631 28.4665 16.2938 28.2537C16.081 28.1324 15.8373 28.1473 15.5797 28.2963C15.5521 28.3122 15.5159 28.3027 15.4999 28.2739C15.484 28.2463 15.4935 28.2111 15.5212 28.1941C15.817 28.0238 16.1044 28.0089 16.3523 28.1526C16.7578 28.3867 16.9994 29.0167 16.9994 29.8394C16.994 30.5918 16.8185 31.3324 16.4875 32.0071C16.4779 32.0274 16.4577 32.0401 16.4353 32.0401Z" fill="#3B82F6"/>
<path id="Vector_34" d="M8.92996 25.9898C8.87782 25.9898 8.82567 25.976 8.78097 25.9494C8.61922 25.8568 8.52344 25.611 8.52344 25.2928C8.52344 24.7735 8.76288 24.2286 9.06937 24.0519C9.17153 23.9838 9.30349 23.9774 9.41098 24.036C9.57274 24.1296 9.66851 24.3744 9.66851 24.6936C9.66851 25.2119 9.42907 25.7578 9.12258 25.9345C9.06405 25.9696 8.99807 25.9888 8.92996 25.9898ZM9.26093 24.102C9.21197 24.103 9.16408 24.1179 9.12258 24.1445C8.85121 24.301 8.62986 24.816 8.62986 25.2928C8.62986 25.5684 8.70754 25.7844 8.83418 25.8579C8.90974 25.8973 9.0002 25.8909 9.06937 25.8419C9.34074 25.6855 9.56209 25.1693 9.56209 24.6936C9.56209 24.417 9.48334 24.2009 9.35777 24.1286C9.32903 24.1105 9.29498 24.102 9.26093 24.102Z" fill="#3B82F6"/>
<path id="Vector_35" d="M8.39967 24.7477H8.38477C8.35604 24.7392 8.34008 24.7104 8.34753 24.6817C8.39542 24.5061 8.46246 24.3369 8.54547 24.1751C8.5593 24.1485 8.59123 24.139 8.61783 24.1528C8.64444 24.1666 8.65402 24.1986 8.64018 24.2252C8.5593 24.3805 8.49651 24.5434 8.45075 24.7115C8.4433 24.7338 8.42308 24.7487 8.39967 24.7487V24.7477Z" fill="#3B82F6"/>
<path id="Vector_36" d="M8.2993 25.4575C8.26951 25.4575 8.24609 25.434 8.24609 25.4042C8.24609 25.2829 8.25567 25.1616 8.2727 25.0414C8.27696 25.0126 8.30462 24.9924 8.33336 24.9967C8.36209 25.0009 8.38231 25.0265 8.37805 25.0552C8.36103 25.1701 8.35251 25.2872 8.35251 25.4032C8.35251 25.433 8.3291 25.4564 8.2993 25.4564V25.4575Z" fill="#3B82F6"/>
<path id="Vector_37" d="M8.81315 26.4247H8.80676C8.55774 26.3949 8.34277 26.1512 8.27467 25.8181C8.26828 25.7883 8.28744 25.7596 8.31723 25.7532C8.34703 25.7468 8.37576 25.766 8.38109 25.7957C8.44919 26.1299 8.65139 26.2991 8.82166 26.3183C8.85146 26.3204 8.87381 26.3449 8.87168 26.3747C8.86955 26.4045 8.84508 26.4268 8.81528 26.4247H8.81315Z" fill="#3B82F6"/>
<path id="Vector_38" d="M9.1431 26.3256C9.12607 26.3256 9.10904 26.3182 9.09946 26.3033C9.08244 26.2788 9.08882 26.2458 9.11223 26.2288C9.20163 26.166 9.28144 26.0883 9.34636 26C9.36232 25.9755 9.39638 25.9691 9.41979 25.9861C9.44426 26.0021 9.45065 26.0361 9.43362 26.0596C9.43256 26.0617 9.43149 26.0627 9.42937 26.0649C9.357 26.1617 9.26974 26.2469 9.17077 26.3171C9.16225 26.3235 9.15161 26.3256 9.14097 26.3256H9.1431Z" fill="#3B82F6"/>
<path id="Vector_39" d="M9.58045 25.7782C9.57193 25.7782 9.56448 25.7771 9.55703 25.7728C9.53043 25.7601 9.51979 25.7281 9.53256 25.7015C9.70815 25.345 9.80074 24.9534 9.80393 24.5554C9.80393 24.1372 9.68793 23.82 9.49318 23.704C9.37506 23.6423 9.23352 23.6519 9.12391 23.7274C9.0973 23.7392 9.06537 23.7274 9.05367 23.7008C9.04303 23.6774 9.05048 23.6508 9.0707 23.6359C9.21223 23.5391 9.39634 23.5306 9.54639 23.6125C9.77413 23.7434 9.91035 24.0957 9.91035 24.5522C9.90609 24.9672 9.80925 25.377 9.62514 25.7494C9.61663 25.7664 9.5996 25.7771 9.58045 25.7782Z" fill="#3B82F6"/>
<path id="Vector_40" d="M13.1546 23.3493C13.1024 23.3493 13.0503 23.3355 13.0056 23.3089C12.8438 23.2152 12.748 22.9705 12.748 22.6512C12.748 22.1329 12.9875 21.587 13.294 21.4103C13.3961 21.3433 13.5281 21.3369 13.6356 21.3954C13.7963 21.488 13.8931 21.7339 13.8931 22.0521C13.8931 22.5714 13.6526 23.1163 13.3472 23.2929C13.2887 23.328 13.2227 23.3483 13.1546 23.3493ZM13.4855 21.4604C13.4366 21.4625 13.3887 21.4774 13.3472 21.5029C13.0748 21.6594 12.8545 22.1755 12.8545 22.6512C12.8545 22.9279 12.9322 23.1439 13.0588 23.2163C13.1333 23.2567 13.2248 23.2503 13.294 23.2003C13.5654 23.0439 13.7867 22.5288 13.7867 22.0521C13.7867 21.7764 13.708 21.5604 13.5824 21.487C13.5526 21.4699 13.5196 21.4604 13.4855 21.4604Z" fill="#3B82F6"/>
<path id="Vector_41" d="M12.6223 22.111C12.6223 22.111 12.6127 22.111 12.6074 22.111C12.5797 22.1035 12.5627 22.0758 12.5701 22.0471C12.5701 22.0471 12.5701 22.0471 12.5701 22.046C12.618 21.8704 12.685 21.7002 12.7681 21.5384C12.7819 21.5118 12.8138 21.5022 12.8404 21.5161C12.867 21.5299 12.8766 21.5618 12.8628 21.5884C12.783 21.7438 12.7191 21.9066 12.6733 22.0758C12.6659 22.0982 12.6457 22.112 12.6223 22.112V22.111Z" fill="#3B82F6"/>
<path id="Vector_42" d="M12.5239 22.8149C12.4941 22.8149 12.4707 22.7915 12.4707 22.7617C12.4707 22.6404 12.4803 22.519 12.4973 22.3988C12.5026 22.37 12.5292 22.3498 12.558 22.3541C12.5867 22.3583 12.6069 22.386 12.6027 22.4147C12.5856 22.5297 12.5771 22.6457 12.5771 22.7617C12.5771 22.7915 12.5537 22.8149 12.5239 22.8149Z" fill="#3B82F6"/>
<path id="Vector_43" d="M13.0358 23.7836H13.0294C12.7793 23.7538 12.5654 23.5101 12.4973 23.177C12.4909 23.1483 12.5101 23.1206 12.5388 23.1142C12.5676 23.1089 12.5952 23.127 12.6016 23.1557C12.6697 23.4888 12.8719 23.658 13.0422 23.6782C13.072 23.6804 13.0943 23.7048 13.0922 23.7346C13.0901 23.7644 13.0656 23.7868 13.0358 23.7847V23.7836Z" fill="#3B82F6"/>
<path id="Vector_44" d="M13.3666 23.6838C13.3368 23.6838 13.3134 23.6594 13.3145 23.6296C13.3145 23.6125 13.323 23.5966 13.3368 23.587C13.4262 23.5231 13.505 23.4455 13.571 23.3582C13.5901 23.3358 13.6242 23.3337 13.6465 23.3529C13.6667 23.371 13.671 23.4008 13.655 23.4231C13.5827 23.52 13.4954 23.604 13.3964 23.6743C13.3879 23.6806 13.3773 23.6838 13.3666 23.6838Z" fill="#3B82F6"/>
<path id="Vector_45" d="M13.8041 23.1368C13.7967 23.1389 13.7882 23.1389 13.7807 23.1368C13.7552 23.124 13.7435 23.0921 13.7562 23.0655C13.9318 22.709 14.0244 22.3174 14.0276 21.9194C14.0276 21.5001 13.9106 21.184 13.7169 21.068C13.5987 21.0063 13.4572 21.0159 13.3476 21.0914C13.3221 21.1053 13.2891 21.0968 13.2742 21.0712C13.2603 21.0457 13.2688 21.0137 13.2944 20.9988C13.4359 20.9031 13.62 20.8935 13.7701 20.9754C13.9978 21.1074 14.134 21.4586 14.134 21.9162C14.1308 22.3302 14.034 22.7377 13.852 23.1092C13.8425 23.1262 13.8244 23.1368 13.8041 23.1368Z" fill="#3B82F6"/>
<path id="Vector_46" d="M12.4642 14.5523C12.4121 14.5523 12.3599 14.5396 12.3142 14.513C12.1535 14.4193 12.0566 14.1735 12.0566 13.8553C12.0566 13.336 12.2971 12.7911 12.6026 12.6144C12.7047 12.5463 12.8367 12.5399 12.9452 12.5985C13.1059 12.6921 13.2017 12.938 13.2017 13.2561C13.2017 13.7755 12.9623 14.3203 12.6558 14.497C12.5983 14.5321 12.5323 14.5513 12.4642 14.5523ZM12.7941 12.6645C12.7452 12.6655 12.6973 12.6804 12.6558 12.707C12.3844 12.8635 12.1631 13.3785 12.1631 13.8553C12.1631 14.1309 12.2418 14.348 12.3674 14.4204C12.4429 14.4598 12.5334 14.4544 12.6026 14.4044C12.8739 14.248 13.0953 13.7329 13.0953 13.2561C13.0953 12.9805 13.0176 12.7634 12.892 12.6911C12.8622 12.674 12.8282 12.6645 12.7941 12.6645Z" fill="#3B82F6"/>
<path id="Vector_47" d="M11.9317 13.3141H11.9179C11.8902 13.3066 11.8732 13.279 11.8807 13.2502C11.8807 13.2502 11.8807 13.2502 11.8807 13.2492C11.9285 13.0736 11.9945 12.9033 12.0775 12.7415C12.0914 12.7149 12.1233 12.7054 12.1499 12.7192C12.1765 12.733 12.1861 12.765 12.1722 12.7916C12.0924 12.9469 12.0296 13.1098 11.9828 13.2779C11.9764 13.3002 11.9552 13.3151 11.9317 13.3151V13.3141Z" fill="#3B82F6"/>
<path id="Vector_48" d="M11.8325 14.0191C11.8027 14.0191 11.7793 13.9957 11.7793 13.9659C11.7793 13.8445 11.7878 13.7232 11.8059 13.603C11.8102 13.5732 11.8368 13.5529 11.8666 13.5572C11.8964 13.5615 11.9166 13.5881 11.9123 13.6179C11.8953 13.7328 11.8868 13.8499 11.8868 13.9659C11.8868 13.9957 11.8634 14.0191 11.8336 14.0191C11.8336 14.0191 11.8336 14.0191 11.8325 14.0191Z" fill="#3B82F6"/>
<path id="Vector_49" d="M12.3464 14.9871H12.34C12.0899 14.9573 11.876 14.7136 11.8079 14.3805C11.8015 14.3517 11.8206 14.3241 11.8494 14.3177C11.877 14.3113 11.9058 14.3294 11.9122 14.3571C11.9122 14.3571 11.9122 14.3581 11.9122 14.3592C11.9813 14.6923 12.1835 14.8615 12.3527 14.8807C12.3815 14.8849 12.4028 14.9104 12.3996 14.9402C12.3964 14.9669 12.373 14.9871 12.3464 14.9871Z" fill="#3B82F6"/>
<path id="Vector_50" d="M12.6738 14.8905C12.6568 14.8905 12.6398 14.8819 12.6302 14.867C12.6142 14.8426 12.6195 14.8096 12.644 14.7926C12.7345 14.7298 12.8132 14.6521 12.8781 14.5638C12.8962 14.5403 12.9303 14.5361 12.9537 14.5542C12.9771 14.5723 12.9814 14.6063 12.9622 14.6297C12.8899 14.7266 12.8037 14.8117 12.7047 14.8809C12.6951 14.8873 12.6845 14.8905 12.6738 14.8905Z" fill="#3B82F6"/>
<path id="Vector_51" d="M13.1108 14.3408C13.1023 14.3408 13.0948 14.3387 13.0874 14.3344C13.0619 14.3217 13.0501 14.2908 13.0629 14.2653C13.0629 14.2653 13.0629 14.2642 13.0629 14.2631C13.2374 13.9056 13.33 13.5139 13.3332 13.117C13.3332 12.6988 13.2172 12.3816 13.0225 12.2656C12.9044 12.2039 12.7628 12.2124 12.6532 12.288C12.6266 12.2997 12.5947 12.288 12.583 12.2614C12.5723 12.238 12.5798 12.2114 12.6 12.1965C12.7415 12.0996 12.9256 12.0911 13.0757 12.1731C13.3034 12.305 13.4396 12.6562 13.4396 13.1127C13.4365 13.5267 13.3407 13.9354 13.1576 14.3068C13.1502 14.327 13.131 14.3408 13.1097 14.3408H13.1108Z" fill="#3B82F6"/>
<g id="Group_2" opacity="0.8">
<path id="Vector_52" d="M15.2457 32.4297C15.1563 32.4297 15.068 32.4062 14.9903 32.3605C14.7083 32.1977 14.5391 31.7603 14.5391 31.1899C14.5391 30.2683 14.9786 29.2647 15.5192 28.9551C15.6937 28.8359 15.9204 28.8252 16.1056 28.9263C16.3886 29.0902 16.5578 29.5265 16.5578 30.0969C16.5578 31.0185 16.1183 32.0231 15.5777 32.3318C15.4777 32.3935 15.3628 32.4275 15.2457 32.4297ZM15.5777 29.0551C15.069 29.3477 14.6561 30.3066 14.6561 31.1909C14.6561 31.7177 14.803 32.1168 15.0488 32.2551C15.1989 32.3339 15.3798 32.3222 15.5192 32.2264C16.0268 31.9327 16.4408 30.9738 16.4408 30.0895C16.4408 29.5574 16.2939 29.1636 16.047 29.0253C15.897 28.9465 15.7161 28.9582 15.5777 29.0551Z" fill="white"/>
<path id="Vector_53" d="M14.2714 30.1634H14.2554C14.2246 30.1538 14.2065 30.1219 14.215 30.091C14.3023 29.7718 14.4225 29.4631 14.5736 29.1694C14.5885 29.1396 14.6247 29.1279 14.6545 29.1439C14.6843 29.1598 14.696 29.195 14.68 29.2248C14.5321 29.511 14.4161 29.8122 14.331 30.1229C14.3235 30.1485 14.298 30.1666 14.2714 30.1644V30.1634Z" fill="white"/>
<path id="Vector_54" d="M14.0937 31.4534C14.0618 31.4534 14.0352 31.4267 14.0352 31.3948C14.0352 31.1745 14.0511 30.9542 14.083 30.7361C14.0873 30.7042 14.1171 30.6818 14.149 30.6861C14.181 30.6903 14.2033 30.7201 14.199 30.752C14.1682 30.9638 14.1533 31.1767 14.1522 31.3906C14.1543 31.4225 14.1299 31.4512 14.0979 31.4534C14.0969 31.4534 14.0948 31.4534 14.0937 31.4534Z" fill="white"/>
<path id="Vector_55" d="M15.0275 33.2251H15.0212C14.5795 33.174 14.2017 32.7399 14.0793 32.146C14.0687 32.1152 14.0857 32.0822 14.1166 32.0715C14.1475 32.0609 14.1804 32.0779 14.1911 32.1088C14.1922 32.113 14.1932 32.1173 14.1943 32.1226C14.3241 32.7516 14.7104 33.0708 15.035 33.1091C15.0669 33.1113 15.0925 33.1389 15.0903 33.1709C15.0882 33.2028 15.0605 33.2283 15.0286 33.2262L15.0275 33.2251Z" fill="white"/>
<path id="Vector_56" d="M15.6317 33.0495C15.5998 33.0495 15.5732 33.0229 15.5742 32.9899C15.5742 32.9707 15.5838 32.9537 15.5987 32.943C15.7658 32.8249 15.9137 32.6812 16.0361 32.5174C16.0563 32.4918 16.0925 32.4865 16.1191 32.5057C16.1447 32.5259 16.15 32.5621 16.1298 32.5887C15.9989 32.7621 15.8424 32.9154 15.6647 33.0409C15.6551 33.0473 15.6434 33.0505 15.6317 33.0495Z" fill="white"/>
<path id="Vector_57" d="M16.4353 32.0401C16.4258 32.0401 16.4173 32.038 16.4087 32.0337C16.38 32.0188 16.3683 31.9837 16.3832 31.955C16.7056 31.2963 16.877 30.5726 16.8823 29.8394C16.8823 29.0593 16.6631 28.4665 16.2938 28.2537C16.081 28.1324 15.8373 28.1473 15.5797 28.2963C15.5521 28.3122 15.5159 28.3027 15.4999 28.2739C15.484 28.2463 15.4935 28.2111 15.5212 28.1941C15.817 28.0238 16.1044 28.0089 16.3523 28.1526C16.7578 28.3867 16.9994 29.0167 16.9994 29.8394C16.994 30.5918 16.8185 31.3324 16.4875 32.0071C16.4779 32.0274 16.4577 32.0401 16.4353 32.0401Z" fill="white"/>
<path id="Vector_58" d="M8.92996 25.9898C8.87782 25.9898 8.82567 25.976 8.78097 25.9494C8.61922 25.8568 8.52344 25.611 8.52344 25.2928C8.52344 24.7735 8.76288 24.2286 9.06937 24.0519C9.17153 23.9838 9.30349 23.9774 9.41098 24.036C9.57274 24.1296 9.66851 24.3744 9.66851 24.6936C9.66851 25.2119 9.42907 25.7578 9.12258 25.9345C9.06405 25.9696 8.99807 25.9888 8.92996 25.9898ZM9.26093 24.102C9.21197 24.103 9.16408 24.1179 9.12258 24.1445C8.85121 24.301 8.62986 24.816 8.62986 25.2928C8.62986 25.5684 8.70754 25.7844 8.83418 25.8579C8.90974 25.8973 9.0002 25.8909 9.06937 25.8419C9.34074 25.6855 9.56209 25.1693 9.56209 24.6936C9.56209 24.417 9.48334 24.2009 9.35777 24.1286C9.32903 24.1105 9.29498 24.102 9.26093 24.102Z" fill="white"/>
<path id="Vector_59" d="M8.39967 24.7496H8.38477C8.35604 24.7411 8.34008 24.7124 8.34753 24.6836C8.39542 24.5081 8.46246 24.3388 8.54547 24.1771C8.5593 24.1505 8.59123 24.1409 8.61783 24.1547C8.64444 24.1686 8.65402 24.2005 8.64018 24.2271C8.5593 24.3825 8.49651 24.5453 8.45075 24.7134C8.4433 24.7358 8.42308 24.7507 8.39967 24.7507V24.7496Z" fill="white"/>
<path id="Vector_60" d="M8.2993 25.4575C8.26951 25.4575 8.24609 25.434 8.24609 25.4042C8.24609 25.2829 8.25567 25.1616 8.2727 25.0414C8.27696 25.0126 8.30462 24.9924 8.33336 24.9967C8.36209 25.0009 8.38231 25.0265 8.37805 25.0552C8.36103 25.1701 8.35251 25.2872 8.35251 25.4032C8.35251 25.433 8.3291 25.4564 8.2993 25.4564V25.4575Z" fill="white"/>
<path id="Vector_61" d="M8.81315 26.4266H8.80676C8.55774 26.3968 8.34277 26.1531 8.27467 25.8201C8.26828 25.7903 8.28744 25.7615 8.31723 25.7551C8.34703 25.7487 8.37576 25.7679 8.38109 25.7977C8.44919 26.1319 8.65139 26.3011 8.82166 26.3202C8.85146 26.3224 8.87381 26.3468 8.87168 26.3766C8.86955 26.4064 8.84508 26.4288 8.81528 26.4266H8.81315Z" fill="white"/>
<path id="Vector_62" d="M9.1431 26.3276C9.12607 26.3276 9.10904 26.3201 9.09946 26.3052C9.08244 26.2807 9.08882 26.2477 9.11223 26.2307C9.20163 26.1679 9.28144 26.0902 9.34636 26.0019C9.36232 25.9774 9.39638 25.971 9.41979 25.9881C9.44426 26.004 9.45065 26.0381 9.43362 26.0615C9.43256 26.0636 9.43149 26.0647 9.42937 26.0668C9.357 26.1637 9.26974 26.2488 9.17077 26.319C9.16225 26.3254 9.15161 26.3276 9.14097 26.3276H9.1431Z" fill="white"/>
<path id="Vector_63" d="M9.58045 25.7782C9.57193 25.7782 9.56448 25.7771 9.55703 25.7728C9.53043 25.7601 9.51979 25.7281 9.53256 25.7015C9.70815 25.345 9.80074 24.9534 9.80393 24.5554C9.80393 24.1372 9.68793 23.82 9.49318 23.704C9.37506 23.6423 9.23352 23.6519 9.12391 23.7274C9.0973 23.7392 9.06537 23.7274 9.05367 23.7008C9.04303 23.6774 9.05048 23.6508 9.0707 23.6359C9.21223 23.5391 9.39634 23.5306 9.54639 23.6125C9.77413 23.7434 9.91035 24.0957 9.91035 24.5522C9.90609 24.9672 9.80925 25.377 9.62514 25.7494C9.61663 25.7664 9.5996 25.7771 9.58045 25.7782Z" fill="white"/>
<path id="Vector_64" d="M13.1546 23.3493C13.1024 23.3493 13.0503 23.3355 13.0056 23.3089C12.8438 23.2152 12.748 22.9705 12.748 22.6512C12.748 22.1329 12.9875 21.587 13.294 21.4103C13.3961 21.3433 13.5281 21.3369 13.6356 21.3954C13.7963 21.488 13.8931 21.7339 13.8931 22.0521C13.8931 22.5714 13.6526 23.1163 13.3472 23.2929C13.2887 23.328 13.2227 23.3483 13.1546 23.3493ZM13.4855 21.4604C13.4366 21.4625 13.3887 21.4774 13.3472 21.5029C13.0748 21.6594 12.8545 22.1755 12.8545 22.6512C12.8545 22.9279 12.9322 23.1439 13.0588 23.2163C13.1333 23.2567 13.2248 23.2503 13.294 23.2003C13.5654 23.0439 13.7867 22.5288 13.7867 22.0521C13.7867 21.7764 13.708 21.5604 13.5824 21.487C13.5526 21.4699 13.5196 21.4604 13.4855 21.4604Z" fill="white"/>
<path id="Vector_65" d="M12.6223 22.111C12.6223 22.111 12.6127 22.111 12.6074 22.111C12.5797 22.1035 12.5627 22.0758 12.5701 22.0471C12.5701 22.0471 12.5701 22.0471 12.5701 22.046C12.618 21.8704 12.685 21.7002 12.7681 21.5384C12.7819 21.5118 12.8138 21.5022 12.8404 21.5161C12.867 21.5299 12.8766 21.5618 12.8628 21.5884C12.783 21.7438 12.7191 21.9066 12.6733 22.0758C12.6659 22.0982 12.6457 22.112 12.6223 22.112V22.111Z" fill="white"/>
<path id="Vector_66" d="M12.5239 22.8149C12.4941 22.8149 12.4707 22.7915 12.4707 22.7617C12.4707 22.6404 12.4803 22.519 12.4973 22.3988C12.5026 22.37 12.5292 22.3498 12.558 22.3541C12.5867 22.3583 12.6069 22.386 12.6027 22.4147C12.5856 22.5297 12.5771 22.6457 12.5771 22.7617C12.5771 22.7915 12.5537 22.8149 12.5239 22.8149Z" fill="white"/>
<path id="Vector_67" d="M13.0358 23.7836H13.0294C12.7793 23.7538 12.5654 23.5101 12.4973 23.177C12.4909 23.1483 12.5101 23.1206 12.5388 23.1142C12.5676 23.1089 12.5952 23.127 12.6016 23.1557C12.6697 23.4888 12.8719 23.658 13.0422 23.6782C13.072 23.6804 13.0943 23.7048 13.0922 23.7346C13.0901 23.7644 13.0656 23.7868 13.0358 23.7847V23.7836Z" fill="white"/>
<path id="Vector_68" d="M13.3666 23.6838C13.3368 23.6838 13.3134 23.6594 13.3145 23.6296C13.3145 23.6125 13.323 23.5966 13.3368 23.587C13.4262 23.5231 13.505 23.4455 13.571 23.3582C13.5901 23.3358 13.6242 23.3337 13.6465 23.3529C13.6667 23.371 13.671 23.4008 13.655 23.4231C13.5827 23.52 13.4954 23.604 13.3964 23.6743C13.3879 23.6806 13.3773 23.6838 13.3666 23.6838Z" fill="white"/>
<path id="Vector_69" d="M13.8041 23.1368C13.7967 23.1389 13.7882 23.1389 13.7807 23.1368C13.7552 23.124 13.7435 23.0921 13.7562 23.0655C13.9318 22.709 14.0244 22.3174 14.0276 21.9194C14.0276 21.5001 13.9106 21.184 13.7169 21.068C13.5987 21.0063 13.4572 21.0159 13.3476 21.0914C13.3221 21.1053 13.2891 21.0968 13.2742 21.0712C13.2603 21.0457 13.2688 21.0137 13.2944 20.9988C13.4359 20.9031 13.62 20.8935 13.7701 20.9754C13.9978 21.1074 14.134 21.4586 14.134 21.9162C14.1308 22.3302 14.034 22.7377 13.852 23.1092C13.8425 23.1262 13.8244 23.1368 13.8041 23.1368Z" fill="white"/>
<path id="Vector_70" d="M12.4642 14.5523C12.4121 14.5523 12.3599 14.5396 12.3142 14.513C12.1535 14.4193 12.0566 14.1735 12.0566 13.8553C12.0566 13.336 12.2971 12.7911 12.6026 12.6144C12.7047 12.5463 12.8367 12.5399 12.9452 12.5985C13.1059 12.6921 13.2017 12.938 13.2017 13.2561C13.2017 13.7755 12.9623 14.3203 12.6558 14.497C12.5983 14.5321 12.5323 14.5513 12.4642 14.5523ZM12.7941 12.6645C12.7452 12.6655 12.6973 12.6804 12.6558 12.707C12.3844 12.8635 12.1631 13.3785 12.1631 13.8553C12.1631 14.1309 12.2418 14.348 12.3674 14.4204C12.4429 14.4598 12.5334 14.4544 12.6026 14.4044C12.8739 14.248 13.0953 13.7329 13.0953 13.2561C13.0953 12.9805 13.0176 12.7634 12.892 12.6911C12.8622 12.674 12.8282 12.6645 12.7941 12.6645Z" fill="white"/>
<path id="Vector_71" d="M11.9317 13.3141H11.9179C11.8902 13.3066 11.8732 13.279 11.8807 13.2502C11.8807 13.2502 11.8807 13.2502 11.8807 13.2492C11.9285 13.0736 11.9945 12.9033 12.0775 12.7415C12.0914 12.7149 12.1233 12.7054 12.1499 12.7192C12.1765 12.733 12.1861 12.765 12.1722 12.7916C12.0924 12.9469 12.0296 13.1098 11.9828 13.2779C11.9764 13.3002 11.9552 13.3151 11.9317 13.3151V13.3141Z" fill="white"/>
<path id="Vector_72" d="M11.8325 14.0191C11.8027 14.0191 11.7793 13.9957 11.7793 13.9659C11.7793 13.8445 11.7878 13.7232 11.8059 13.603C11.8102 13.5732 11.8368 13.5529 11.8666 13.5572C11.8964 13.5615 11.9166 13.5881 11.9123 13.6179C11.8953 13.7328 11.8868 13.8499 11.8868 13.9659C11.8868 13.9957 11.8634 14.0191 11.8336 14.0191C11.8336 14.0191 11.8336 14.0191 11.8325 14.0191Z" fill="white"/>
<path id="Vector_73" d="M12.3464 14.9871H12.34C12.0899 14.9573 11.876 14.7136 11.8079 14.3805C11.8015 14.3517 11.8206 14.3241 11.8494 14.3177C11.877 14.3113 11.9058 14.3294 11.9122 14.3571C11.9122 14.3571 11.9122 14.3581 11.9122 14.3592C11.9813 14.6923 12.1835 14.8615 12.3527 14.8807C12.3815 14.8849 12.4028 14.9104 12.3996 14.9402C12.3964 14.9669 12.373 14.9871 12.3464 14.9871Z" fill="white"/>
<path id="Vector_74" d="M12.6738 14.8905C12.6568 14.8905 12.6398 14.8819 12.6302 14.867C12.6142 14.8426 12.6195 14.8096 12.644 14.7926C12.7345 14.7298 12.8132 14.6521 12.8781 14.5638C12.8962 14.5403 12.9303 14.5361 12.9537 14.5542C12.9771 14.5723 12.9814 14.6063 12.9622 14.6297C12.8899 14.7266 12.8037 14.8117 12.7047 14.8809C12.6951 14.8873 12.6845 14.8905 12.6738 14.8905Z" fill="white"/>
<path id="Vector_75" d="M13.1108 14.3408C13.1023 14.3408 13.0948 14.3387 13.0874 14.3344C13.0619 14.3217 13.0501 14.2908 13.0629 14.2653C13.0629 14.2653 13.0629 14.2642 13.0629 14.2631C13.2374 13.9056 13.33 13.5139 13.3332 13.117C13.3332 12.6988 13.2172 12.3816 13.0225 12.2656C12.9044 12.2039 12.7628 12.2124 12.6532 12.288C12.6266 12.2997 12.5947 12.288 12.583 12.2614C12.5723 12.238 12.5798 12.2114 12.6 12.1965C12.7415 12.0996 12.9256 12.0911 13.0757 12.1731C13.3034 12.305 13.4396 12.6562 13.4396 13.1127C13.4365 13.5267 13.3407 13.9354 13.1576 14.3068C13.1502 14.327 13.131 14.3408 13.1097 14.3408H13.1108Z" fill="white"/>
</g>
<path id="Vector_76" d="M14.5908 22.7951C14.064 22.7951 13.633 22.7642 13.3819 22.6801C13.2872 22.6514 13.2137 22.578 13.1829 22.4843C13.1477 22.3471 13.2148 22.1832 13.3883 22.2364C13.8139 22.4279 17.511 22.7025 19.7671 20.5337C20.5482 19.7823 21.1356 18.9225 21.7039 18.0924C22.9969 16.2024 24.2165 14.4188 27.358 14.5805L27.3367 15.0062C24.4336 14.8604 23.3321 16.4716 22.0561 18.3382C21.4751 19.1896 20.8749 20.0633 20.0629 20.8455C18.4453 22.3928 16.0998 22.7951 14.5908 22.7951Z" fill="#3B82F6"/>
<path id="Vector_77" opacity="0.4" d="M14.5908 22.7951C14.064 22.7951 13.633 22.7642 13.3819 22.6801C13.2872 22.6514 13.2137 22.578 13.1829 22.4843C13.1477 22.3471 13.2148 22.1832 13.3883 22.2364C13.8139 22.4279 17.511 22.7025 19.7671 20.5337C20.5482 19.7823 21.1356 18.9225 21.7039 18.0924C22.9969 16.2024 24.2165 14.4188 27.358 14.5805L27.3367 15.0062C24.4336 14.8604 23.3321 16.4716 22.0561 18.3382C21.4751 19.1896 20.8749 20.0633 20.0629 20.8455C18.4453 22.3928 16.0998 22.7951 14.5908 22.7951Z" fill="black"/>
<path id="Vector_78" opacity="0.15" d="M17.1016 22.4515C17.3208 22.3909 17.5411 22.3196 17.7603 22.2387C17.9146 21.9854 18.0402 21.7609 18.1051 21.6406C17.8923 21.7375 17.673 21.8226 17.4559 21.8971L17.1016 22.4515Z" fill="black"/>
<path id="Vector_79" d="M12.6882 13.7745C12.3754 13.7543 12.4232 13.3488 12.5424 13.3488H12.6946C14.9475 13.3488 16.6492 11.8983 18.5349 8.38963C20.2153 5.26302 21.7658 3.99343 24.0688 3.8636C24.1858 3.85721 24.2869 3.94767 24.2933 4.06473C24.2997 4.18179 24.2092 4.28289 24.0922 4.28928C21.9638 4.4106 20.5101 5.61633 18.9106 8.59183C17.4612 11.2874 15.7031 13.7745 12.6882 13.7745Z" fill="#3B82F6"/>
<path id="Vector_80" opacity="0.35" d="M12.6882 13.7745C12.3754 13.7543 12.4232 13.3488 12.5424 13.3488H12.6946C14.9475 13.3488 16.6492 11.8983 18.5349 8.38963C20.2153 5.26302 21.7658 3.99343 24.0688 3.8636C24.1858 3.85721 24.2869 3.94767 24.2933 4.06473C24.2997 4.18179 24.2092 4.28289 24.0922 4.28928C21.9638 4.4106 20.5101 5.61633 18.9106 8.59183C17.4612 11.2874 15.7031 13.7745 12.6882 13.7745Z" fill="black"/>
<path id="Vector_81" d="M11.1733 25.4936C10.5146 25.4936 9.85901 25.4117 9.21943 25.252C9.1162 25.2307 9.03745 25.1445 9.02575 25.0392C9.00446 24.8508 9.06406 24.7731 9.17793 24.8029C12.3407 25.6415 15.4184 24.4603 17.4127 21.6423C18.131 20.627 18.7163 19.6001 19.2325 18.6934C19.8231 17.6569 20.3807 16.6778 21.0203 15.918C22.0781 14.6601 23.7404 13.8396 24.9717 13.9683C25.0887 13.9811 25.1728 14.0843 25.1611 14.2014C25.1494 14.3185 25.0451 14.4036 24.9281 14.3919C24.9281 14.3919 24.9281 14.3919 24.927 14.3919C23.8458 14.2791 22.3037 15.0528 21.346 16.1915C20.7309 16.9226 20.2083 17.841 19.6028 18.9041C19.0814 19.8193 18.4907 20.8558 17.7607 21.8838C16.1048 24.2283 13.737 25.4936 11.1733 25.4936Z" fill="#3B82F6"/>
<path id="Vector_82" opacity="0.35" d="M11.1733 25.4936C10.5146 25.4936 9.85901 25.4117 9.21943 25.252C9.1162 25.2307 9.03745 25.1445 9.02575 25.0392C9.00446 24.8508 9.06406 24.7731 9.17793 24.8029C12.3407 25.6415 15.4184 24.4603 17.4127 21.6423C18.131 20.627 18.7163 19.6001 19.2325 18.6934C19.8231 17.6569 20.3807 16.6778 21.0203 15.918C22.0781 14.6601 23.7404 13.8396 24.9717 13.9683C25.0887 13.9811 25.1728 14.0843 25.1611 14.2014C25.1494 14.3185 25.0451 14.4036 24.9281 14.3919C24.9281 14.3919 24.9281 14.3919 24.927 14.3919C23.8458 14.2791 22.3037 15.0528 21.346 16.1915C20.7309 16.9226 20.2083 17.841 19.6028 18.9041C19.0814 19.8193 18.4907 20.8558 17.7607 21.8838C16.1048 24.2283 13.737 25.4936 11.1733 25.4936Z" fill="black"/>
<path id="Vector_83" d="M24.7349 4.22099C24.7349 4.62219 24.4093 4.94783 24.0081 4.94783C23.6069 4.94783 23.2812 4.62219 23.2812 4.22099C23.2812 3.81978 23.6069 3.49414 24.0081 3.49414C24.4093 3.49414 24.7349 3.81978 24.7349 4.22099Z" fill="#3B82F6"/>
<path id="Vector_84" d="M25.3638 14.014C25.3638 14.4152 25.0382 14.7408 24.637 14.7408C24.2358 14.7408 23.9102 14.4152 23.9102 14.014C23.9102 13.6128 24.2358 13.2871 24.637 13.2871C25.0382 13.2871 25.3638 13.6128 25.3638 14.014Z" fill="#3B82F6"/>
</g>
<g id="freepik--android--inject-39">
<path id="Vector_85" d="M36.7334 16.8184C36.86 16.9397 37.1026 17.0717 37.6028 17.1696C38.103 17.2675 38.9426 17.3335 39.43 17.177C39.9174 17.0206 40.1026 16.7769 40.2037 16.4608C40.3048 16.1448 40.2835 15.9883 40.4059 15.7617C40.5858 15.4424 40.5038 15.2721 40.1622 15.3796C39.8206 15.4871 39.3492 15.6435 39.032 15.6638C38.8298 15.6755 38.6255 15.6584 38.4276 15.6159C38.3478 15.5392 38.865 15.4381 39.0384 15.1753C39.2119 14.9124 39.0916 14.7741 39.0033 14.7837C38.915 14.7932 38.7117 14.9284 38.3946 15.0114C38.0775 15.0944 37.5571 15.2242 37.2676 15.3232C36.9781 15.4222 36.7951 15.5361 36.6567 16.0777C36.5184 16.6194 36.5886 16.6779 36.7334 16.8184Z" fill="#3B82F6"/>
<path id="Vector_86" opacity="0.8" d="M36.7334 16.8184C36.86 16.9397 37.1026 17.0717 37.6028 17.1696C38.103 17.2675 38.9426 17.3335 39.43 17.177C39.9174 17.0206 40.1026 16.7769 40.2037 16.4608C40.3048 16.1448 40.2835 15.9883 40.4059 15.7617C40.5858 15.4424 40.5038 15.2721 40.1622 15.3796C39.8206 15.4871 39.3492 15.6435 39.032 15.6638C38.8298 15.6755 38.6255 15.6584 38.4276 15.6159C38.3478 15.5392 38.865 15.4381 39.0384 15.1753C39.2119 14.9124 39.0916 14.7741 39.0033 14.7837C38.915 14.7932 38.7117 14.9284 38.3946 15.0114C38.0775 15.0944 37.5571 15.2242 37.2676 15.3232C36.9781 15.4222 36.7951 15.5361 36.6567 16.0777C36.5184 16.6194 36.5886 16.6779 36.7334 16.8184Z" fill="white"/>
<path id="Vector_87" opacity="0.1" d="M40.2027 16.4598C40.3091 16.1406 40.2825 15.9873 40.4049 15.7607C40.4709 15.6681 40.5017 15.5553 40.4921 15.4414C40.4549 15.6542 40.2655 15.6755 40.0196 16.0437C39.7525 16.4428 39.7089 16.662 39.2183 16.7546C38.8841 16.8163 38.3191 16.7663 37.5582 16.529L36.6536 16.0874C36.5195 16.6195 36.5897 16.678 36.7334 16.8174C36.86 16.9387 37.1027 17.0707 37.6029 17.1686C38.103 17.2665 38.9427 17.3325 39.4301 17.176C39.9175 17.0196 40.1016 16.7759 40.2027 16.4598Z" fill="black"/>
<path id="Vector_88" d="M35.7637 16.6511C35.7637 16.6511 36.929 16.8746 37.3866 16.8469C37.8718 16.8182 38.1315 16.45 37.8825 16.1595C37.6335 15.8689 37.0939 15.6689 37.0939 15.6689L36.068 15.3496L35.7637 16.6511Z" fill="#37474F"/>
<path id="Vector_89" d="M31.4803 15.1946C31.261 15.6351 31.5973 16.0385 32.3252 16.1853C33.0531 16.3322 36.1372 16.7526 36.1372 16.7526C36.2532 16.7717 36.3958 16.6248 36.4937 16.1555C36.5842 15.7245 36.4937 15.418 36.35 15.3893C36.35 15.3893 33.7044 14.5603 33.3905 14.4315C32.7413 14.1825 31.7804 14.5922 31.4803 15.1946Z" fill="#3B82F6"/>
<path id="Vector_90" opacity="0.8" d="M31.4803 15.1946C31.261 15.6351 31.5973 16.0385 32.3252 16.1853C33.0531 16.3322 36.1372 16.7526 36.1372 16.7526C36.2532 16.7717 36.3958 16.6248 36.4937 16.1555C36.5842 15.7245 36.4937 15.418 36.35 15.3893C36.35 15.3893 33.7044 14.5603 33.3905 14.4315C32.7413 14.1825 31.7804 14.5922 31.4803 15.1946Z" fill="white"/>
<path id="Vector_91" opacity="0.1" d="M36.4203 16.4285C35.5412 16.3104 33.9833 16.0773 33.2511 15.8293C32.1997 15.4739 32.1869 15.2195 32.2742 14.8716L32.3561 14.4746C31.9762 14.6172 31.6367 14.879 31.4803 15.194C31.261 15.6346 31.5973 16.0379 32.3252 16.1848C33.0531 16.3316 36.1372 16.752 36.1372 16.752C36.2276 16.7658 36.3341 16.6818 36.4203 16.4285Z" fill="black"/>
<path id="Vector_92" d="M31.3105 14.8151L31.6734 15.3706C31.6734 15.3706 31.9927 15.5952 32.4663 15.2642C32.9228 14.945 32.9185 14.6065 32.9185 14.6065L32.5769 13.7871L31.3105 14.8151Z" fill="#37474F"/>
<path id="Vector_93" d="M29.2951 9.17422C30.0347 8.90498 30.4434 9.17422 30.8265 9.80529C31.1298 10.3076 32.708 13.9429 32.708 13.9429C32.8304 14.3856 31.7183 15.321 31.2373 14.9209C31.2373 14.9209 29.1227 12.2604 28.7524 11.4697C28.2905 10.4757 28.6662 9.40196 29.2951 9.17422Z" fill="#3B82F6"/>
<path id="Vector_94" opacity="0.8" d="M29.2951 9.17422C30.0347 8.90498 30.4434 9.17422 30.8265 9.80529C31.1298 10.3076 32.708 13.9429 32.708 13.9429C32.8304 14.3856 31.7183 15.321 31.2373 14.9209C31.2373 14.9209 29.1227 12.2604 28.7524 11.4697C28.2905 10.4757 28.6662 9.40196 29.2951 9.17422Z" fill="white"/>
<path id="Vector_95" opacity="0.1" d="M32.0305 14.8583C31.7464 15.0222 31.4378 15.0871 31.2377 14.9211C31.2377 14.9211 29.1242 12.2606 28.7539 11.4689C28.7454 11.4508 28.739 11.4316 28.7305 11.4135L29.0327 11.2422C29.0327 11.2571 29.038 11.2709 29.0423 11.2858C29.1849 11.8977 29.552 12.4671 30.2608 11.8509C30.3119 11.8062 30.3576 11.7551 30.3959 11.6987C30.4491 12.4139 31.7805 14.3901 32.0305 14.8583Z" fill="black"/>
<path id="Vector_96" d="M29.4063 9.3774C29.7309 9.11028 30.2704 9.28375 30.4481 9.76477C30.5365 10.0042 30.8791 11.311 30.2608 11.8506C29.5531 12.4678 29.1849 11.8985 29.0413 11.2866C28.8976 10.6747 28.8018 9.75412 29.4063 9.3774Z" fill="#3B82F6"/>
<path id="Vector_97" opacity="0.1" d="M29.4063 9.3774C29.7309 9.11028 30.2704 9.28375 30.4481 9.76477C30.5365 10.0042 30.8791 11.311 30.2608 11.8506C29.5531 12.4678 29.1849 11.8985 29.0413 11.2866C28.8976 10.6747 28.8018 9.75412 29.4063 9.3774Z" fill="black"/>
<path id="Vector_98" d="M29.9914 11.476C29.7275 11.708 29.3402 11.4579 29.1401 10.9439C28.94 10.4299 29.3189 9.72855 29.5881 9.57211C29.8903 9.39652 30.1968 9.5934 30.3107 10.3C30.432 11.062 30.2522 11.4802 29.9914 11.476Z" fill="#37474F"/>
<path id="Vector_99" d="M27.0976 37.8594C27.0795 37.952 27.0795 38.0467 27.0976 38.1393C27.1305 38.2457 27.6552 38.3936 27.9383 38.4745C28.3203 38.6064 28.6641 38.8278 28.9429 39.1205C29.2366 39.4333 29.6772 39.6845 30.4168 39.6823C31.1564 39.6802 31.4501 39.4067 31.5193 39.3205C31.5885 39.2343 31.5587 39.014 31.5587 39.014L27.0976 37.8594Z" fill="#263238"/>
<path id="Vector_100" d="M27.2296 35.7695C27.336 36.3623 27.1987 36.6667 27.0827 37.0178C26.9805 37.2903 26.9859 37.5914 27.0976 37.8596C27.4488 38.1342 28.2097 38.1736 28.6865 38.5152C28.9419 38.6971 29.3537 39.2388 29.9071 39.1782C30.4605 39.1175 30.9883 38.3619 30.9883 38.3619C30.5648 38.148 30.1763 37.8681 29.839 37.534C29.2505 36.9359 28.7567 36.6773 28.795 35.8855L27.2296 35.7695Z" fill="#455A64"/>
<path id="Vector_101" d="M28.911 38.476C28.4938 38.1344 27.8202 37.8374 27.8415 37.5778C27.8628 37.3181 27.5095 36.9467 27.5095 36.9467C27.5095 36.9467 27.2743 36.637 28.1405 36.5381C28.6077 36.4848 28.7716 36.3614 28.8237 36.2592C28.7982 36.1358 28.7876 36.0092 28.795 35.8836L27.2296 35.7676C27.336 36.3603 27.1987 36.6647 27.0827 37.0159C26.9805 37.2883 26.9859 37.5895 27.0976 37.8577C27.4488 38.1322 28.2097 38.1716 28.6865 38.5132C28.7929 38.592 28.9376 38.7388 29.1068 38.875C29.0877 38.7239 29.0185 38.5834 28.911 38.476Z" fill="#37474F"/>
<path id="Vector_102" d="M27.2726 27.6387C26.8895 27.6164 26.666 28.1367 26.6139 29.5543C26.567 30.8196 27.1843 35.8139 27.2524 36.1789C27.3045 36.4577 28.8104 36.446 28.8306 36.0959C28.8657 35.5138 29.501 29.351 29.5596 28.6465C29.6181 27.942 29.6521 27.7877 29.2924 27.6749C28.9327 27.5621 27.2726 27.6387 27.2726 27.6387Z" fill="#3B82F6"/>
<path id="Vector_103" opacity="0.8" d="M27.2726 27.6387C26.8895 27.6164 26.666 28.1367 26.6139 29.5543C26.567 30.8196 27.1843 35.8139 27.2524 36.1789C27.3045 36.4577 28.8104 36.446 28.8306 36.0959C28.8657 35.5138 29.501 29.351 29.5596 28.6465C29.6181 27.942 29.6521 27.7877 29.2924 27.6749C28.9327 27.5621 27.2726 27.6387 27.2726 27.6387Z" fill="white"/>
<path id="Vector_104" opacity="0.1" d="M29.2926 27.68C28.9319 27.5683 27.2706 27.6396 27.2706 27.6396C26.8875 27.6173 26.6641 28.1376 26.6119 29.5552C26.5651 30.8205 27.1823 35.8148 27.2504 36.1798C27.2664 36.2649 27.4196 36.3235 27.624 36.3533C27.5356 35.2539 27.3324 32.6094 27.3324 31.6325C27.3324 30.3842 27.3047 28.3079 28.0049 28.9166C28.6562 29.4849 29.249 29.2636 29.5363 28.8836C29.5459 28.7772 29.5533 28.6985 29.5576 28.6474C29.6183 27.9461 29.6523 27.7928 29.2926 27.68Z" fill="black"/>
<path id="Vector_105" d="M27.0977 26.6155L27.1934 27.8372C27.1934 28.032 27.5819 28.397 28.4471 28.3821C29.192 28.3693 29.3878 27.9564 29.3878 27.9564L29.623 26.2441L27.0977 26.6155Z" fill="#37474F"/>
<path id="Vector_106" d="M29.696 16.1729C29.9589 16.7114 30.209 17.4968 30.1973 21.2044C30.1856 24.9121 29.696 26.9745 29.696 26.9745C29.4832 27.6588 27.126 27.6024 27.0036 27.033L25.6106 19.6092C25.4414 17.8607 28.3626 13.4401 29.696 16.1729Z" fill="#3B82F6"/>
<path id="Vector_107" opacity="0.8" d="M29.696 16.1729C29.9589 16.7114 30.209 17.4968 30.1973 21.2044C30.1856 24.9121 29.696 26.9745 29.696 26.9745C29.4832 27.6588 27.126 27.6024 27.0036 27.033L25.6106 19.6092C25.4414 17.8607 28.3626 13.4401 29.696 16.1729Z" fill="white"/>
<path id="Vector_108" opacity="0.1" d="M25.6105 19.6108L27.0036 27.0346C27.0961 27.4603 28.4519 27.6008 29.2086 27.3539C29.2075 27.3411 29.2043 27.3284 29.2011 27.3166C29.0138 26.6728 28.3093 27.3326 28.1987 27.1464C28.088 26.9601 27.9369 23.3866 27.8315 22.1925C27.691 20.6143 28.7308 19.8417 29.083 18.321C29.2671 17.4558 29.3671 16.5757 29.381 15.6914C27.9539 14.0716 25.4541 17.989 25.6105 19.6108Z" fill="black"/>
<path id="Vector_109" d="M28.9272 15.72C29.3401 15.8137 29.7987 16.6374 29.7232 17.759C29.6476 18.8807 29.0559 20.5047 27.7544 20.1843C26.4529 19.864 27.0446 15.2145 28.9272 15.72Z" fill="#3B82F6"/>
<path id="Vector_110" opacity="0.1" d="M28.9272 15.72C29.3401 15.8137 29.7987 16.6374 29.7232 17.759C29.6476 18.8807 29.0559 20.5047 27.7544 20.1843C26.4529 19.864 27.0446 15.2145 28.9272 15.72Z" fill="black"/>
<path id="Vector_111" d="M28.7613 16.7409C29.1136 16.8218 29.552 17.0953 29.2934 18.2085C29.0752 19.1396 28.7911 19.5919 28.0409 19.4248C26.9266 19.1779 27.1608 16.3121 28.7613 16.7409Z" fill="#455A64"/>
<path id="Vector_112" d="M28.0391 38.2205C28.4871 38.2535 28.6712 38.2694 29.1128 38.5142C29.5545 38.759 29.8716 38.064 30.5559 38.0885C30.8326 38.1641 31.0976 38.2779 31.3423 38.4291C31.519 38.5493 31.585 38.7004 31.5552 39.0091C31.3434 39.2559 31.039 39.4028 30.7145 39.4145C29.7833 39.4943 29.3129 39.1165 28.9404 38.8005C28.568 38.4844 28.3966 38.3375 28.0391 38.2205Z" fill="#3B82F6"/>
<path id="Vector_113" opacity="0.8" d="M28.0391 38.2205C28.4871 38.2535 28.6712 38.2694 29.1128 38.5142C29.5545 38.759 29.8716 38.064 30.5559 38.0885C30.8326 38.1641 31.0976 38.2779 31.3423 38.4291C31.519 38.5493 31.585 38.7004 31.5552 39.0091C31.3434 39.2559 31.039 39.4028 30.7145 39.4145C29.7833 39.4943 29.3129 39.1165 28.9404 38.8005C28.568 38.4844 28.3966 38.3375 28.0391 38.2205Z" fill="white"/>
<path id="Vector_114" opacity="0.1" d="M30.3218 39.0657C29.4098 39.0433 28.9958 38.5953 28.6308 38.3016C28.4371 38.2537 28.2381 38.2271 28.0391 38.2207C28.3966 38.3378 28.5712 38.4899 28.9436 38.8049C29.3161 39.12 29.7865 39.4988 30.7176 39.419C31.0422 39.4073 31.3466 39.2604 31.5584 39.0135C31.585 38.7049 31.519 38.5538 31.3455 38.4335C31.6031 38.7326 31.2327 39.088 30.3218 39.0657Z" fill="black"/>
<path id="Vector_115" d="M27.7502 37.1446C27.6928 37.4479 27.4916 37.698 27.2181 37.6469C26.9372 37.5745 26.7658 37.2904 26.8329 37.0084C26.8903 36.7051 27.1521 36.4997 27.4246 36.5508C27.697 36.6018 27.8066 36.8402 27.7502 37.1446Z" fill="#3B82F6"/>
<path id="Vector_116" opacity="0.15" d="M27.749 37.1429C27.7905 36.9216 27.7426 36.7353 27.6117 36.6289C27.7437 36.8417 27.6362 37.2823 27.2499 37.2866C26.9029 37.2866 26.838 37.028 26.8721 36.8801C26.8561 36.9194 26.8433 36.9609 26.8348 37.0035C26.7678 37.2855 26.9391 37.5697 27.2201 37.642C27.4904 37.6963 27.6915 37.4462 27.749 37.1429Z" fill="black"/>
<path id="Vector_117" d="M28.1851 27.956C28.2234 27.3568 28.5522 26.8269 29.0843 26.8609C29.6164 26.895 30.0176 27.4069 29.9793 28.006C29.941 28.6052 29.4791 29.0628 28.947 29.0287C28.4149 28.9946 28.1478 28.5541 28.1851 27.956Z" fill="#3B82F6"/>
<path id="Vector_118" opacity="0.15" d="M28.9566 28.5307C28.3862 28.0954 28.6054 27.1696 28.9492 26.8652C28.4969 26.9216 28.2202 27.409 28.1851 27.955C28.1478 28.5531 28.4149 28.9936 28.947 29.0277C29.3046 29.0415 29.6409 28.8521 29.8144 28.5392C29.5653 28.7467 29.2024 28.7435 28.9566 28.5307Z" fill="black"/>
<path id="Vector_119" d="M28.9551 16.4708C28.9551 16.4708 29.2871 17.4839 28.7422 18.7971C28.1559 20.2093 27.4482 20.6573 26.7309 20.5871C26.0136 20.5169 25.1974 19.7911 24.8632 19.1291C24.3822 18.1788 24.4705 17.5743 24.5631 17.1338C24.6493 16.757 24.7781 16.391 24.9473 16.043L28.9551 16.4708Z" fill="#3B82F6"/>
<path id="Vector_120" opacity="0.7" d="M28.9551 16.4708C28.9551 16.4708 29.2871 17.4839 28.7422 18.7971C28.1559 20.2093 27.4482 20.6573 26.7309 20.5871C26.0136 20.5169 25.1974 19.7911 24.8632 19.1291C24.3822 18.1788 24.4705 17.5743 24.5631 17.1338C24.6493 16.757 24.7781 16.391 24.9473 16.043L28.9551 16.4708Z" fill="white"/>
<path id="Vector_121" d="M28.224 19.7611C27.9292 19.9367 27.5471 20.0037 27.0534 19.9058C26.1435 19.727 25.7987 18.3723 25.7178 17.7774C25.6369 17.1825 25.5731 16.5653 26.1903 16.3567L26.3361 16.1928L24.9526 16.0449C24.7813 16.3929 24.6504 16.7579 24.5631 17.1357C24.4705 17.5763 24.3822 18.1808 24.8632 19.1311C25.1974 19.793 26.0115 20.5146 26.7309 20.589C27.247 20.638 27.7589 20.4166 28.224 19.7611Z" fill="#3B82F6"/>
<path id="Vector_122" opacity="0.05" d="M28.224 19.7611C27.9292 19.9367 27.5471 20.0037 27.0534 19.9058C26.1435 19.727 25.7987 18.3723 25.7178 17.7774C25.6369 17.1825 25.5731 16.5653 26.1903 16.3567L26.3361 16.1928L24.9526 16.0449C24.7813 16.3929 24.6504 16.7579 24.5631 17.1357C24.4705 17.5763 24.3822 18.1808 24.8632 19.1311C25.1974 19.793 26.0115 20.5146 26.7309 20.589C27.247 20.638 27.7589 20.4166 28.224 19.7611Z" fill="black"/>
<path id="Vector_123" d="M24.7852 14.3053C25.0448 14.7991 25.1395 15.5536 24.9512 16.0432C24.9512 16.0432 26.2921 17.3756 27.5691 17.3C28.1416 17.2798 28.6642 16.9669 28.9526 16.471L29.3112 13.1188C29.3112 13.1188 28.7248 11.4309 27.6298 11.5001C26.5347 11.5693 24.7852 14.3053 24.7852 14.3053Z" fill="#455A64"/>
<path id="Vector_124" d="M25.2179 16.2819C25.6724 16.6618 26.6365 17.3557 27.5688 17.3004C27.7848 17.2897 27.9955 17.2397 28.1934 17.1524C27.5815 17.178 26.8557 16.8534 26.5897 16.5086C26.3119 16.1468 26.197 15.6966 26.2332 15.0549C26.246 14.9112 26.4152 12.6477 26.5525 12.123C25.7979 12.8201 25.0626 13.8907 24.8497 14.211V14.2163L24.8157 14.2685L24.8082 14.2802L24.8008 14.2919V14.2983C24.8859 14.4643 24.9498 14.6399 24.9923 14.8219C25.02 14.9357 25.0402 15.0517 25.0519 15.1688C25.0647 15.2837 25.069 15.3997 25.0647 15.5157C25.0604 15.6594 25.0381 15.803 24.9987 15.9414C24.9891 15.9744 24.9785 16.0063 24.9668 16.0361C24.9476 16.0435 25.0541 16.1415 25.2179 16.2819Z" fill="#37474F"/>
<path id="Vector_125" d="M27.6324 11.5001C27.4249 11.5267 27.2269 11.6033 27.0566 11.7236C27.5824 11.7438 27.7122 12.575 27.8995 13.2709C28.1123 14.0723 28.1059 13.8892 29.0552 14.0563L29.2042 14.1489L29.3106 13.1188C29.3106 13.1188 28.7274 11.4309 27.6324 11.5001Z" fill="#37474F"/>
<path id="Vector_126" d="M24.3095 8.87305C23.2825 9.11036 22.7749 9.29128 22.8888 10.3555C23.0026 11.4197 23.7901 13.3076 24.3095 14.0004C24.849 14.7208 24.8182 14.84 25.4365 14.6665C26.2186 14.4473 27.1498 13.9886 27.2456 13.7162C27.3414 13.4438 27.2818 11.9475 27.7287 11.939C28.1757 11.9305 28.2289 13.4597 28.3311 13.6747C28.4332 13.8897 29.1697 14.2909 29.3261 14.2068C29.4825 14.1227 30.071 12.5882 30.0859 11.2494C30.1008 9.6531 29.8146 9.28276 28.794 8.99969L24.3095 8.87305Z" fill="#3B82F6"/>
<path id="Vector_127" opacity="0.7" d="M24.3095 8.87305C23.2825 9.11036 22.7749 9.29128 22.8888 10.3555C23.0026 11.4197 23.7901 13.3076 24.3095 14.0004C24.849 14.7208 24.8182 14.84 25.4365 14.6665C26.2186 14.4473 27.1498 13.9886 27.2456 13.7162C27.3414 13.4438 27.2818 11.9475 27.7287 11.939C28.1757 11.9305 28.2289 13.4597 28.3311 13.6747C28.4332 13.8897 29.1697 14.2909 29.3261 14.2068C29.4825 14.1227 30.071 12.5882 30.0859 11.2494C30.1008 9.6531 29.8146 9.28276 28.794 8.99969L24.3095 8.87305Z" fill="white"/>
<path id="Vector_128" opacity="0.1" d="M24.9923 8.8922L24.3134 8.87305C23.2864 9.11036 22.7788 9.29128 22.8927 10.3555C23.0065 11.4197 23.7898 13.3076 24.3091 14.0004C24.8487 14.7208 24.8178 14.84 25.4361 14.6665C25.7203 14.5857 25.998 14.4856 26.2683 14.3664C25.7703 14.3824 25.2903 14.3664 24.689 13.1639C24.0878 11.9613 23.9367 10.9557 23.9707 10.1692C24.0058 9.4541 24.2804 9.15293 24.9923 8.8922Z" fill="black"/>
<path id="Vector_129" d="M23.2869 9.39501C23.7456 9.08107 24.1297 9.35989 24.367 10.2964C24.5384 10.9732 24.4426 11.9725 23.9658 12.1577C23.5168 12.3322 23.3199 11.7767 23.0687 11.0062C22.9251 10.5784 22.8272 9.71001 23.2869 9.39501Z" fill="#3B82F6"/>
<path id="Vector_130" opacity="0.1" d="M23.2869 9.39501C23.7456 9.08107 24.1297 9.35989 24.367 10.2964C24.5384 10.9732 24.4426 11.9725 23.9658 12.1577C23.5168 12.3322 23.3199 11.7767 23.0687 11.0062C22.9251 10.5784 22.8272 9.71001 23.2869 9.39501Z" fill="black"/>
<path id="Vector_131" d="M27.581 9.62109L27.4746 9.64451C27.6321 10.4012 27.7151 11.1716 27.7215 11.9442H27.7279C27.763 11.9442 27.7971 11.9538 27.8279 11.9708C27.8237 11.1812 27.7407 10.3948 27.581 9.62109Z" fill="#3B82F6"/>
<path id="Vector_132" d="M25.2378 6.81836C25.2378 6.81836 25.373 8.4668 25.373 8.53597C25.373 8.60515 24.3184 8.87333 24.3184 8.87333C24.3184 8.87333 25.091 8.83821 26.1796 9.31497C26.5564 9.49162 26.9065 9.7183 27.2204 9.99073C27.3939 10.1376 27.6536 10.1163 27.8004 9.94284C27.81 9.93114 27.8196 9.91943 27.8281 9.90666C27.893 9.80876 27.9643 9.70659 28.0335 9.6172C28.2495 9.36605 28.5092 9.1564 28.8008 8.9989C28.8008 8.9989 27.412 8.4668 27.412 8.41572L27.33 7.36004L25.2378 6.81836Z" fill="#455A64"/>
<path id="Vector_133" d="M26.339 20.1835C26.5912 20.0569 26.5178 18.8927 26.3188 18.202C26.0165 17.1495 25.4674 16.6696 25.0566 16.7462C24.6458 16.8228 24.6533 17.8859 24.7437 18.2808C24.8981 18.9523 25.6622 20.2357 26.339 20.1835Z" fill="#3B82F6"/>
<path id="Vector_134" opacity="0.1" d="M26.339 20.1835C26.5912 20.0569 26.5178 18.8927 26.3188 18.202C26.0165 17.1495 25.4674 16.6696 25.0566 16.7462C24.6458 16.8228 24.6533 17.8859 24.7437 18.2808C24.8981 18.9523 25.6622 20.2357 26.339 20.1835Z" fill="black"/>
<path id="Vector_135" d="M29.116 5.19724C29.4651 3.71798 28.549 2.23578 27.0697 1.88665C25.5905 1.53751 24.1083 2.45365 23.7591 3.9329C23.41 5.41216 24.3261 6.89436 25.8054 7.24349C27.2846 7.59263 28.7668 6.67649 29.116 5.19724Z" fill="#455A64"/>
<path id="Vector_136" d="M27.3736 7.98917L27.3396 7.53689L27.3108 6.94094C27.3108 6.94094 26.7489 6.76641 25.3059 6.27156C24.2491 5.90973 23.7181 4.81893 23.8266 3.69727C23.3882 5.01474 24.0012 6.45354 25.2559 7.04949C25.292 7.50603 25.3676 8.47764 25.3676 8.53936C25.3676 8.53936 25.5581 8.41698 25.9944 8.45742C26.4307 8.49786 26.8458 8.84905 26.6648 8.32014C26.5073 7.8487 27.2033 7.95618 27.3736 7.98917Z" fill="#37474F"/>
<path id="Vector_137" d="M27.3342 1.97461C26.1019 1.97461 25.44 2.79404 25.2261 3.91571C25.0888 4.63936 25.1505 6.32931 25.7997 7.14342C26.1423 7.5691 27.728 8.07672 28.3942 7.88836C29.1295 7.6819 29.2455 6.71774 29.3104 5.74932C29.3637 5.03418 29.2955 4.31372 29.1104 3.62092C28.8848 2.61313 28.0334 2.02463 27.3342 1.97461Z" fill="#3B82F6"/>
<path id="Vector_138" opacity="0.8" d="M27.3342 1.97461C26.1019 1.97461 25.44 2.79404 25.2261 3.91571C25.0888 4.63936 25.1505 6.32931 25.7997 7.14342C26.1423 7.5691 27.728 8.07672 28.3942 7.88836C29.1295 7.6819 29.2455 6.71774 29.3104 5.74932C29.3637 5.03418 29.2955 4.31372 29.1104 3.62092C28.8848 2.61313 28.0334 2.02463 27.3342 1.97461Z" fill="white"/>
<path id="Vector_139" d="M29.3114 5.67742C29.2625 5.71892 29.2082 5.75511 29.1507 5.78384C28.2994 5.70935 28.0865 5.09318 28.0791 5.06125C28.0791 5.00059 28.0174 4.05133 27.8333 3.56499C27.9003 3.54583 27.9663 3.52242 28.0312 3.49688C28.3834 3.3564 28.6123 3.15314 28.708 2.89348C28.7197 2.86155 28.7293 2.82856 28.7368 2.79451C28.7229 2.77535 28.708 2.75833 28.6942 2.74023C28.6867 2.78599 28.674 2.83176 28.658 2.87539C28.5676 3.12015 28.3494 3.31277 28.011 3.44686C26.9468 3.87254 25.9156 3.39472 25.5314 3.00628L25.5059 3.05524C25.7974 3.34044 26.4179 3.66609 27.1469 3.66609C27.3629 3.66609 27.5779 3.63735 27.7854 3.57989C27.9663 4.05239 28.0259 5.01336 28.028 5.06338C27.9663 5.30282 27.5853 5.94879 26.5615 6.118C26.221 5.95943 25.9294 5.71147 25.7166 5.40179L25.6719 5.43053C25.8911 5.75191 26.1923 6.00732 26.5445 6.17121C26.569 6.20313 26.7371 6.43513 26.7925 6.96616C26.7925 7.00341 26.7999 7.04066 26.8042 7.07258C26.8116 7.29606 26.8563 7.51635 26.9361 7.72494L27.0085 7.74728C26.9085 7.58766 26.8829 7.32905 26.8563 7.06833C26.8563 7.03108 26.8489 6.99383 26.8457 6.95552C26.7957 6.48727 26.6637 6.24783 26.6073 6.16376C27.5512 5.99455 27.9535 5.42521 28.061 5.14319C28.1419 5.31985 28.4218 5.78171 29.1603 5.83811H29.1752C29.2242 5.81151 29.271 5.78171 29.3146 5.74766V5.73808C29.3114 5.71892 29.3114 5.6987 29.3114 5.67742Z" fill="#3B82F6"/>
<path id="Vector_140" opacity="0.1" d="M28.3942 7.88584C28.4453 7.87094 28.4953 7.85179 28.5432 7.82731C27.9046 7.94118 27.1597 7.72089 26.468 7.3165C25.7762 6.9121 25.6368 6.44811 25.4719 5.45096C25.3069 4.4538 25.507 3.06715 25.9848 2.44141C25.5889 2.7894 25.341 3.30553 25.2261 3.91106C25.0888 4.63472 25.1505 6.32466 25.7997 7.13877C26.1423 7.56765 27.728 8.07208 28.3942 7.88584Z" fill="black"/>
<path id="Vector_141" d="M25.8988 5.82605C25.8988 5.38228 25.587 4.9151 25.2028 4.78207C25.0368 4.7129 24.8452 4.73951 24.7048 4.85231C24.5281 4.93638 24.4121 5.13539 24.4121 5.40569C24.4121 5.8484 24.7229 6.31665 25.107 6.44967C25.2741 6.51884 25.4646 6.49117 25.6061 6.37837C25.7828 6.2943 25.8988 6.09636 25.8988 5.82605Z" fill="#3B82F6"/>
<path id="Vector_142" opacity="0.15" d="M25.8988 5.82605C25.8988 5.38228 25.587 4.9151 25.2028 4.78207C25.0368 4.7129 24.8452 4.73951 24.7048 4.85231C24.5281 4.93638 24.4121 5.13539 24.4121 5.40569C24.4121 5.8484 24.7229 6.31665 25.107 6.44967C25.2741 6.51884 25.4646 6.49117 25.6061 6.37837C25.7828 6.2943 25.8988 6.09636 25.8988 5.82605Z" fill="black"/>
<path id="Vector_143" d="M25.1067 4.84791C25.4909 4.98094 25.8027 5.44918 25.8027 5.89295C25.8027 6.33672 25.4909 6.58787 25.1067 6.45485C24.7225 6.32183 24.416 5.84932 24.416 5.40661C24.416 4.96391 24.7225 4.71063 25.1067 4.84791Z" fill="#3B82F6"/>
<path id="Vector_144" opacity="0.15" d="M25.3071 6.27298C25.2625 6.27298 25.2188 6.26447 25.1773 6.24957C24.8772 6.14315 24.625 5.76004 24.625 5.40672C24.625 5.1726 24.7314 5.02148 24.907 5.02148C24.9517 5.02148 24.9964 5.03 25.0379 5.0449C25.3369 5.15132 25.5902 5.53549 25.5902 5.88881C25.587 6.12506 25.4806 6.27298 25.3071 6.27298Z" fill="black"/>
<path id="Vector_145" opacity="0.15" d="M25.0372 5.0449C24.9957 5.03 24.951 5.02148 24.9063 5.02148C24.8978 5.02148 24.8882 5.02148 24.8797 5.02148C24.8339 5.10023 24.8116 5.19069 24.8148 5.28115C24.8148 5.6334 25.068 6.0197 25.3681 6.12399C25.4096 6.13889 25.4533 6.14741 25.498 6.14741C25.5065 6.14741 25.5161 6.14741 25.5246 6.14741C25.5703 6.06865 25.5927 5.97926 25.5895 5.88881C25.5863 5.53549 25.3362 5.14919 25.0372 5.0449Z" fill="black"/>
<path id="Vector_146" d="M26.7221 4.40933C26.4731 4.39336 26.2964 4.36676 26.2102 4.44551C26.091 4.55193 26.1261 4.71688 26.1857 5.06062C26.2208 5.25749 26.2602 5.45118 26.4379 5.58633C26.6401 5.73957 27.0818 5.87366 27.6958 5.87366C28.3897 5.87366 28.9633 5.73957 29.3272 5.18938C29.3358 4.7786 29.2921 4.36889 29.1974 3.96875C28.9537 4.13583 28.6813 4.25608 28.3939 4.32206C27.7788 4.46147 27.4096 4.45402 26.7221 4.40933Z" fill="#455A64"/>
<path id="Vector_147" d="M27.1868 5.42128C27.3051 5.40544 27.3856 5.27831 27.3667 5.13734C27.3478 4.99637 27.2367 4.89493 27.1184 4.91077C27.0002 4.92661 26.9196 5.05373 26.9385 5.19471C26.9574 5.33568 27.0686 5.43712 27.1868 5.42128Z" fill="#3B82F6"/>
<path id="Vector_148" d="M29.088 4.92535C29.0709 5.03603 28.9677 5.11265 28.857 5.09669C28.7464 5.08073 28.6697 4.97644 28.6857 4.86576C28.6995 4.77105 28.7793 4.69868 28.8751 4.69336C28.9975 4.69974 29.0933 4.80404 29.088 4.92642V4.92535Z" fill="#3B82F6"/>
<path id="Vector_149" d="M20.988 25.1728C20.7528 24.8695 20.2133 25.043 19.1076 25.939C18.1232 26.7361 15.7639 29.4062 15.5032 29.6712C15.1594 30.0362 14.9753 30.5246 14.9934 31.0259C15.004 31.6506 15.4893 31.8102 15.6564 31.7112C16.2949 31.3366 21.1594 27.9812 21.7298 27.5609C22.3002 27.1405 22.4375 27.066 22.2853 26.7212C22.1331 26.3764 20.988 25.1728 20.988 25.1728Z" fill="#3B82F6"/>
<path id="Vector_150" opacity="0.8" d="M20.988 25.1728C20.7528 24.8695 20.2133 25.043 19.1076 25.939C18.1232 26.7361 15.7639 29.4062 15.5032 29.6712C15.1594 30.0362 14.9753 30.5246 14.9934 31.0259C15.004 31.6506 15.4893 31.8102 15.6564 31.7112C16.2949 31.3366 21.1594 27.9812 21.7298 27.5609C22.3002 27.1405 22.4375 27.066 22.2853 26.7212C22.1331 26.3764 20.988 25.1728 20.988 25.1728Z" fill="white"/>
<path id="Vector_151" opacity="0.1" d="M20.3453 25.9362C20.4305 26.5034 21.0605 26.9046 19.0523 28.4211C17.8264 29.348 16.1535 30.5261 15.0371 31.304C15.1606 31.6967 15.5181 31.7935 15.6565 31.7116C16.295 31.337 21.1594 27.9816 21.7298 27.5612C22.3003 27.1408 22.4375 27.0664 22.2854 26.7216C22.1566 26.4289 21.3169 25.5233 21.0615 25.2508L20.8902 25.1689C20.3038 25.137 20.2655 25.37 20.3453 25.9362Z" fill="black"/>
<path id="Vector_152" d="M21.1837 24.5723L20.6016 25.2448C20.4888 25.396 20.5409 25.7769 20.9943 26.309C21.4476 26.8411 22.0223 27.054 22.1755 26.9188L23.0577 26.0345L21.1837 24.5723Z" fill="#37474F"/>
<path id="Vector_153" d="M24.6367 17.5499C24.8943 17.4413 25.1582 17.3466 25.4264 17.2668C25.6988 17.1997 25.885 17.817 25.9585 18.0213C26.1883 18.6598 26.2341 19.459 26.1426 19.5463C25.9201 19.7591 25.4413 19.8922 25.4413 19.8922L24.6367 17.5499Z" fill="#455A64"/>
<path id="Vector_154" d="M24.1868 15.5532C24.8104 15.5532 25.7703 18.0935 25.8778 19.1949C25.9853 20.2963 26.1705 20.9945 25.0584 23.1846C23.8878 25.4981 22.9353 26.3133 22.9353 26.3133C22.5011 26.5634 20.7793 25.1725 20.8963 24.568C20.8963 24.568 21.8615 21.2935 22.2383 19.7962C22.615 18.2988 23.1545 15.4213 24.1868 15.5532Z" fill="#3B82F6"/>
<path id="Vector_155" opacity="0.8" d="M24.1868 15.5532C24.8104 15.5532 25.7703 18.0935 25.8778 19.1949C25.9853 20.2963 26.1705 20.9945 25.0584 23.1846C23.8878 25.4981 22.9353 26.3133 22.9353 26.3133C22.5011 26.5634 20.7793 25.1725 20.8963 24.568C20.8963 24.568 21.8615 21.2935 22.2383 19.7962C22.615 18.2988 23.1545 15.4213 24.1868 15.5532Z" fill="white"/>
<path id="Vector_156" opacity="0.1" d="M25.1733 16.8409C24.8541 16.1236 24.4827 15.5532 24.1868 15.5532C23.1545 15.4213 22.6161 18.2978 22.2383 19.7962C21.8605 21.2946 20.8963 24.568 20.8963 24.568C20.7952 25.0906 22.0669 26.1984 22.6937 26.3293C22.8374 26.1707 22.947 25.9994 22.9523 25.844C22.9694 25.3747 21.9754 25.3885 21.9222 25.147C21.869 24.9054 22.8002 22.0246 23.3908 19.6866C23.9814 17.3485 24.6434 16.2524 25.1733 16.8409Z" fill="black"/>
<path id="Vector_157" d="M21.4593 26.1179C21.8254 25.6422 22.3947 25.3868 22.8172 25.7125C23.2397 26.0381 23.2855 26.6873 22.9236 27.163C22.5618 27.6387 21.918 27.7589 21.4955 27.4333C21.073 27.1077 21.0932 26.5926 21.4593 26.1179Z" fill="#3B82F6"/>
<path id="Vector_158" opacity="0.15" d="M21.8023 27.0337C21.5575 26.5602 21.8023 25.7641 22.5877 25.5971C22.2046 25.4821 21.7608 25.7237 21.4575 26.1185C21.0914 26.5932 21.0669 27.1082 21.4894 27.4339C21.8608 27.7201 22.4004 27.6605 22.7739 27.3189C22.5451 27.387 22.0481 27.5062 21.8023 27.0337Z" fill="black"/>
<path id="Vector_159" d="M18.3501 19.3905C18.2628 19.5427 18.1947 19.8109 18.2235 20.3196C18.2522 20.8283 18.3991 21.6626 18.6694 22.0883C18.9397 22.5139 19.2228 22.6406 19.5548 22.6608C19.8868 22.681 20.0315 22.6214 20.2806 22.6842C20.6381 22.7789 20.7797 22.6587 20.5913 22.3532C20.4029 22.0478 20.1348 21.6307 20.0369 21.3295C19.9751 21.1358 19.939 20.9347 19.9304 20.7314C19.9837 20.6346 20.2103 21.1103 20.5072 21.2135C20.8042 21.3167 20.9095 21.1667 20.8786 21.0837C20.8478 21.0007 20.6658 20.8368 20.5072 20.5516C20.3487 20.2664 20.0965 19.7928 19.9273 19.5363C19.758 19.2798 19.608 19.1309 19.045 19.1309C18.4821 19.1309 18.4565 19.2149 18.3501 19.3905Z" fill="#3B82F6"/>
<path id="Vector_160" opacity="0.8" d="M18.3501 19.3905C18.2628 19.5427 18.1947 19.8109 18.2235 20.3196C18.2522 20.8283 18.3991 21.6626 18.6694 22.0883C18.9397 22.5139 19.2228 22.6406 19.5548 22.6608C19.8868 22.681 20.0315 22.6214 20.2806 22.6842C20.6381 22.7789 20.7797 22.6587 20.5913 22.3532C20.4029 22.0478 20.1348 21.6307 20.0369 21.3295C19.9751 21.1358 19.939 20.9347 19.9304 20.7314C19.9837 20.6346 20.2103 21.1103 20.5072 21.2135C20.8042 21.3167 20.9095 21.1667 20.8786 21.0837C20.8478 21.0007 20.6658 20.8368 20.5072 20.5516C20.3487 20.2664 20.0965 19.7928 19.9273 19.5363C19.758 19.2798 19.608 19.1309 19.045 19.1309C18.4821 19.1309 18.4565 19.2149 18.3501 19.3905Z" fill="white"/>
<path id="Vector_161" opacity="0.1" d="M18.6683 22.0874C18.9397 22.5205 19.2217 22.6397 19.5537 22.6599C19.8857 22.6801 20.0305 22.6205 20.2795 22.6833C20.4785 22.7355 20.6105 22.7216 20.6562 22.6471C20.5019 22.7536 20.3274 22.6056 20.155 22.4471C19.9826 22.2885 19.4888 22.3247 19.3377 22.2396C19.1397 22.1278 18.8662 22.0033 18.7247 21.2371C18.5832 20.4709 18.8971 20.3857 19.1174 19.7387L19.0982 19.1289H19.0482C18.4874 19.1289 18.4501 19.2108 18.3501 19.3864C18.2628 19.5386 18.1947 19.8068 18.2235 20.3155C18.2522 20.8242 18.398 21.6617 18.6683 22.0874Z" fill="black"/>
<path id="Vector_162" d="M23.4168 9.70752C23.7286 9.5447 23.9744 9.96186 24.0478 10.5078C24.1213 11.0537 24.0808 11.4315 23.7956 11.5582C23.3763 11.7455 22.8293 11.505 22.7187 10.9324C22.625 10.445 22.9145 10.0002 23.4168 9.70752Z" fill="#37474F"/>
<path id="Vector_163" d="M18.2734 18.4103C18.2734 18.4103 18.3447 19.5958 18.4863 20.0321C18.6342 20.494 19.0546 20.6536 19.2748 20.3429C19.4951 20.0321 19.5558 19.4575 19.5558 19.4575L19.6101 18.3848L18.2734 18.4103Z" fill="#37474F"/>
<path id="Vector_164" d="M18.6292 13.899C18.1493 13.7926 17.8417 14.2183 17.8779 14.9632C17.9141 15.7081 18.2482 18.7943 18.2482 18.7943C18.2631 18.9007 18.5068 18.9912 18.9421 18.9784C19.3773 18.9656 19.6242 18.7602 19.6306 18.673C19.6306 18.673 19.7934 15.8954 19.836 15.5613C19.9222 14.8706 19.2879 14.0405 18.6292 13.899Z" fill="#3B82F6"/>
<path id="Vector_165" opacity="0.8" d="M18.6292 13.899C18.1493 13.7926 17.8417 14.2183 17.8779 14.9632C17.9141 15.7081 18.2482 18.7943 18.2482 18.7943C18.2631 18.9007 18.5068 18.9912 18.9421 18.9784C19.3773 18.9656 19.6242 18.7602 19.6306 18.673C19.6306 18.673 19.7934 15.8954 19.836 15.5613C19.9222 14.8706 19.2879 14.0405 18.6292 13.899Z" fill="white"/>
<path id="Vector_166" opacity="0.1" d="M19.8392 15.3569C19.7966 14.7184 19.2241 14.0267 18.6292 13.899C18.1493 13.7926 17.8417 14.2183 17.8779 14.9632C17.9141 15.7081 18.2482 18.7943 18.2482 18.7943C18.261 18.8901 18.4472 18.9678 18.7803 18.9784C18.7356 18.5325 18.7197 17.9344 18.6877 17.4077C18.61 16.1594 18.3685 15.0952 18.941 15.4112C19.3667 15.6475 19.7328 15.574 19.8392 15.3569Z" fill="black"/>
<path id="Vector_167" d="M18.9552 13.6406L18.505 14.1291C18.505 14.1291 18.3667 14.493 18.8062 14.874C19.2319 15.2369 19.5511 15.1497 19.5511 15.1497L20.2641 14.6176L18.9552 13.6406Z" fill="#37474F"/>
<path id="Vector_168" d="M23.2945 9.56904C23.7968 10.0107 23.9618 11.5495 23.5829 11.9965C23.204 12.4434 20.1189 14.8347 20.1189 14.8347C19.7199 15.0624 18.5386 14.2153 18.8068 13.6502C18.8068 13.6502 20.9777 11.0653 21.5396 10.3906C22.1015 9.7159 22.7911 9.1274 23.2945 9.56904Z" fill="#3B82F6"/>
<path id="Vector_169" opacity="0.8" d="M23.2945 9.56904C23.7968 10.0107 23.9618 11.5495 23.5829 11.9965C23.204 12.4434 20.1189 14.8347 20.1189 14.8347C19.7199 15.0624 18.5386 14.2153 18.8068 13.6502C18.8068 13.6502 20.9777 11.0653 21.5396 10.3906C22.1015 9.7159 22.7911 9.1274 23.2945 9.56904Z" fill="white"/>
<path id="Vector_170" opacity="0.1" d="M23.294 9.5689C22.7907 9.12726 22.1 9.71682 21.5392 10.3905C20.9783 11.0641 18.8063 13.6501 18.8063 13.6501C18.7084 13.8566 18.8063 14.1013 18.9851 14.3163C19.1862 14.0236 19.6683 13.383 20.7144 12.2475C21.9127 10.9492 22.9077 10.0031 23.5122 9.86581C23.4579 9.75407 23.3845 9.65404 23.294 9.5689Z" fill="black"/>
</g>
</g>
</g>
</svg>
